<?xml version="1.0" encoding="utf-8"?>
<!-- Generator: Adobe Illustrator 23.0.1, SVG Export Plug-In . SVG Version: 6.00 Build 0)  -->
<svg version="1.1" id="Layer_1" xmlns="http://www.w3.org/2000/svg" xmlns:xlink="http://www.w3.org/1999/xlink" x="0px" y="0px"
	 viewBox="0 0 512 512" style="enable-background:new 0 0 512 512;" xml:space="preserve">
<style type="text/css">
	.st0{fill:#208232;}
	.st1{fill:#13226D;}
	.st2{fill:#FFFFFF;}
	.st3{fill:#E1E1E3;}
</style>
<g>
	<circle class="st0" cx="256" cy="256" r="256"/>
</g>
<path class="st1" d="M510.7,281.7L297.2,68.2h-82.4v146.6l-146.6,0v82.4l213.5,213.5C402.6,498.7,498.7,402.6,510.7,281.7z"/>
<polygon class="st2" points="443.8,297.2 443.8,214.8 297.2,214.8 297.2,68.2 214.8,68.2 214.8,214.8 68.2,214.8 68.2,297.2 
	214.8,297.2 214.8,443.8 297.2,443.8 297.2,297.2 "/>
<polygon class="st3" points="297.2,214.8 297.2,68.2 256.2,68.2 256.2,443.8 297.2,443.8 297.2,297.2 443.8,297.2 443.8,214.8 "/>
</svg>
