<?xml version="1.0" encoding="utf-8"?>
<!-- Generator: Adobe Illustrator 23.0.1, SVG Export Plug-In . SVG Version: 6.00 Build 0)  -->
<svg version="1.1" id="Layer_1" xmlns="http://www.w3.org/2000/svg" xmlns:xlink="http://www.w3.org/1999/xlink" x="0px" y="0px"
	 viewBox="0 0 80 60" style="enable-background:new 0 0 80 60;" xml:space="preserve">
<style type="text/css">
	.st0{fill:#5F3A0F;}
	.st1{font-family:'ArialMT';}
	.st2{font-size:8.2393px;}
	.st3{fill:#37B253;}
	.st4{font-size:8.2468px;}
	.st5{fill:#F24444;}
	.st6{font-size:8.3201px;}
	.st7{fill:none;stroke:#000000;stroke-miterlimit:10;}
</style>
<text transform="matrix(1 0 0 1 22.8387 6.4185)" class="st0 st1 st2">Strength</text>
<text transform="matrix(1 0 0 1 0.3274 32.5575)" class="st3 st1 st4">Agility</text>
<text transform="matrix(1 0 0 1 38.9875 32.5787)" class="st5 st1 st6">Intelligence</text>
<path class="st7" d="M59,36.5c0,5.5-9,10-20,10"/>
<path class="st7" d="M31.8,33"/>
<path class="st7" d="M8.8,56"/>
<path class="st7" d="M39,46.5c-11,0-20-4.5-20-10"/>
<path class="st7" d="M53.3,3.5c12.2,0,22,9.8,22,22"/>
<g>
	<path class="st7" d="M1,25C1,12.8,10.8,3,23,3"/>
	<g>
		<line class="st7" x1="6.5" y1="5" x2="6.5" y2="11"/>
		<line class="st7" x1="12" y1="10.5" x2="6" y2="10.5"/>
	</g>
</g>
<g>
	<line class="st7" x1="68.8" y1="15.5" x2="68.8" y2="9.5"/>
	<line class="st7" x1="74.3" y1="10" x2="68.3" y2="10"/>
</g>
<g>
	<line class="st7" x1="35" y1="50.3" x2="38.9" y2="45.8"/>
	<line class="st7" x1="34.5" y1="42.6" x2="39" y2="46.5"/>
</g>
</svg>
