<svg id="Layer_1" enable-background="new 0 0 256 256" height="512" viewBox="0 0 256 256" width="512" xmlns="http://www.w3.org/2000/svg"><g><g><path d="m33 68.048v25.852c0 1.105.895 2 2 2h67.897c0 1.242 0 25.258 0 24.658 0 .659.535 1.194 1.194 1.194h47.727c.71 0 1.285-.575 1.285-1.285v-24.567h67.897c1.105 0 2-.895 2-2v-25.852z" fill="#e0ebfc"/></g><g><path d="m33 68.048-11.79-4.14c-1.043-.366-2.188.164-2.582 1.197-.321.841-.054 1.792.658 2.343l3.3 2.552h-12.25c-1.657 0-3 1.343-3 3v9.741c0 1.452 1.04 2.696 2.469 2.953l9.926 1.785c1.865.335 3.787.134 5.542-.581l7.727-3.148z" fill="#f9cfcf"/></g><g><path d="m223 68.048 11.79-4.14c1.043-.366 2.188.164 2.582 1.197.321.841.054 1.792-.658 2.343l-3.3 2.552h12.25c1.657 0 3 1.343 3 3v9.741c0 1.452-1.04 2.696-2.469 2.953l-11.353 2.041c-.933.168-1.893.067-2.771-.29l-9.071-3.695z" fill="#f9cfcf"/></g><g><path d="m151.818 123.752h-47.728c-1.743 0-3.164-1.404-3.193-3.142 0-.014 0-.027 0-.042v-22.669h-65.897c-2.206 0-4-1.794-4-4v-25.851c0-1.104.896-2 2-2h190c1.104 0 2 .896 2 2v25.852c0 2.206-1.794 4-4 4h-65.897v22.567c0 1.811-1.474 3.285-3.285 3.285zm-46.921-4h46.205v-23.853c0-1.104.896-2 2-2h67.898v-23.851h-186v23.852h67.897c1.104 0 2 .896 2 2z" fill="#3762cc"/></g><g><path d="m21.503 89.637c-.709 0-1.42-.063-2.126-.189l-9.925-1.784c-2.386-.431-4.116-2.5-4.116-4.922v-9.742c0-2.757 2.243-5 5-5h6.782c-.674-1.054-.829-2.382-.359-3.609.788-2.061 3.037-3.101 5.113-2.369l11.79 4.14c.802.28 1.338 1.036 1.338 1.886v15.702c0 .813-.492 1.546-1.245 1.853l-7.728 3.147c-1.445.588-2.979.887-4.524.887zm-11.167-17.637c-.552 0-1 .448-1 1v9.741c0 .484.347.898.824.985l9.924 1.783c1.498.271 3.029.108 4.434-.465l6.482-2.639v-12.94l-10.452-3.67 3.262 2.623c.677.523.945 1.419.669 2.229s-1.038 1.353-1.893 1.353z" fill="#3762cc"/></g><g><path d="m233.956 89.814c-.901 0-1.797-.175-2.64-.518l-9.071-3.694c-.753-.306-1.245-1.039-1.245-1.852v-15.702c0-.85.536-1.605 1.338-1.887l11.79-4.14c2.079-.73 4.326.31 5.113 2.369.469 1.228.314 2.556-.359 3.609h6.782c2.757 0 5 2.243 5 5v9.741c0 2.422-1.73 4.491-4.115 4.921l-11.354 2.042c-.411.074-.825.111-1.239.111zm-8.956-7.409 7.825 3.187c.527.215 1.103.273 1.664.175l11.352-2.041c.477-.086.823-.5.823-.984v-9.742c0-.552-.448-1-1-1h-12.25c-.855 0-1.616-.544-1.893-1.354s-.008-1.705.669-2.229l3.301-2.553-10.491 3.611z" fill="#3762cc"/></g><g><path d="m96.846 237.898-2.772 5.277c-1.067 2.032-1.625 4.294-1.625 6.589 0 1.787 1.448 3.235 3.235 3.235h16.921c1.787 0 3.235-1.448 3.235-3.235 0-1.819.083-3.384-.598-5.651l-1.865-6.215z" fill="#f9cfcf"/></g><g><path d="m159.334 237.898 2.772 5.277c1.067 2.032 1.625 4.294 1.625 6.589 0 1.787-1.448 3.235-3.235 3.235h-16.921c-1.787 0-3.235-1.448-3.235-3.235 0-1.819-.083-3.384.598-5.651l1.865-6.215z" fill="#f9cfcf"/></g><g><path d="m103.654 134.555-13.942 101.07c-.166 1.202.768 2.273 1.981 2.273h26.086c1.028 0 1.889-.779 1.99-1.802l8.32-83.76 8.32 83.76c.102 1.023.962 1.802 1.99 1.802h26.086c1.213 0 2.147-1.071 1.981-2.273l-13.942-101.07z" fill="#e0ebfc"/></g><g><path d="m164.487 239.898h-26.087c-2.065 0-3.776-1.55-3.98-3.605l-6.33-63.725-6.33 63.725c-.204 2.056-1.915 3.605-3.979 3.605h-26.088c-1.156 0-2.255-.5-3.015-1.371s-1.105-2.028-.948-3.175l13.942-101.071c.137-.989.982-1.727 1.981-1.727h48.872c.999 0 1.845.737 1.981 1.727l13.942 101.07c.157 1.147-.188 2.305-.948 3.176s-1.856 1.371-3.013 1.371zm-36.397-89.562c1.028 0 1.889.779 1.99 1.803l8.32 83.76h26.087l-13.704-99.344h-45.386l-13.704 99.344h26.087l8.319-83.76c.102-1.024.963-1.803 1.991-1.803z" fill="#3762cc"/></g><g><path d="m155.67 146.262c.835 0 1.448-.784 1.247-1.594l-3.57-14.399c-.142-.573-.657-.976-1.247-.976l-48.198.001c-.59 0-1.105.403-1.247.976l-3.57 14.399c-.201.81.412 1.594 1.247 1.594 36.678-.001 55.946-.001 55.338-.001z" fill="#e0ebfc"/></g><g><path d="m100.332 148.263c-1.017 0-1.959-.459-2.586-1.26-.627-.8-.847-1.826-.603-2.813l3.57-14.4c.362-1.468 1.674-2.494 3.188-2.494l48.197-.001c1.515 0 2.826 1.026 3.188 2.496l3.57 14.396c.245.987.026 2.013-.601 2.814-.624.798-1.562 1.257-2.574 1.261-.004 0-.008 0-.01 0s-.003 0-.004 0zm4.13-16.968-3.216 12.968 53.51-.001-3.216-12.968z" fill="#3762cc"/></g><g><path d="m106.148 123.752c-.352 0-.708-.093-1.031-.288-.946-.57-1.25-1.8-.679-2.745l32.416-53.704c.569-.946 1.798-1.252 2.745-.679.946.57 1.25 1.8.679 2.745l-32.416 53.704c-.375.623-1.036.967-1.714.967z" fill="#3762cc"/></g><g><path d="m117.454 60.007v8.041l9.074 19.944 12.038-19.944v-4.099-3.942z" fill="#f9cfcf"/></g><g><path d="m126.528 89.992c-.038 0-.077-.001-.116-.003-.74-.044-1.396-.493-1.704-1.169l-9.074-19.944c-.118-.26-.18-.542-.18-.828v-8.041c0-1.104.896-2 2-2h21.112c1.104 0 2 .896 2 2v8.041c0 .364-.1.722-.288 1.033l-12.038 19.944c-.363.603-1.013.967-1.712.967zm-7.074-22.378 7.323 16.096 9.789-16.219v-5.484h-17.112z" fill="#3762cc"/></g><g><path d="m128.02 59.214c-14.746 0-26.701-11.954-26.701-26.7v-8.549c0-2.431 1.971-4.402 4.402-4.402h48.999v12.951c.001 14.746-11.953 26.7-26.7 26.7z" fill="#4671c6"/></g><g><path d="m128.021 61.214c-15.826 0-28.701-12.875-28.701-28.7v-8.55c0-3.529 2.872-6.401 6.402-6.401h48.999c1.104 0 2 .896 2 2v12.951c0 15.825-12.875 28.7-28.7 28.7zm-22.299-39.651c-1.324 0-2.402 1.077-2.402 2.401v8.55c0 13.62 11.081 24.7 24.701 24.7s24.7-11.08 24.7-24.7v-10.951z" fill="#3762cc"/></g><g><path d="m150.761 35.419v-2.129c0-12.446-10.181-22.536-22.741-22.536-12.559 0-22.741 10.09-22.741 22.536v2.129c-3.949-.08-7.082 3.066-7.082 6.868 0 4.06 3.545 7.272 7.682 6.835 2.347 9.971 11.366 17.399 22.14 17.399 10.775 0 19.794-7.429 22.14-17.399 4.132.437 7.682-2.769 7.682-6.835.002-3.805-3.133-6.948-7.08-6.868z" fill="#f9cfcf"/></g><g><path d="m139.827 46.97c-1.587 0-2.874-1.287-2.874-2.874v-3.066c0-1.587 1.287-2.874 2.874-2.874 1.587 0 2.874 1.287 2.874 2.874v3.066c0 1.587-1.287 2.874-2.874 2.874z" fill="#3762cc"/></g><g><path d="m116.208 46.97c-1.587 0-2.874-1.287-2.874-2.874v-3.066c0-1.587 1.287-2.874 2.874-2.874 1.587 0 2.874 1.287 2.874 2.874v3.066c.001 1.587-1.286 2.874-2.874 2.874z" fill="#3762cc"/></g><g><path d="m128.021 68.521c-11.016 0-20.53-7.075-23.671-17.396-1.927-.169-3.765-.955-5.215-2.261-1.867-1.68-2.938-4.077-2.938-6.577 0-2.394.945-4.638 2.661-6.319 1.235-1.21 2.761-2.018 4.421-2.362v-.316c0-13.529 11.099-24.536 24.741-24.536s24.74 11.007 24.74 24.536v.316c1.661.344 3.186 1.151 4.421 2.362 1.716 1.682 2.661 3.926 2.661 6.319 0 2.501-1.07 4.897-2.937 6.577-1.452 1.306-3.289 2.092-5.216 2.261-3.139 10.32-12.653 17.396-23.668 17.396zm-22.139-21.4c.917 0 1.73.631 1.945 1.542 2.197 9.337 10.501 15.857 20.193 15.857 9.691 0 17.995-6.521 20.192-15.857.231-.981 1.159-1.633 2.158-1.531 1.436.154 2.802-.289 3.859-1.241 1.04-.936 1.612-2.215 1.612-3.604 0-1.31-.519-2.539-1.461-3.463-.952-.934-2.224-1.438-3.58-1.405-.549-.006-1.057-.196-1.44-.571-.384-.376-.601-.892-.601-1.429v-2.13c0-11.323-9.304-20.536-20.74-20.536s-20.741 9.213-20.741 20.536v2.13c0 .537-.217 1.053-.601 1.429s-.921.569-1.44.571c-1.357-.029-2.627.473-3.58 1.405-.942.924-1.461 2.153-1.461 3.463 0 1.388.572 2.668 1.612 3.604 1.058.951 2.426 1.393 3.86 1.241.072-.007.144-.011.214-.011z" fill="#3762cc"/></g><g><path d="m115.833 31.576h31.032c4.339 0 7.856-3.517 7.856-7.856v-6.788c0-7.695-6.238-13.932-13.932-13.932h-22.634c-7.694 0-13.932 6.237-13.932 13.932v3.035c0 6.411 5.198 11.609 11.61 11.609z" fill="#4671c6"/></g><g><path d="m146.865 33.576h-31.032c-7.504 0-13.609-6.105-13.609-13.609v-3.035c0-8.786 7.146-15.932 15.931-15.932h22.634c8.785 0 15.932 7.146 15.932 15.932v6.788c0 5.434-4.421 9.856-9.856 9.856zm-28.71-28.576c-6.579 0-11.932 5.353-11.932 11.932v3.035c0 5.299 4.311 9.609 9.609 9.609h31.032c3.229 0 5.855-2.627 5.855-5.856v-6.788c0-6.579-5.353-11.932-11.932-11.932z" fill="#3762cc"/></g><g><path d="m128.01 56.63c-.97 0-1.82-.115-2.601-.354-1.296-.394-2.435-1.061-3.295-1.927-.583-.589-.579-1.538.009-2.122.589-.583 1.537-.578 2.122.009.511.516 1.215.92 2.037 1.171.493.149 1.059.223 1.728.223.67 0 1.235-.073 1.729-.223.822-.251 1.526-.655 2.037-1.171.585-.587 1.533-.592 2.122-.009.588.584.592 1.533.009 2.122-.859.866-1.998 1.532-3.294 1.927-.782.239-1.633.354-2.603.354z" fill="#3762cc"/></g><g><path d="m125.886 121.752h-6.32l-5.751 30.478h12.071z" fill="#4671c6"/></g><g><path d="m130.114 121.752h6.32l5.751 30.478h-12.071z" fill="#4671c6"/></g><g><path d="m125.886 154.229h-12.07c-.596 0-1.16-.266-1.54-.724s-.536-1.063-.426-1.647l5.75-30.478c.179-.944 1.004-1.629 1.966-1.629h6.32c1.104 0 2 .896 2 2v30.478c0 1.105-.896 2-2 2zm-9.657-4h7.657v-26.478h-2.662z" fill="#3762cc"/></g><g><path d="m142.185 154.229h-12.07c-1.104 0-2-.896-2-2v-30.478c0-1.104.896-2 2-2h6.32c.962 0 1.787.685 1.966 1.629l5.75 30.478c.11.585-.046 1.189-.426 1.647s-.945.724-1.54.724zm-10.071-4h7.657l-4.995-26.478h-2.662z" fill="#3762cc"/></g><g><path d="m104.551 121.752h46.898v7.543h-46.898z" fill="#4671c6"/></g><g><path d="m151.449 131.295h-46.898c-1.104 0-2-.896-2-2v-7.543c0-1.104.896-2 2-2h46.898c1.104 0 2 .896 2 2v7.543c0 1.104-.895 2-2 2zm-44.898-4h42.898v-3.543h-42.898z" fill="#3762cc"/></g><g><path d="m112.605 255h-16.92c-2.887 0-5.235-2.349-5.235-5.235 0-2.609.642-5.209 1.854-7.519l2.771-5.277c.346-.658 1.027-1.07 1.771-1.07h16.532c.883 0 1.662.579 1.916 1.425l1.865 6.215c.698 2.331.69 4.047.684 5.707l-.002.52c0 2.885-2.349 5.234-5.236 5.234zm-14.55-15.102-2.21 4.207c-.913 1.738-1.396 3.695-1.396 5.659 0 .682.554 1.235 1.235 1.235h16.921c.682 0 1.235-.554 1.235-1.235l.002-.538c.007-1.553.012-2.779-.516-4.539l-1.438-4.789z" fill="#3762cc"/></g><g><path d="m160.496 255h-16.921c-2.887 0-5.235-2.349-5.235-5.235l-.002-.52c-.007-1.66-.015-3.376.684-5.706l1.864-6.215c.254-.847 1.033-1.426 1.916-1.426h16.532c.743 0 1.425.412 1.771 1.07l2.772 5.277c1.213 2.31 1.854 4.909 1.854 7.519 0 2.887-2.348 5.236-5.235 5.236zm-16.206-15.102-1.437 4.789c-.527 1.76-.522 2.986-.516 4.539l.002.538c0 .682.554 1.235 1.235 1.235h16.921c.682 0 1.235-.554 1.235-1.235 0-1.964-.482-3.921-1.396-5.659l-2.21-4.207z" fill="#3762cc"/></g><g><path d="m59.316 20.783 3.605-3.605c1.152-1.152.517-3.125-1.092-3.388l-20.452-3.342c-1.349-.22-2.517.947-2.296 2.296l3.342 20.451c.263 1.608 2.236 2.244 3.388 1.092l3.605-3.605 30.81 30.81c.781.781 2.047.781 2.828 0l7.071-7.071c.781-.781.781-2.047 0-2.828z" fill="#f9a7a7"/></g><g><path d="m169.118 61.492c.781.781 2.047.781 2.828 0l30.81-30.81 3.605 3.605c1.152 1.152 3.125.517 3.388-1.092l3.342-20.451c.22-1.349-.947-2.517-2.296-2.296l-20.451 3.342c-1.608.263-2.244 2.236-1.092 3.388l3.605 3.605-30.81 30.81c-.781.781-.781 2.047 0 2.828z" fill="#ffea92"/></g><g><path d="m209.749 133.71c-.263-1.608-2.236-2.244-3.388-1.092l-3.605 3.605-30.81-30.81c-.781-.781-2.047-.781-2.828 0l-7.071 7.071c-.781.781-.781 2.047 0 2.828l30.81 30.81-3.605 3.605c-1.152 1.152-.517 3.125 1.092 3.388l20.451 3.342c1.349.22 2.517-.947 2.296-2.296z" fill="#6bdddd"/></g><g><path d="m83.054 105.414c-.781-.781-2.047-.781-2.828 0l-30.81 30.81-3.605-3.605c-1.152-1.152-3.125-.517-3.388 1.092l-3.342 20.451c-.22 1.349.947 2.517 2.296 2.296l20.452-3.342c1.608-.263 2.244-2.236 1.092-3.388l-3.605-3.605 30.81-30.81c.781-.781.781-2.047 0-2.828z" fill="#a4c9ff"/></g></g></svg>