<?xml version="1.0" encoding="utf-8"?>
<!-- Generator: Adobe Illustrator 23.0.1, SVG Export Plug-In . SVG Version: 6.00 Build 0)  -->
<svg version="1.1" id="Layer_1" xmlns="http://www.w3.org/2000/svg" xmlns:xlink="http://www.w3.org/1999/xlink" x="0px" y="0px"
	 viewBox="0 0 512 512" style="enable-background:new 0 0 512 512;" xml:space="preserve">
<style type="text/css">
	.st0{fill:#E0EBFC;}
	.st1{fill:#F9CFCF;}
	.st2{fill:#3762CC;}
	.st3{fill:#4671C6;}
	.st4{fill:#F24444;}
	.st5{fill:#FDC236;}
	.st6{fill:#37B253;}
	.st7{fill:#5F3A0F;}
</style>
<g>
	<g>
		<path class="st0" d="M66,136.1v51.7c0,2.2,1.8,4,4,4h135.8c0,2.5,0,50.5,0,49.3c0,1.3,1.1,2.4,2.4,2.4h95.5c1.4,0,2.6-1.1,2.6-2.6
			v-49.1H442c2.2,0,4-1.8,4-4v-51.7H66z"/>
	</g>
	<g>
		<path class="st1" d="M66,136.1l-23.6-8.3c-2.1-0.7-4.4,0.3-5.2,2.4c-0.6,1.7-0.1,3.6,1.3,4.7l6.6,5.1H20.7c-3.3,0-6,2.7-6,6v19.5
			c0,2.9,2.1,5.4,4.9,5.9l19.9,3.6c3.7,0.7,7.6,0.3,11.1-1.2l15.5-6.3V136.1z"/>
	</g>
	<g>
		<path class="st1" d="M446,136.1l23.6-8.3c2.1-0.7,4.4,0.3,5.2,2.4c0.6,1.7,0.1,3.6-1.3,4.7l-6.6,5.1h24.5c3.3,0,6,2.7,6,6v19.5
			c0,2.9-2.1,5.4-4.9,5.9l-22.7,4.1c-1.9,0.3-3.8,0.1-5.5-0.6l-18.1-7.4V136.1z"/>
	</g>
	<g>
		<path class="st2" d="M303.6,247.5h-95.5c-3.5,0-6.3-2.8-6.4-6.3c0,0,0-0.1,0-0.1v-45.3H70c-4.4,0-8-3.6-8-8v-51.7c0-2.2,1.8-4,4-4
			h380c2.2,0,4,1.8,4,4v51.7c0,4.4-3.6,8-8,8H310.2v45.1C310.2,244.6,307.3,247.5,303.6,247.5L303.6,247.5z M209.8,239.5h92.4v-47.7
			c0-2.2,1.8-4,4-4H442v-47.7H70v47.7h135.8c2.2,0,4,1.8,4,4L209.8,239.5z"/>
	</g>
	<g>
		<path class="st2" d="M43,179.3c-1.4,0-2.8-0.1-4.3-0.4l-19.9-3.6c-4.8-0.9-8.2-5-8.2-9.8V146c0-5.5,4.5-10,10-10h13.6
			c-1.3-2.1-1.7-4.8-0.7-7.2c1.6-4.1,6.1-6.2,10.2-4.7l23.6,8.3c1.6,0.6,2.7,2.1,2.7,3.8v31.4c0,1.6-1,3.1-2.5,3.7l-15.5,6.3
			C49.2,178.7,46.1,179.3,43,179.3L43,179.3z M20.7,144c-1.1,0-2,0.9-2,2v19.5c0,1,0.7,1.8,1.6,2l19.8,3.6c3,0.5,6.1,0.2,8.9-0.9
			l13-5.3v-25.9l-20.9-7.3l6.5,5.2c1.4,1,1.9,2.8,1.3,4.5s-2.1,2.7-3.8,2.7H20.7z"/>
	</g>
	<g>
		<path class="st2" d="M467.9,179.6c-1.8,0-3.6-0.4-5.3-1l-18.1-7.4c-1.5-0.6-2.5-2.1-2.5-3.7v-31.4c0-1.7,1.1-3.2,2.7-3.8l23.6-8.3
			c4.2-1.5,8.7,0.6,10.2,4.7c0.9,2.5,0.6,5.1-0.7,7.2h13.6c5.5,0,10,4.5,10,10v19.5c0,4.8-3.5,9-8.2,9.8l-22.7,4.1
			C469.6,179.6,468.7,179.6,467.9,179.6z M450,164.8l15.6,6.4c1.1,0.4,2.2,0.5,3.3,0.4l22.7-4.1c1-0.2,1.6-1,1.6-2V146
			c0-1.1-0.9-2-2-2h-24.5c-1.7,0-3.2-1.1-3.8-2.7s0-3.4,1.3-4.5l6.6-5.1l-21,7.2V164.8z"/>
	</g>
	<g>
		<path class="st1" d="M193.7,475.8l-5.5,10.6c-2.1,4.1-3.2,8.6-3.2,13.2c0,3.6,2.9,6.5,6.5,6.5h33.8c3.6,0,6.5-2.9,6.5-6.5
			c0-3.6,0.2-6.8-1.2-11.3l-3.7-12.4H193.7z"/>
	</g>
	<g>
		<path class="st1" d="M318.7,475.8l5.5,10.6c2.1,4.1,3.2,8.6,3.2,13.2c0,3.6-2.9,6.5-6.5,6.5h-33.8c-3.6,0-6.5-2.9-6.5-6.5
			c0-3.6-0.2-6.8,1.2-11.3l3.7-12.4H318.7z"/>
	</g>
	<g>
		<path class="st0" d="M207.3,269.1l-27.9,202.1c-0.3,2.4,1.5,4.5,4,4.5h52.2c2.1,0,3.8-1.6,4-3.6l16.6-167.5l16.6,167.5
			c0.2,2,1.9,3.6,4,3.6H329c2.4,0,4.3-2.1,4-4.5L305,269.1L207.3,269.1z"/>
	</g>
	<g>
		<path class="st2" d="M329,479.8h-52.2c-4.1,0-7.6-3.1-8-7.2l-12.7-127.5l-12.7,127.5c-0.4,4.1-3.8,7.2-8,7.2h-52.2
			c-2.3,0-4.5-1-6-2.7s-2.2-4.1-1.9-6.4l27.9-202.1c0.3-2,2-3.5,4-3.5H305c2,0,3.7,1.5,4,3.5l27.9,202.1c0.3,2.3-0.4,4.6-1.9,6.4
			S331.3,479.8,329,479.8L329,479.8z M256.2,300.7c2.1,0,3.8,1.6,4,3.6l16.6,167.5H329l-27.4-198.7h-90.8l-27.4,198.7h52.2
			l16.6-167.5C252.4,302.2,254.1,300.7,256.2,300.7L256.2,300.7z"/>
	</g>
	<g>
		<path class="st0" d="M311.3,292.5c1.7,0,2.9-1.6,2.5-3.2l-7.1-28.8c-0.3-1.1-1.3-2-2.5-2l-96.4,0c-1.2,0-2.2,0.8-2.5,2l-7.1,28.8
			c-0.4,1.6,0.8,3.2,2.5,3.2C274,292.5,312.6,292.5,311.3,292.5z"/>
	</g>
	<g>
		<path class="st2" d="M200.7,296.5c-2,0-3.9-0.9-5.2-2.5c-1.3-1.6-1.7-3.7-1.2-5.6l7.1-28.8c0.7-2.9,3.3-5,6.4-5l96.4,0
			c3,0,5.7,2.1,6.4,5l7.1,28.8c0.5,2,0.1,4-1.2,5.6c-1.2,1.6-3.1,2.5-5.1,2.5c0,0,0,0,0,0s0,0,0,0L200.7,296.5z M208.9,262.6
			l-6.4,25.9l107,0l-6.4-25.9L208.9,262.6z"/>
	</g>
	<g>
		<path class="st2" d="M212.3,247.5c-0.7,0-1.4-0.2-2.1-0.6c-1.9-1.1-2.5-3.6-1.4-5.5L273.7,134c1.1-1.9,3.6-2.5,5.5-1.4
			c1.9,1.1,2.5,3.6,1.4,5.5l-64.8,107.4C215,246.8,213.7,247.5,212.3,247.5L212.3,247.5z"/>
	</g>
	<g>
		<path class="st1" d="M234.9,120v16.1l18.1,39.9l24.1-39.9v-8.2V120L234.9,120z"/>
	</g>
	<g>
		<path class="st2" d="M253.1,180c-0.1,0-0.2,0-0.2,0c-1.5-0.1-2.8-1-3.4-2.3l-18.1-39.9c-0.2-0.5-0.4-1.1-0.4-1.7V120
			c0-2.2,1.8-4,4-4h42.2c2.2,0,4,1.8,4,4v16.1c0,0.7-0.2,1.4-0.6,2.1L256.5,178C255.8,179.3,254.5,180,253.1,180L253.1,180z
			 M238.9,135.2l14.6,32.2l19.6-32.4v-11h-34.2L238.9,135.2z"/>
	</g>
	<g>
		<path class="st3" d="M256,118.4c-29.5,0-53.4-23.9-53.4-53.4V47.9c0-4.9,3.9-8.8,8.8-8.8h98V65C309.4,94.5,285.5,118.4,256,118.4z
			"/>
	</g>
	<g>
		<path class="st2" d="M256,122.4c-31.7,0-57.4-25.8-57.4-57.4V47.9c0-7.1,5.7-12.8,12.8-12.8h98c2.2,0,4,1.8,4,4V65
			C313.4,96.7,287.7,122.4,256,122.4z M211.4,43.1c-2.6,0-4.8,2.2-4.8,4.8V65c0,27.2,22.2,49.4,49.4,49.4s49.4-22.2,49.4-49.4V43.1
			H211.4z"/>
	</g>
	<g>
		<path class="st1" d="M301.5,70.8v-4.3c0-24.9-20.4-45.1-45.5-45.1c-25.1,0-45.5,20.2-45.5,45.1v4.3c-7.9-0.2-14.2,6.1-14.2,13.7
			c0,8.1,7.1,14.5,15.4,13.7c4.7,19.9,22.7,34.8,44.3,34.8c21.5,0,39.6-14.9,44.3-34.8c8.3,0.9,15.4-5.5,15.4-13.7
			C315.7,77,309.4,70.7,301.5,70.8L301.5,70.8z"/>
	</g>
	<g>
		<path class="st2" d="M279.7,93.9c-3.2,0-5.7-2.6-5.7-5.7v-6.1c0-3.2,2.6-5.7,5.7-5.7c3.2,0,5.7,2.6,5.7,5.7v6.1
			C285.4,91.4,282.8,93.9,279.7,93.9z"/>
	</g>
	<g>
		<path class="st2" d="M232.4,93.9c-3.2,0-5.7-2.6-5.7-5.7v-6.1c0-3.2,2.6-5.7,5.7-5.7s5.7,2.6,5.7,5.7v6.1
			C238.2,91.4,235.6,93.9,232.4,93.9z"/>
	</g>
	<g>
		<path class="st2" d="M256,137c-22,0-41.1-14.2-47.3-34.8c-3.9-0.3-7.5-1.9-10.4-4.5c-3.7-3.4-5.9-8.2-5.9-13.2
			c0-4.8,1.9-9.3,5.3-12.6c2.5-2.4,5.5-4,8.8-4.7v-0.6c0-27.1,22.2-49.1,49.5-49.1s49.5,22,49.5,49.1v0.6c3.3,0.7,6.4,2.3,8.8,4.7
			c3.4,3.4,5.3,7.9,5.3,12.6c0,5-2.1,9.8-5.9,13.2c-2.9,2.6-6.6,4.2-10.4,4.5C297.1,122.9,278.1,137,256,137z M211.8,94.2
			c1.8,0,3.5,1.3,3.9,3.1C220,116,236.7,129,256,129c19.4,0,36-13,40.4-31.7c0.5-2,2.3-3.3,4.3-3.1c2.9,0.3,5.6-0.6,7.7-2.5
			c2.1-1.9,3.2-4.4,3.2-7.2c0-2.6-1-5.1-2.9-6.9c-1.9-1.9-4.4-2.9-7.2-2.8c-1.1,0-2.1-0.4-2.9-1.1c-0.8-0.8-1.2-1.8-1.2-2.9v-4.3
			c0-22.6-18.6-41.1-41.5-41.1s-41.5,18.4-41.5,41.1v4.3c0,1.1-0.4,2.1-1.2,2.9s-1.8,1.1-2.9,1.1c-2.7-0.1-5.3,0.9-7.2,2.8
			c-1.9,1.8-2.9,4.3-2.9,6.9c0,2.8,1.1,5.3,3.2,7.2c2.1,1.9,4.9,2.8,7.7,2.5C211.5,94.3,211.6,94.2,211.8,94.2L211.8,94.2z"/>
	</g>
	<g>
		<path class="st3" d="M231.7,63.2h62.1c8.7,0,15.7-7,15.7-15.7V33.9C309.4,18.5,297,6,281.6,6h-45.3c-15.4,0-27.9,12.5-27.9,27.9
			v6.1C208.4,52.8,218.8,63.2,231.7,63.2z"/>
	</g>
	<g>
		<path class="st2" d="M293.7,67.2h-62.1c-15,0-27.2-12.2-27.2-27.2v-6.1c0-17.6,14.3-31.9,31.9-31.9h45.3
			c17.6,0,31.9,14.3,31.9,31.9v13.6C313.4,58.3,304.6,67.2,293.7,67.2z M236.3,10c-13.2,0-23.9,10.7-23.9,23.9v6.1
			c0,10.6,8.6,19.2,19.2,19.2h62.1c6.5,0,11.7-5.3,11.7-11.7V33.9c0-13.2-10.7-23.9-23.9-23.9L236.3,10z"/>
	</g>
	<g>
		<path class="st2" d="M256,113.3c-1.9,0-3.6-0.2-5.2-0.7c-2.6-0.8-4.9-2.1-6.6-3.9c-1.2-1.2-1.2-3.1,0-4.2c1.2-1.2,3.1-1.2,4.2,0
			c1,1,2.4,1.8,4.1,2.3c1,0.3,2.1,0.4,3.5,0.4c1.3,0,2.5-0.1,3.5-0.4c1.6-0.5,3.1-1.3,4.1-2.3c1.2-1.2,3.1-1.2,4.2,0
			c1.2,1.2,1.2,3.1,0,4.2c-1.7,1.7-4,3.1-6.6,3.9C259.7,113,258,113.3,256,113.3L256,113.3z"/>
	</g>
	<g>
		<path class="st3" d="M251.8,243.5h-12.6l-11.5,61h24.1V243.5z"/>
	</g>
	<g>
		<path class="st3" d="M260.2,243.5h12.6l11.5,61h-24.1L260.2,243.5z"/>
	</g>
	<g>
		<path class="st2" d="M251.8,308.5h-24.1c-1.2,0-2.3-0.5-3.1-1.4s-1.1-2.1-0.9-3.3l11.5-61c0.4-1.9,2-3.3,3.9-3.3h12.6
			c2.2,0,4,1.8,4,4v61C255.8,306.7,254,308.5,251.8,308.5z M232.5,300.5h15.3v-53h-5.3L232.5,300.5z"/>
	</g>
	<g>
		<path class="st2" d="M284.4,308.5h-24.1c-2.2,0-4-1.8-4-4v-61c0-2.2,1.8-4,4-4h12.6c1.9,0,3.6,1.4,3.9,3.3l11.5,61
			c0.2,1.2-0.1,2.4-0.9,3.3S285.6,308.5,284.4,308.5L284.4,308.5z M264.2,300.5h15.3l-10-53h-5.3V300.5z"/>
	</g>
	<g>
		<path class="st3" d="M209.1,243.5h93.8v15.1h-93.8L209.1,243.5z"/>
	</g>
	<g>
		<path class="st2" d="M302.9,262.6h-93.8c-2.2,0-4-1.8-4-4v-15.1c0-2.2,1.8-4,4-4h93.8c2.2,0,4,1.8,4,4v15.1
			C306.9,260.8,305.1,262.6,302.9,262.6z M213.1,254.6h85.8v-7.1h-85.8V254.6z"/>
	</g>
	<g>
		<path class="st2" d="M225.2,510h-33.8c-5.8,0-10.5-4.7-10.5-10.5c0-5.2,1.3-10.4,3.7-15l5.5-10.6c0.7-1.3,2.1-2.1,3.5-2.1h33.1
			c1.8,0,3.3,1.2,3.8,2.9l3.7,12.4c1.4,4.7,1.4,8.1,1.4,11.4l0,1C235.7,505.3,231,510,225.2,510L225.2,510z M196.1,479.8l-4.4,8.4
			c-1.8,3.5-2.8,7.4-2.8,11.3c0,1.4,1.1,2.5,2.5,2.5h33.8c1.4,0,2.5-1.1,2.5-2.5l0-1.1c0-3.1,0-5.6-1-9.1l-2.9-9.6H196.1z"/>
	</g>
	<g>
		<path class="st2" d="M321,510h-33.8c-5.8,0-10.5-4.7-10.5-10.5l0-1c0-3.3,0-6.8,1.4-11.4l3.7-12.4c0.5-1.7,2.1-2.9,3.8-2.9h33.1
			c1.5,0,2.9,0.8,3.5,2.1l5.5,10.6c2.4,4.6,3.7,9.8,3.7,15C331.5,505.3,326.8,510,321,510z M288.6,479.8l-2.9,9.6
			c-1.1,3.5-1,6-1,9.1l0,1.1c0,1.4,1.1,2.5,2.5,2.5H321c1.4,0,2.5-1.1,2.5-2.5c0-3.9-1-7.8-2.8-11.3l-4.4-8.4H288.6z"/>
	</g>
	<g>
		<path class="st4" d="M118.6,41.6l7.2-7.2c2.3-2.3,1-6.2-2.2-6.8l-40.9-6.7c-2.7-0.4-5,1.9-4.6,4.6l6.7,40.9
			c0.5,3.2,4.5,4.5,6.8,2.2l7.2-7.2l61.6,61.6c1.6,1.6,4.1,1.6,5.7,0l14.1-14.1c1.6-1.6,1.6-4.1,0-5.7L118.6,41.6z"/>
	</g>
	<g>
		<path class="st5" d="M338.2,123c1.6,1.6,4.1,1.6,5.7,0l61.6-61.6l7.2,7.2c2.3,2.3,6.2,1,6.8-2.2l6.7-40.9c0.4-2.7-1.9-5-4.6-4.6
			l-40.9,6.7c-3.2,0.5-4.5,4.5-2.2,6.8l7.2,7.2l-61.6,61.6c-1.6,1.6-1.6,4.1,0,5.7L338.2,123z"/>
	</g>
	<g>
		<path class="st6" d="M419.5,267.4c-0.5-3.2-4.5-4.5-6.8-2.2l-7.2,7.2l-61.6-61.6c-1.6-1.6-4.1-1.6-5.7,0L324.1,225
			c-1.6,1.6-1.6,4.1,0,5.7l61.6,61.6l-7.2,7.2c-2.3,2.3-1,6.2,2.2,6.8l40.9,6.7c2.7,0.4,5-1.9,4.6-4.6L419.5,267.4z"/>
	</g>
	<g>
		<path class="st7" d="M166.1,210.8c-1.6-1.6-4.1-1.6-5.7,0l-61.6,61.6l-7.2-7.2c-2.3-2.3-6.2-1-6.8,2.2l-6.7,40.9
			c-0.4,2.7,1.9,5,4.6,4.6l40.9-6.7c3.2-0.5,4.5-4.5,2.2-6.8l-7.2-7.2l61.6-61.6c1.6-1.6,1.6-4.1,0-5.7L166.1,210.8z"/>
	</g>
</g>
</svg>
