<?xml version="1.0" encoding="utf-8"?>
<!-- Generator: Adobe Illustrator 23.0.1, SVG Export Plug-In . SVG Version: 6.00 Build 0)  -->
<svg version="1.1" id="Capa_1" xmlns="http://www.w3.org/2000/svg" xmlns:xlink="http://www.w3.org/1999/xlink" x="0px" y="0px"
	 viewBox="0 0 496 496" style="enable-background:new 0 0 496 496;" xml:space="preserve">
<style type="text/css">
	.st0{fill:#D654B7;}
	.st1{fill:#FFFFFF;}
</style>
<g>
	<polygon class="st0" points="300.5,235.5 248,288 272,312 288,296 299,285 352,232 322.9,224 	"/>
	<polygon class="st0" points="194.8,234.8 296,336 280,352 264,352 144,232 168,224 	"/>
</g>
<g>
	<rect x="280" y="120" class="st1" width="48" height="16"/>
	<rect x="168" y="120" class="st1" width="48" height="16"/>
	<path class="st1" d="M424,352h-16v-60.1c0-14.5-4.8-29-13.5-40.6c-8.8-11.8-21.5-20.4-35.6-24.5l-22.5-6.4
		c12.1-11.5,21.9-25.4,28.7-40.9l2.8,1.4c17.7,8.8,37.2,13.4,56.9,13.4c8.3,0,16.6-0.8,24.7-2.4l11.1-2.2l-5.8-9.7
		c-13.2-22-30.8-41.2-51.4-56.4c5.2-2.4,10-5.7,14.2-9.8c9.2-9.2,14.3-21.5,14.3-34.6s4.3-26.1,12.2-36.7L464,16h-28.8
		C403,16,373,29.4,351.3,52.8C328,20.9,290.4,0,248,0c-67.9,0-123.4,53.2-127.6,120H120c0,1.4,0.1,2.7,0.2,4c0,1.3-0.2,2.6-0.2,4
		c0,36.3,15.3,69,39.6,92.4l-22.5,6.4c-14.1,4-26.8,12.7-35.6,24.5C92.8,262.9,88,277.4,88,291.9V352H72c-39.7,0-72,32.3-72,72
		s32.3,72,72,72h136h8h40h24h16h128c39.7,0,72-32.3,72-72S463.7,352,424,352z M335.8,236.8l-42.5,42.5l11.3,11.3l48.8-48.8l1,0.3
		c10.8,3.1,20.4,9.7,27.2,18.7c6.7,8.9,10.4,19.9,10.4,31V359c0,8.7-3.5,17.2-9.7,23.3c-6.1,6.1-14.6,9.7-23.3,9.7h-63v-48h48v-56
		h-16v40h-28.7l-16-16l10.3-10.3l-11.3-11.3L272,300.7L259.3,288l45.4-45.4c5.8-2.9,11.4-6.1,16.6-9.8L335.8,236.8z M280,416h-24
		h-40v-8h8c9.6,0,18.1-4.3,24-11.1c5.9,6.7,14.4,11.1,24,11.1h8V416z M216,360h8c8.8,0,16,7.2,16,16s-7.2,16-16,16h-8V360z M272,392
		c-8.8,0-16-7.2-16-16s7.2-16,16-16h8v32H272z M225.2,253.8c7.4,1.3,15,2.2,22.8,2.2s15.4-0.8,22.8-2.2L248,276.7L225.2,253.8z
		 M359.8,124c-2.1,29-26.3,52-55.8,52c-20.3,0-39.1-11.1-49-28.9l-7-12.6l-7,12.6c-9.9,17.8-28.7,28.9-49,28.9
		c-29.5,0-53.7-23-55.8-52c0.3-9.7,1.8-19.1,4.5-28h214.6C358,104.9,359.5,114.3,359.8,124z M434.5,177.9
		c-20.3,1.8-41.1-2.1-59.4-11.3l-4.4-2.2c3.4-11.5,5.4-23.7,5.4-36.4h5.6C402.4,140.8,420.5,157.8,434.5,177.9z M432,32.1l-0.5,0.7
		C421.5,46,416,62.5,416,79c0,8.7-3.5,17.2-9.7,23.3c-6.1,6.1-14.6,9.7-23.3,9.7h-8.1c-2-16.2-7-31.6-14.6-45.3
		C378.4,45.5,404.1,33,432,32.1z M248,16c44.6,0,83,26.2,101,64H147C165,42.2,203.4,16,248,16z M147,176.1c12.3,9.9,28,15.9,45,15.9
		c21.9,0,42.5-10,56-26.8c13.5,16.8,34.1,26.8,56,26.8c17,0,32.6-6,45-15.9c-18,37.7-56.5,63.9-101,63.9S165.1,213.8,147,176.1z
		 M191.7,242.8l-0.1,0.1l88.4,88.4V344h-8c-1.5,0-2.8,0.2-4.3,0.4L160.2,236.8l14.5-4.1C180,236.5,185.8,239.8,191.7,242.8z
		 M104,291.9c0-11.1,3.7-22.1,10.3-31c6.7-9,16.4-15.6,27.2-18.7l1-0.3l109.4,109.4c-1.4,1.2-2.7,2.4-4,3.8c-5.9-6.7-14.4-11-24-11
		h-8v-16h-48v-40h-16v56h48v48h-63c-8.7,0-17.2-3.5-23.3-9.7c-6.1-6.1-9.7-14.6-9.7-23.3v-67.2H104z M72,480c-30.9,0-56-25.1-56-56
		s25.1-56,56-56h16.8c1.8,9.7,6.4,18.6,13.5,25.7c9.2,9.2,21.5,14.3,34.6,14.3h63v72H72z M216,456v-24h8.2
		C219.1,438.7,216,447,216,456s3.1,17.3,8.2,24H216V456z M280,480h-24c-13.2,0-24-10.8-24-24s10.8-24,24-24h24V480z M424,480H296
		v-64v-8h63c13.1,0,25.4-5.1,34.6-14.3c7.1-7.1,11.7-16,13.5-25.7H424c30.9,0,56,25.1,56,56S454.9,480,424,480z"/>
</g>
</svg>
