<?xml version="1.0" encoding="utf-8"?>
<!-- Generator: Adobe Illustrator 23.0.1, SVG Export Plug-In . SVG Version: 6.00 Build 0)  -->
<svg version="1.1" id="Layer_1" xmlns="http://www.w3.org/2000/svg" xmlns:xlink="http://www.w3.org/1999/xlink" x="0px" y="0px"
	 viewBox="0 0 1920 1080" style="enable-background:new 0 0 1920 1080;" xml:space="preserve">
<style type="text/css">
	.st0{opacity:0.8;}
	.st1{fill:#E90D39;}
	.st2{fill:#970524;}
	.st3{fill:#AF052E;}
	.st4{fill:#17A187;}
	.st5{fill:#1E0202;}
	.st6{fill:#E0EBFC;}
	.st7{fill:#F9CFCF;}
	.st8{fill:#3762CC;}
	.st9{fill:#4671C6;}
	.st10{fill:#F24444;}
	.st11{fill:#FDC236;}
	.st12{fill:#37B253;}
	.st13{fill:#5F3A0F;}
	.st14{opacity:0.6;}
	.st15{fill:#79A879;}
	.st16{fill:#E5E5E5;}
	.st17{fill:#5C5E71;}
	.st18{fill:#5D895D;}
</style>
<g>
	<g class="st0">
		<path class="st1" d="M706.3,358.9h90.5v568.7h-90.5V358.9z"/>
		<path class="st1" d="M1132.8,358.9h90.5v568.7h-90.5V358.9z"/>
		<path class="st2" d="M706.3,811.2h90.5v116.3h-90.5V811.2z"/>
		<path class="st2" d="M1132.8,811.2h90.5v116.3h-90.5V811.2z"/>
		<path class="st3" d="M706.3,358.9h90.5v90.5h-90.5V358.9z"/>
		<path class="st3" d="M1130.6,358.9h92.7v90.5h-92.7V358.9z"/>
		<g>
			<path class="st2" d="M1326.7,462.2v90.5H602.9v-90.5H1326.7z"/>
			<path class="st2" d="M628.7,526.8h672.1V488H628.7V526.8z"/>
			<path class="st2" d="M900.1,358.9H602.9V255.5h723.8v103.4h-297.3"/>
			<path class="st1" d="M602.9,255.5L577,152.1c121.5,8.1,251,12.9,387.8,12.9c121.8,0,251.3-3.9,387.8-12.9
				c-4.3,25.9-21.5,77.6-25.9,103.4L602.9,255.5L602.9,255.5z"/>
			<path class="st1" d="M623,229.6h682.8c2.6-10.1,5.6-21.3,8.8-32.8c1.6-5.6,3.1-11.3,4.6-16.8c-117.7,7.2-236.8,10.8-354.5,10.8
				s-236.5-3.6-354.2-10.7L623,229.6z"/>
			<path class="st4" d="M900.1,320h129.3v232.7H900.1V320z"/>
			<g>
				<path class="st5" d="M770.9,190.8H758c-7.1,0-12.9,5.8-12.9,12.9c0,7.1,5.8,12.9,12.9,12.9h12.9c7.1,0,12.9-5.8,12.9-12.9
					S778,190.8,770.9,190.8z"/>
				<path class="st5" d="M706.3,190.8h-12.9c-7.1,0-12.9,5.8-12.9,12.9c0,7.1,5.8,12.9,12.9,12.9h12.9c7.1,0,12.9-5.8,12.9-12.9
					C719.2,196.6,713.4,190.8,706.3,190.8z"/>
				<path class="st5" d="M1236.2,682c0-7.1-5.8-12.9-12.9-12.9s-12.9,5.8-12.9,12.9v116.3h-64.6V371.8h64.6v258.5
					c0,7.1,5.8,12.9,12.9,12.9s12.9-5.8,12.9-12.9v-64.6h90.5c7.1,0,12.9-5.8,12.9-12.9v-90.5c0-7.1-5.8-12.9-12.9-12.9h-90.5v-77.6
					h90.5c7.1,0,12.9-5.8,12.9-12.9V256.6c2.1-12.3,7.4-31.1,12.4-49.5c5.6-20.3,11-39.4,13.2-53c0.7-3.9-0.5-7.9-3.2-10.8
					c-2.6-2.9-6.5-4.5-10.4-4.3c-128.2,8.6-258.4,12.9-386.9,12.9s-258.7-4.3-386.9-12.9c-4.1-0.3-8.1,1.4-10.8,4.6
					c-2.6,3.2-3.6,7.4-2.6,11.4l25.4,101.9v101.8c0,7.1,5.8,12.9,12.9,12.9h90.5v77.6h-90.5c-7.1,0-12.9,5.8-12.9,12.9v90.5
					c0,7.1,5.8,12.9,12.9,12.9h90.5v349h-142v25.9h827.2v-25.9h-142.2L1236.2,682L1236.2,682z M1313.7,475.1v64.6h-77.6v-64.6
					H1313.7z M887.2,371.8v77.6h-77.6v-77.6H887.2z M887.2,539.8h-77.6v-64.6h77.6V539.8z M809.7,565.7h310.2v349H809.7V565.7z
					 M913.1,539.8V333h103.4v206.8H913.1z M1042.3,475.1h77.6v64.6h-77.6V475.1L1042.3,475.1z M1119.9,449.2h-77.6v-77.5h77.6V449.2
					z M615.8,268.4h271.4c7.1,0,12.9-5.8,12.9-12.9c0-7.1-5.8-12.9-12.9-12.9H613l-19.1-76.4C717,174,841.7,178,964.9,178
					c123.4,0,248.3-4,371.5-11.8c-2.6,10.3-5.9,22.4-9.2,34.2c-4.3,15.4-8.4,30.1-11.1,42.2H938.9c-7.1,0-12.9,5.8-12.9,12.9
					c0,7.1,5.8,12.9,12.9,12.9h374.8V346h-271.4v-25.9c0-7.1-5.8-12.9-12.9-12.9H900.1c-7.1,0-12.9,5.8-12.9,12.9V346H615.8V268.4z
					 M783.8,371.8v426.5h-64.6V371.8H783.8z M615.8,539.8v-64.6h77.6v64.6H615.8z M719.2,914.5V824h64.6v90.5H719.2z M1145.7,914.5
					V824h64.6v90.5H1145.7z"/>
				<path class="st5" d="M977.7,410.5h-25.9c-7.1,0-12.9,5.8-12.9,12.9s5.8,12.9,12.9,12.9h25.9c7.1,0,12.9-5.8,12.9-12.9
					S984.8,410.5,977.7,410.5z"/>
			</g>
		</g>
	</g>
	<g>
		<g>
			<path class="st6" d="M852,697.5v30.7c0,1.3,1.1,2.4,2.4,2.4H935c0,1.4,0,30,0,29.3c0,0.8,0.7,1.4,1.4,1.4h56.7
				c0.9,0,1.5-0.7,1.5-1.5v-29.1h80.6c1.3,0,2.4-1.1,2.4-2.4v-30.7L852,697.5L852,697.5z"/>
		</g>
		<g>
			<path class="st7" d="M852,697.5l-14-4.9c-1.2-0.4-2.6,0.2-3,1.4c-0.4,1-0.1,2.1,0.8,2.8l3.9,3h-14.6c-2,0-3.6,1.6-3.6,3.6V715
				c0,1.7,1.2,3.2,2.9,3.5l11.8,2.1c2.2,0.4,4.5,0.1,6.6-0.7l9.2-3.8V697.5L852,697.5z"/>
		</g>
		<g>
			<path class="st7" d="M1077.5,697.5l14-4.9c1.2-0.4,2.6,0.2,3,1.4c0.4,1,0.1,2.1-0.8,2.8l-3.9,3h14.6c2,0,3.6,1.6,3.6,3.6V715
				c0,1.7-1.2,3.2-2.9,3.5l-13.5,2.4c-1.1,0.2-2.2,0.1-3.3-0.4l-10.8-4.4L1077.5,697.5L1077.5,697.5z"/>
		</g>
		<g>
			<path class="st8" d="M993,763.7h-56.7c-2.1,0-3.8-1.7-3.8-3.7c0,0,0,0,0-0.1V733h-78.2c-2.6,0-4.8-2.1-4.8-4.8v-30.7
				c0-1.3,1.1-2.4,2.4-2.4h225.5c1.3,0,2.4,1.1,2.4,2.4v30.7c0,2.6-2.1,4.8-4.8,4.8h-78.2v26.8C996.9,762,995.1,763.7,993,763.7
				L993,763.7z M937.3,759h54.9v-28.3c0-1.3,1.1-2.4,2.4-2.4h80.6V700H854.4v28.3H935c1.3,0,2.4,1.1,2.4,2.4L937.3,759z"/>
		</g>
		<g>
			<path class="st8" d="M838.4,723.2c-0.9,0-1.7-0.1-2.5-0.2l-11.8-2.1c-2.8-0.5-4.9-3-4.9-5.9v-11.6c0-3.3,2.7-5.9,5.9-5.9h8
				c-0.8-1.2-1-2.8-0.4-4.3c0.9-2.5,3.6-3.7,6.1-2.8l14,4.9c0.9,0.4,1.6,1.2,1.6,2.2v18.6c0,0.9-0.6,1.8-1.4,2.2l-9.2,3.8
				C842,722.8,840.2,723.2,838.4,723.2L838.4,723.2z M825.1,702.2c-0.7,0-1.2,0.5-1.2,1.2V715c0,0.6,0.4,1.1,0.9,1.2l11.8,2.1
				c1.8,0.3,3.6,0.1,5.3-0.6l7.7-3.1v-15.4l-12.4-4.3l3.8,3.1c0.8,0.7,1.1,1.7,0.8,2.7c-0.4,0.9-1.2,1.6-2.2,1.6L825.1,702.2
				L825.1,702.2z"/>
		</g>
		<g>
			<path class="st8" d="M1090.5,723.5c-1.1,0-2.1-0.2-3.1-0.6l-10.8-4.3c-0.9-0.4-1.4-1.2-1.4-2.2v-18.6c0-1,0.7-1.9,1.6-2.2l14-4.9
				c2.5-0.9,5.1,0.4,6.1,2.8c0.6,1.4,0.4,3-0.4,4.3h8c3.3,0,5.9,2.7,5.9,5.9v11.6c0,2.9-2,5.4-4.9,5.9l-13.5,2.4
				C1091.5,723.3,1091,723.5,1090.5,723.5z M1079.8,714.7l9.3,3.8c0.7,0.3,1.3,0.3,2,0.2l13.5-2.4c0.6-0.1,0.9-0.6,0.9-1.2v-11.6
				c0-0.7-0.5-1.2-1.2-1.2h-14.6c-1,0-1.9-0.7-2.2-1.6c-0.4-0.9,0-2,0.8-2.7l3.9-3l-12.5,4.3L1079.8,714.7L1079.8,714.7z"/>
		</g>
		<g>
			<path class="st7" d="M927.7,899.2l-3.3,6.2c-1.2,2.4-2,5.1-2,7.8c0,2.1,1.7,3.8,3.8,3.8h20.1c2.1,0,3.8-1.7,3.8-3.8
				c0-2.2,0.1-4-0.7-6.7l-2.2-7.4L927.7,899.2L927.7,899.2z"/>
		</g>
		<g>
			<path class="st7" d="M1001.9,899.2l3.3,6.2c1.2,2.4,2,5.1,2,7.8c0,2.1-1.7,3.8-3.8,3.8h-20.1c-2.1,0-3.8-1.7-3.8-3.8
				c0-2.2-0.1-4,0.7-6.7l2.2-7.4L1001.9,899.2L1001.9,899.2L1001.9,899.2z"/>
		</g>
		<g>
			<path class="st6" d="M935.9,776.5l-16.5,119.9c-0.2,1.4,0.9,2.7,2.3,2.7h30.9c1.2,0,2.2-0.9,2.4-2.2l9.9-99.4l9.9,99.4
				c0.1,1.2,1.2,2.2,2.4,2.2h30.9c1.4,0,2.5-1.3,2.3-2.7l-16.5-119.9H935.9z"/>
		</g>
		<g>
			<path class="st8" d="M1008,901.5h-30.9c-2.5,0-4.5-1.8-4.7-4.3l-7.5-75.7l-7.5,75.7c-0.2,2.5-2.2,4.3-4.7,4.3h-30.9
				c-1.4,0-2.7-0.6-3.6-1.6s-1.3-2.4-1.2-3.8l16.5-119.9c0.1-1.2,1.2-2,2.3-2h58c1.2,0,2.2,0.9,2.3,2l16.5,119.9
				c0.2,1.4-0.2,2.8-1.2,3.8C1010.6,901,1009.4,901.5,1008,901.5L1008,901.5z M964.8,795.2c1.2,0,2.2,0.9,2.4,2.2l9.9,99.4h30.9
				l-16.2-118H938l-16.2,117.9h30.9l9.9-99.4C962.6,796.2,963.6,795.2,964.8,795.2L964.8,795.2z"/>
		</g>
		<g>
			<path class="st6" d="M997.6,790.5c1,0,1.7-0.9,1.4-1.9l-4.2-17.1c-0.1-0.7-0.8-1.2-1.4-1.2h-57.2c-0.7,0-1.3,0.5-1.4,1.2
				l-4.2,17.1c-0.2,0.9,0.5,1.9,1.4,1.9C975.4,790.5,998.3,790.5,997.6,790.5z"/>
		</g>
		<g>
			<path class="st8" d="M931.9,792.8c-1.2,0-2.3-0.6-3-1.5c-0.7-0.9-1-2.2-0.7-3.3l4.2-17.1c0.4-1.7,2-3,3.8-3h57.2
				c1.8,0,3.3,1.2,3.8,3l4.2,17.1c0.3,1.2,0,2.4-0.7,3.3c-0.7,0.9-1.9,1.5-3,1.5l0,0l0,0H931.9z M936.8,772.7l-3.8,15.4h63.5
				l-3.8-15.4H936.8z"/>
		</g>
		<g>
			<path class="st8" d="M938.8,763.7c-0.4,0-0.9-0.1-1.2-0.4c-1.1-0.7-1.4-2.1-0.8-3.3l38.5-63.8c0.7-1.1,2.1-1.5,3.3-0.8
				c1.1,0.7,1.4,2.1,0.8,3.3l-38.5,63.8C940.4,763.3,939.6,763.7,938.8,763.7L938.8,763.7z"/>
		</g>
		<g>
			<path class="st7" d="M952.2,688v9.6l10.8,23.7l14.3-23.7v-4.9V688H952.2z"/>
		</g>
		<g>
			<path class="st8" d="M963,723.7C962.9,723.7,962.9,723.7,963,723.7c-1-0.1-1.8-0.6-2.1-1.4l-10.8-23.7c-0.1-0.3-0.2-0.7-0.2-1
				V688c0-1.3,1.1-2.4,2.4-2.4h25.1c1.3,0,2.4,1.1,2.4,2.4v9.6c0,0.4-0.1,0.9-0.4,1.2l-14.3,23.8C964.6,723.2,963.8,723.7,963,723.7
				L963,723.7z M954.6,697l8.7,19.1l11.6-19.3v-6.5h-20.3V697L954.6,697z"/>
		</g>
		<g>
			<path class="st9" d="M964.8,687c-17.5,0-31.7-14.2-31.7-31.7v-10.1c0-2.9,2.3-5.2,5.2-5.2h58.2v15.4
				C996.4,673,982.3,687,964.8,687z"/>
		</g>
		<g>
			<path class="st8" d="M964.8,689.5c-18.8,0-34.1-15.3-34.1-34.1v-10.1c0-4.2,3.4-7.6,7.6-7.6h58.2c1.3,0,2.4,1.1,2.4,2.4v15.4
				C998.8,674.2,983.5,689.5,964.8,689.5z M938.3,642.5c-1.6,0-2.8,1.3-2.8,2.8v10.1c0,16.2,13.1,29.4,29.4,29.4
				c16.2,0,29.4-13.1,29.4-29.4v-13h-56V642.5z"/>
		</g>
		<g>
			<path class="st7" d="M991.7,658.8v-2.5c0-14.8-12.1-26.7-27-26.7s-27,12-27,26.7v2.5c-4.7-0.1-8.4,3.6-8.4,8.1
				c0,4.8,4.2,8.6,9.1,8.1c2.8,11.8,13.5,20.7,26.3,20.7c12.8,0,23.5-8.8,26.3-20.7c4.9,0.5,9.1-3.3,9.1-8.1
				C1000.1,662.5,996.4,658.8,991.7,658.8L991.7,658.8z"/>
		</g>
		<g>
			<path class="st8" d="M978.8,672.5c-1.9,0-3.4-1.5-3.4-3.4v-3.6c0-1.9,1.5-3.4,3.4-3.4s3.4,1.5,3.4,3.4v3.6
				C982.2,671,980.6,672.5,978.8,672.5z"/>
		</g>
		<g>
			<path class="st8" d="M950.8,672.5c-1.9,0-3.4-1.5-3.4-3.4v-3.6c0-1.9,1.5-3.4,3.4-3.4s3.4,1.5,3.4,3.4v3.6
				C954.2,671,952.7,672.5,950.8,672.5z"/>
		</g>
		<g>
			<path class="st8" d="M964.8,698.2c-13,0-24.3-8.4-28.1-20.7c-2.3-0.2-4.5-1.2-6.2-2.7c-2.2-2-3.5-4.9-3.5-7.8
				c0-2.8,1.1-5.5,3.2-7.5c1.4-1.4,3.3-2.4,5.2-2.8v-0.4c0-16.1,13.2-29.1,29.4-29.1c16.2,0,29.4,13,29.4,29.1v0.4
				c2,0.4,3.8,1.4,5.2,2.8c2,2,3.2,4.6,3.2,7.5c0,3-1.3,5.8-3.5,7.8c-1.7,1.5-3.9,2.5-6.2,2.7C989.1,689.8,977.8,698.2,964.8,698.2z
				 M938.5,672.8c1.1,0,2,0.7,2.3,1.8c2.6,11.1,12.5,18.8,24,18.8s21.4-7.8,24-18.8c0.3-1.2,1.4-2,2.5-1.8c1.7,0.2,3.3-0.4,4.6-1.4
				c1.2-1.1,1.9-2.6,1.9-4.3c0-1.5-0.6-3-1.7-4.1c-1.2-1.1-2.6-1.7-4.3-1.7c-0.7,0-1.2-0.2-1.7-0.7c-0.4-0.4-0.7-1.1-0.7-1.7v-2.5
				c0-13.4-11-24.3-24.6-24.3s-24.6,10.9-24.6,24.3v2.5c0,0.7-0.3,1.2-0.7,1.7s-1.1,0.7-1.7,0.7c-1.6,0-3.1,0.6-4.3,1.7
				c-1.1,1.1-1.7,2.5-1.7,4.1c0,1.7,0.7,3.2,1.9,4.3c1.2,1.2,2.9,1.7,4.6,1.4C938.3,672.8,938.4,672.8,938.5,672.8L938.5,672.8z"/>
		</g>
		<g>
			<path class="st9" d="M950.3,654.3h36.8c5.1,0,9.3-4.2,9.3-9.3v-8c0-9.1-7.4-16.5-16.5-16.5H953c-9.1,0-16.5,7.4-16.5,16.5v3.6
				C936.5,648.2,942.7,654.3,950.3,654.3z"/>
		</g>
		<g>
			<path class="st8" d="M987.2,656.8h-36.8c-8.9,0-16.2-7.2-16.2-16.2V637c0-10.4,8.5-18.9,18.9-18.9H980c10.4,0,18.9,8.5,18.9,18.9
				v8C998.8,651.5,993.6,656.8,987.2,656.8z M953,622.8c-7.8,0-14.1,6.4-14.1,14.1v3.6c0,6.3,5.1,11.4,11.4,11.4h36.8
				c3.8,0,7-3.1,7-7v-8c0-7.8-6.4-14.1-14.1-14.1H953L953,622.8z"/>
		</g>
		<g>
			<path class="st8" d="M964.8,684c-1.2,0-2.2-0.1-3.1-0.4c-1.5-0.4-2.9-1.2-3.9-2.3c-0.7-0.7-0.7-1.8,0-2.5c0.7-0.7,1.8-0.7,2.5,0
				c0.6,0.6,1.4,1.1,2.4,1.4c0.6,0.1,1.2,0.3,2,0.3c0.8,0,1.4-0.1,2-0.3c0.9-0.3,1.8-0.8,2.4-1.4c0.7-0.7,1.8-0.7,2.5,0
				c0.7,0.7,0.7,1.8,0,2.5c-1,1-2.4,1.8-3.9,2.3C966.9,683.8,965.9,684,964.8,684L964.8,684z"/>
		</g>
		<g>
			<path class="st9" d="M962.2,761.3h-7.5l-6.8,36.2h14.3V761.3z"/>
		</g>
		<g>
			<path class="st9" d="M967.2,761.3h7.5l6.8,36.2h-14.3V761.3z"/>
		</g>
		<g>
			<path class="st8" d="M962.2,800h-14.3c-0.7,0-1.4-0.3-1.8-0.9c-0.4-0.6-0.7-1.2-0.5-2l6.8-36.2c0.2-1.1,1.2-2,2.3-2h7.5
				c1.3,0,2.4,1.1,2.4,2.4v36.2C964.6,798.8,963.5,800,962.2,800z M950.8,795.2h9.1v-31.5h-3.2L950.8,795.2z"/>
		</g>
		<g>
			<path class="st8" d="M981.6,800h-14.3c-1.3,0-2.4-1.1-2.4-2.4v-36.2c0-1.3,1.1-2.4,2.4-2.4h7.5c1.2,0,2.1,0.8,2.3,2l6.8,36.2
				c0.1,0.7-0.1,1.4-0.5,2C983,799.7,982.3,800,981.6,800L981.6,800z M969.6,795.2h9.1l-5.9-31.5h-3.2V795.2L969.6,795.2z"/>
		</g>
		<g>
			<path class="st9" d="M936.9,761.3h55.7v9h-55.7V761.3z"/>
		</g>
		<g>
			<path class="st8" d="M992.6,772.7h-55.7c-1.3,0-2.4-1.1-2.4-2.4v-9c0-1.3,1.1-2.4,2.4-2.4h55.7c1.3,0,2.4,1.1,2.4,2.4v9
				C995,771.5,993.9,772.7,992.6,772.7z M939.3,767.8h50.9v-4.2h-50.9V767.8z"/>
		</g>
		<g>
			<path class="st8" d="M946.5,919.5h-20.1c-3.4,0-6.2-2.8-6.2-6.2c0-3.1,0.8-6.2,2.2-8.9l3.3-6.2c0.4-0.8,1.2-1.3,2.1-1.3h19.6
				c1,0,2,0.7,2.2,1.7l2.2,7.4c0.8,2.8,0.8,4.8,0.8,6.7v0.7C952.7,916.8,949.9,919.5,946.5,919.5L946.5,919.5z M929.2,901.5l-2.6,5
				c-1.1,2-1.7,4.4-1.7,6.7c0,0.8,0.7,1.4,1.4,1.4h20.1c0.8,0,1.4-0.7,1.4-1.4v-0.7c0-1.8,0-3.3-0.6-5.4l-1.7-5.7L929.2,901.5
				L929.2,901.5z"/>
		</g>
		<g>
			<path class="st8" d="M1003.3,919.5h-20.1c-3.4,0-6.2-2.8-6.2-6.2v-0.7c0-2,0-4,0.8-6.7l2.2-7.4c0.3-1,1.2-1.7,2.2-1.7h19.6
				c0.9,0,1.7,0.5,2.1,1.3l3.3,6.2c1.4,2.8,2.2,5.8,2.2,8.9C1009.6,916.8,1006.7,919.5,1003.3,919.5z M984.1,901.5l-1.7,5.7
				c-0.7,2.1-0.7,3.6-0.6,5.4v0.7c0,0.8,0.7,1.4,1.4,1.4h20.1c0.8,0,1.4-0.7,1.4-1.4c0-2.3-0.6-4.6-1.7-6.7l-2.6-5L984.1,901.5
				L984.1,901.5z"/>
		</g>
		<g>
			<path class="st10" d="M883.2,641.5l4.3-4.3c1.4-1.4,0.6-3.7-1.3-4l-24.3-4c-1.6-0.3-3,1.2-2.8,2.8l4,24.3c0.3,1.9,2.7,2.7,4,1.3
				l4.3-4.3l36.6,36.6c0.9,0.9,2.5,0.9,3.3,0l8.4-8.4c0.9-0.9,0.9-2.5,0-3.3L883.2,641.5z"/>
		</g>
		<g>
			<path class="st11" d="M1013.5,689.8c0.9,0.9,2.5,0.9,3.3,0l36.6-36.6l4.3,4.3c1.4,1.4,3.7,0.6,4-1.3l4-24.3
				c0.3-1.6-1.2-3-2.8-2.8l-24.3,4c-1.9,0.3-2.7,2.7-1.3,4l4.3,4.3l-36.5,36.6c-0.9,0.9-0.9,2.5,0,3.3L1013.5,689.8z"/>
		</g>
		<g>
			<path class="st12" d="M1061.8,775.5c-0.3-1.9-2.7-2.7-4-1.3l-4.3,4.3l-36.6-36.6c-0.9-0.9-2.5-0.9-3.3,0l-8.4,8.4
				c-0.9,0.9-0.9,2.5,0,3.3l36.6,36.6l-4.3,4.3c-1.4,1.4-0.6,3.7,1.3,4l24.3,4c1.6,0.3,3-1.2,2.8-2.8L1061.8,775.5z"/>
		</g>
		<g>
			<path class="st13" d="M911.4,742c-0.9-0.9-2.5-0.9-3.3,0l-36.6,36.6l-4.3-4.3c-1.4-1.4-3.7-0.6-4,1.3l-4,24.3
				c-0.3,1.6,1.2,3,2.8,2.8l24.3-4c1.9-0.3,2.7-2.7,1.3-4l-4.3-4.3l36.6-36.6c0.9-0.9,0.9-2.5,0-3.3L911.4,742z"/>
		</g>
	</g>
	<g class="st14">
		<path class="st15" d="M1205.6,92.2c-3.2,11.9-1.4,24,4.1,34.1c9.8-5.9,17.4-15.5,20.6-27.4s1.4-24-4.1-34.1
			C1216.4,70.8,1208.8,80.3,1205.6,92.2z"/>
		<path class="st16" d="M1209.6,126.3c-12.3,27.6-44.6,40-72.1,27.7c-27.6-12.3-40-44.6-27.7-72.1c12.3-27.6,44.6-40,72.1-27.7
			C1209.5,66.5,1221.9,98.8,1209.6,126.3z"/>
		<path class="st17" d="M1179.3,155.1c-13,5-28,5-41.8-1.1c-27.6-12.3-40-44.6-27.7-72.1c6.1-13.8,17.3-23.8,30.3-28.8
			c-14.1,5.4-21.1,21.2-15.7,35.3s21.2,21.1,35.3,15.7c14.1-5.4,29.9,1.6,35.3,15.7S1193.4,149.7,1179.3,155.1z"/>
		<path class="st17" d="M1157.3,75.8c-1.5-4-6.1-6.1-10.1-4.5c-4,1.5-6.1,6.1-4.5,10.1c1.5,4,6.1,6.1,10.1,4.5
			C1156.8,84.4,1158.8,79.8,1157.3,75.8z"/>
		<path class="st16" d="M1176.8,126.8c-1.5-4-6.1-6.1-10.1-4.5c-4,1.5-6.1,6.1-4.5,10.1c1.5,4,6.1,6.1,10.1,4.5
			C1176.4,135.4,1178.4,130.8,1176.8,126.8z"/>
		<path class="st18" d="M1107,138.3c8.1,9.3,19.1,14.6,30.5,15.7c0.6-11.4-3.1-23.1-11.2-32.4s-19.1-14.6-30.5-15.7
			C1095.2,117.4,1098.9,129,1107,138.3z"/>
		<path class="st15" d="M1103.4,150.2c10.9,5.9,23.1,6.9,34.1,3.8c-3.5-10.9-11.1-20.5-22-26.3c-10.9-5.9-23.1-6.9-34.1-3.8
			C1085,134.7,1092.5,144.3,1103.4,150.2z"/>
	</g>
	<g class="st14">
		<path class="st15" d="M1367.4,229c-7.8,9.6-11.1,21.4-10.2,32.8c11.4-1.4,22.2-7.1,30-16.6c7.8-9.6,11.1-21.4,10.2-32.8
			C1386,213.8,1375.2,219.4,1367.4,229z"/>
		<path class="st16" d="M1357.2,261.8c-22.4,20.2-57,18.4-77.2-4s-18.4-57,4-77.2s57-18.4,77.2,4S1379.7,241.6,1357.2,261.8z"/>
		<path class="st17" d="M1317.8,275.6c-14-0.7-27.6-6.8-37.7-18c-20.2-22.4-18.4-57,4-77.2c11.2-10.1,25.5-14.7,39.4-14
			c-15.1-0.8-27.9,10.8-28.7,25.8c-0.8,15.1,10.8,27.9,25.8,28.7c15.1,0.8,26.6,13.6,25.8,28.7
			C1345.7,265,1332.9,276.5,1317.8,275.6z"/>
		<path class="st17" d="M1329.9,194.3c0.2-4.3-3.1-8-7.4-8.2s-8,3.1-8.2,7.4c-0.2,4.3,3.1,8,7.4,8.2
			C1326,202,1329.7,198.6,1329.9,194.3z"/>
		<path class="st16" d="M1327.1,248.9c0.2-4.3-3.1-8-7.4-8.2s-8,3.1-8.2,7.4c-0.2,4.3,3.1,8,7.4,8.2
			C1323.2,256.5,1326.9,253.2,1327.1,248.9z"/>
		<path class="st18" d="M1258.6,231c3.6,11.8,11.5,21.1,21.5,26.7c5.2-10.2,6.5-22.4,2.9-34.2s-11.5-21.1-21.5-26.7
			C1256.3,207.1,1255,219.2,1258.6,231z"/>
		<path class="st15" d="M1250.5,240.4c7.6,9.8,18.3,15.7,29.6,17.4c1.2-11.4-1.8-23.2-9.4-33s-18.3-15.7-29.6-17.4
			C1239.9,218.8,1242.9,230.6,1250.5,240.4z"/>
	</g>
	<g class="st14">
		<path class="st15" d="M1459.6,419.8c-11,5.6-18.8,15-22.6,25.8c11,3.3,23.2,2.6,34.2-3s18.8-15,22.6-25.8
			C1482.8,413.4,1470.6,414.1,1459.6,419.8z"/>
		<path class="st16" d="M1437,445.5c-28.7,9.3-59.5-6.4-68.8-35.1s6.4-59.5,35.1-68.8s59.5,6.4,68.8,35.1
			C1481.4,405.4,1465.7,436.2,1437,445.5z"/>
		<path class="st17" d="M1395.3,442.2c-12.5-6.3-22.5-17.4-27.2-31.8c-9.3-28.7,6.4-59.5,35.1-68.8c14.3-4.7,29.2-3.1,41.7,3.3
			c-13.4-6.8-29.9-1.5-36.7,11.9s-1.5,29.9,11.9,36.7c13.4,6.8,18.8,23.3,11.9,36.7S1408.7,449.1,1395.3,442.2z"/>
		<path class="st17" d="M1439.5,372.8c2-3.9,0.4-8.6-3.4-10.5s-8.6-0.4-10.5,3.4c-2,3.9-0.4,8.6,3.4,10.5
			C1432.8,378.1,1437.5,376.6,1439.5,372.8z"/>
		<path class="st16" d="M1414.7,421.5c2-3.9,0.4-8.6-3.4-10.5c-3.9-2-8.6-0.4-10.5,3.4c-2,3.9-0.4,8.6,3.4,10.5
			C1408,426.9,1412.7,425.4,1414.7,421.5z"/>
		<path class="st18" d="M1359.3,377.2c-1.5,12.3,1.9,24,8.8,33.2c8.9-7.2,15.1-17.8,16.6-30c1.5-12.3-1.9-24-8.8-33.2
			C1367.1,354.5,1360.9,365,1359.3,377.2z"/>
		<path class="st15" d="M1348.2,382.5c2.9,12,10.3,21.8,20,27.9c5.7-9.9,7.8-22,4.9-34s-10.3-21.8-20-27.9
			C1347.3,358.5,1345.2,370.5,1348.2,382.5z"/>
	</g>
	<g class="st14">
		<path class="st15" d="M1466.2,631.5c-12.3,0.6-23.3,6.1-31.1,14.4c8.7,7.5,20.1,11.8,32.4,11.2s23.3-6.1,31.1-14.4
			C1490,635.2,1478.6,630.8,1466.2,631.5z"/>
		<path class="st16" d="M1435.1,645.8c-30-3.2-51.8-30-48.6-60c3.2-30,30-51.8,60-48.6s51.8,30,48.6,60
			C1492,627.2,1465.1,649,1435.1,645.8z"/>
		<path class="st17" d="M1398.3,626c-8.8-10.9-13.5-25.1-11.9-40.1c3.2-30,30-51.8,60-48.6c15,1.6,27.9,9.1,36.7,19.9
			c-9.5-11.7-26.7-13.5-38.4-4c-11.7,9.5-13.5,26.7-4,38.4s7.7,28.9-4,38.4C1425,639.5,1407.8,637.7,1398.3,626z"/>
		<path class="st17" d="M1466.9,580.5c3.4-2.7,3.9-7.7,1.2-11c-2.7-3.4-7.7-3.9-11-1.2c-3.4,2.7-3.9,7.7-1.2,11
			C1458.6,582.7,1463.6,583.2,1466.9,580.5z"/>
		<path class="st16" d="M1424.5,614.8c3.4-2.7,3.9-7.7,1.2-11s-7.7-3.9-11-1.2c-3.4,2.7-3.9,7.7-1.2,11
			C1416.2,617,1421.1,617.5,1424.5,614.8z"/>
		<path class="st18" d="M1391.9,552c-6.4,10.6-8,22.7-5.5,33.9c11.1-3,21-10.1,27.4-20.7c6.4-10.6,8-22.7,5.5-33.9
			C1408.2,534.2,1398.3,541.3,1391.9,552z"/>
		<path class="st15" d="M1379.5,552.2c-2.2,12.2,0.6,24.1,6.9,33.6c9.3-6.7,16.1-16.9,18.3-29c2.2-12.2-0.6-24.1-6.9-33.6
			C1388.5,529.8,1381.8,540,1379.5,552.2z"/>
	</g>
	<g class="st14">
		<path class="st15" d="M1386.1,827.7c-11.5-4.4-23.7-3.9-34.3,0.5c4.9,10.4,13.6,18.9,25.1,23.4c11.5,4.4,23.7,3.9,34.3-0.5
			C1406.4,840.7,1397.7,832,1386.1,827.7z"/>
		<path class="st16" d="M1351.8,828.2c-26.1-15.1-35.1-48.5-20-74.6s48.5-35.1,74.6-20s35.1,48.5,20,74.6S1378,843.2,1351.8,828.2z"
			/>
		<path class="st17" d="M1326.4,795c-3.6-13.5-2.1-28.4,5.5-41.5c15.1-26.1,48.5-35.1,74.6-20c13.1,7.5,21.8,19.7,25.5,33.2
			c-3.9-14.6-18.9-23.2-33.5-19.3s-23.2,18.9-19.3,33.5c3.9,14.6-4.7,29.6-19.3,33.5C1345.3,818.2,1330.3,809.5,1326.4,795z"/>
		<path class="st17" d="M1407.6,781.2c4.2-1.1,6.7-5.4,5.5-9.6c-1.1-4.2-5.4-6.7-9.6-5.5c-4.2,1.1-6.7,5.4-5.5,9.6
			C1399.1,780,1403.4,782.5,1407.6,781.2z"/>
		<path class="st16" d="M1354.8,795.5c4.2-1.1,6.7-5.4,5.5-9.6c-1.1-4.2-5.4-6.7-9.6-5.5c-4.2,1.1-6.7,5.4-5.5,9.6
			C1346.3,794,1350.6,796.5,1354.8,795.5z"/>
		<path class="st18" d="M1350.6,724.8c-10.1,7.1-16.5,17.5-18.8,28.7c11.3,1.8,23.3-0.7,33.4-7.8s16.5-17.5,18.8-28.7
			C1372.7,715.2,1360.7,717.7,1350.6,724.8z"/>
		<path class="st15" d="M1339.2,720c-7,10.2-9.3,22.2-7.4,33.5c11.2-2.4,21.5-8.9,28.5-19.1c7-10.2,9.3-22.2,7.4-33.5
			C1356.5,703.2,1346.2,709.8,1339.2,720z"/>
	</g>
	<g class="st14">
		<path class="st15" d="M1233.2,974.2c-8.7-8.8-20.1-13.2-31.5-13.5c0.2,11.5,4.7,22.8,13.4,31.6c8.7,8.8,20.1,13.2,31.5,13.5
			C1246.4,994.3,1241.9,983,1233.2,974.2z"/>
		<path class="st16" d="M1201.7,960.8c-17.7-24.4-12.3-58.6,12.1-76.3s58.6-12.3,76.3,12.1c17.7,24.4,12.3,58.6-12.1,76.3
			S1219.4,985.2,1201.7,960.8z"/>
		<path class="st17" d="M1191.9,920c2.2-13.8,9.6-26.8,21.8-35.6c24.4-17.7,58.6-12.3,76.3,12.1c8.9,12.2,11.9,26.9,9.8,40.7
			c2.4-14.9-7.8-28.9-22.7-31.3c-14.9-2.4-28.9,7.8-31.3,22.7s-16.4,25.1-31.3,22.7C1199.7,949,1189.6,935,1191.9,920z"/>
		<path class="st17" d="M1271.6,940.7c4.3,0.7,8.3-2.2,9-6.5s-2.2-8.3-6.5-9s-8.3,2.2-9,6.5S1267.4,940,1271.6,940.7z"/>
		<path class="st16" d="M1217.7,932c4.3,0.7,8.3-2.2,9-6.5s-2.2-8.3-6.5-9s-8.3,2.2-9,6.5C1210.5,927.5,1213.4,931.5,1217.7,932z"/>
		<path class="st18" d="M1242.6,865.8c-12.1,2.4-22.2,9.3-28.8,18.6c9.6,6.2,21.6,8.9,33.7,6.5s22.2-9.3,28.8-18.6
			C1266.7,866.2,1254.7,863.5,1242.6,865.8z"/>
		<path class="st15" d="M1234.1,856.8c-10.5,6.5-17.5,16.5-20.4,27.6c11.2,2.4,23.3,0.6,33.8-5.9s17.5-16.5,20.4-27.6
			C1256.7,848.5,1244.6,850.3,1234.1,856.8z"/>
	</g>
	<g class="st14">
		<path class="st15" d="M1033.9,1046.1c-4.4-11.5-13-20.3-23.3-25.2c-4.4,10.6-5,22.8-0.6,34.3s13,20.3,23.3,25.2
			C1037.7,1069.8,1038.3,1057.6,1033.9,1046.1z"/>
		<path class="st16" d="M1010.6,1020.8c-6.3-29.5,12.6-58.5,42.1-64.8s58.5,12.6,64.8,42.1c6.3,29.5-12.6,58.5-42.1,64.8
			C1045.8,1069.2,1016.8,1050.3,1010.6,1020.8z"/>
		<path class="st17" d="M1018.2,979.8c7.6-11.7,19.7-20.5,34.5-23.7c29.5-6.3,58.5,12.6,64.8,42.1c3.1,14.7,0,29.4-7.6,41.1
			c8.2-12.7,4.6-29.6-8-37.8c-12.7-8.2-29.6-4.6-37.8,8c-8.2,12.7-25.1,16.2-37.8,8C1013.6,1009.2,1010,992.3,1018.2,979.8z"/>
		<path class="st17" d="M1082.6,1030.9c3.6,2.4,8.5,1.3,10.8-2.3s1.3-8.5-2.3-10.9c-3.6-2.4-8.5-1.3-10.8,2.3
			C1078,1023.8,1079,1028.6,1082.6,1030.9z"/>
		<path class="st16" d="M1036.8,1001.2c3.6,2.4,8.5,1.3,10.8-2.3c2.3-3.6,1.3-8.5-2.3-10.8c-3.6-2.4-8.5-1.3-10.8,2.3
			S1033.2,998.8,1036.8,1001.2z"/>
		<path class="st18" d="M1086.6,950.8c-12-2.8-24.1-0.6-33.9,5.3c6.3,9.6,16.1,16.9,28.1,19.6c12,2.8,24.1,0.6,33.9-5.3
			C1108.4,960.8,1098.6,953.5,1086.6,950.8z"/>
		<path class="st15" d="M1082.5,939c-12.2,1.7-22.7,8-29.8,17c9.3,6.7,21,10.1,33.3,8.4c12.2-1.7,22.7-8,29.8-17
			C1106.5,940.8,1094.7,937.5,1082.5,939z"/>
	</g>
	<g class="st14">
		<path class="st15" d="M822.6,1030.4c0.7-12.3-3.6-23.8-11.1-32.5c-8.4,7.8-13.8,18.8-14.5,31.1c-0.7,12.3,3.6,23.8,11.1,32.5
			C816.4,1053.8,821.9,1042.8,822.6,1030.4z"/>
		<path class="st16" d="M811.5,998c6.3-29.5,35.3-48.3,64.8-42.1c29.5,6.3,48.3,35.3,42.1,64.8c-6.3,29.5-35.3,48.3-64.8,42.1
			C824.1,1056.6,805.2,1027.6,811.5,998z"/>
		<path class="st17" d="M835.2,963.5c11.7-7.6,26.3-10.8,41.1-7.6c29.5,6.3,48.3,35.3,42.1,64.8c-3.1,14.7-12,26.8-23.7,34.5
			c12.7-8.2,16.2-25.1,8-37.8c-8.2-12.7-25.1-16.2-37.8-8c-12.7,8.2-29.6,4.6-37.8-8C819,988.7,822.5,971.8,835.2,963.5z"/>
		<path class="st17" d="M873.3,1036.6c2.4,3.6,7.2,4.7,10.8,2.3c3.6-2.4,4.7-7.2,2.3-10.9c-2.4-3.6-7.2-4.7-10.8-2.3
			C871.9,1028.1,870.9,1032.9,873.3,1036.6z"/>
		<path class="st16" d="M843.5,990.8c2.4,3.6,7.2,4.7,10.8,2.3s4.7-7.2,2.3-10.8s-7.2-4.7-10.8-2.3
			C842.2,982.2,841.2,987,843.5,990.8z"/>
		<path class="st18" d="M909.4,964.8c-9.9-7.4-21.7-10.3-33.1-9c1.8,11.3,7.9,22,17.7,29.4c9.9,7.4,21.7,10.3,33.1,9
			C925.3,983,919.3,972.3,909.4,964.8z"/>
		<path class="st15" d="M910.5,952.5c-11.9-3.5-24-1.9-34.2,3.4c5.7,9.9,15.1,17.7,27,21.2s24,1.9,34.2-3.4
			C931.7,963.8,922.3,956,910.5,952.5z"/>
	</g>
	<g class="st14">
		<path class="st15" d="M635.9,930.3c5.6-11,6.4-23.2,3.1-34.2c-10.8,3.8-20.3,11.5-25.9,22.5s-6.4,23.2-3.1,34.2
			C620.8,949.2,630.2,941.3,635.9,930.3z"/>
		<path class="st16" d="M639,896.2c17.7-24.4,51.9-29.8,76.3-12.1c24.4,17.7,29.8,51.9,12.1,76.3c-17.7,24.4-51.9,29.8-76.3,12.1
			S621.2,920.5,639,896.2z"/>
		<path class="st17" d="M674.6,874.3c13.8-2.2,28.4,0.9,40.7,9.8c24.4,17.7,29.8,51.9,12.1,76.3c-8.9,12.2-21.8,19.7-35.6,21.8
			c14.9-2.4,25.1-16.4,22.7-31.3c-2.4-14.9-16.4-25.1-31.3-22.7c-14.9,2.4-28.9-7.8-31.3-22.7C649.6,890.7,659.7,876.7,674.6,874.3z
			"/>
		<path class="st17" d="M679.7,956.5c0.7,4.3,4.7,7.2,9,6.5c4.3-0.7,7.2-4.7,6.5-9c-0.7-4.3-4.7-7.2-9-6.5
			C681.9,948.2,679,952.2,679.7,956.5z"/>
		<path class="st16" d="M671.2,902.5c0.7,4.3,4.7,7.2,9,6.5c4.3-0.7,7.2-4.7,6.5-9c-0.7-4.3-4.7-7.2-9-6.5
			C673.4,894.2,670.5,898.2,671.2,902.5z"/>
		<path class="st18" d="M741.9,905.8c-6-10.8-15.7-18.3-26.6-21.7c-2.9,11.1-1.8,23.2,4.2,34.1c6,10.8,15.7,18.3,26.6,21.7
			C749.1,928.8,747.9,916.5,741.9,905.8z"/>
		<path class="st15" d="M747.8,895c-9.4-8-21.1-11.5-32.6-10.8c1.2,11.4,6.6,22.3,16,30.3s21.1,11.5,32.6,10.8
			C762.7,913.8,757.3,903,747.8,895z"/>
	</g>
	<g class="st14">
		<path class="st15" d="M506,763c9.6-7.8,15.3-18.6,16.7-29.9c-11.4-1-23.2,2.3-32.8,10c-9.6,7.8-15.3,18.6-16.7,29.9
			C484.6,774,496.4,770.7,506,763z"/>
		<path class="st16" d="M522.8,733c26.1-15.1,59.5-6.1,74.6,20s6.1,59.5-20,74.6s-59.5,6.1-74.6-20C487.7,781.5,496.6,748,522.8,733
			z"/>
		<path class="st17" d="M564.2,727.5c13.5,3.6,25.6,12.4,33.2,25.5c15.1,26.1,6.1,59.5-20,74.6c-13.1,7.5-28,9.1-41.5,5.5
			c14.6,3.9,29.6-4.7,33.5-19.3s-4.7-29.6-19.3-33.5s-23.2-18.9-19.3-33.5C534.7,732.2,549.6,723.7,564.2,727.5z"/>
		<path class="st17" d="M535.4,804.7c-1.1,4.2,1.4,8.5,5.5,9.6c4.2,1.1,8.5-1.4,9.6-5.5c1.1-4.2-1.4-8.5-5.5-9.6
			C540.9,798,536.6,800.5,535.4,804.7z"/>
		<path class="st16" d="M549.6,751.8c-1.1,4.2,1.4,8.5,5.5,9.6s8.5-1.4,9.6-5.5c1.1-4.2-1.4-8.5-5.5-9.6
			C555,745.2,550.7,747.7,549.6,751.8z"/>
		<path class="st18" d="M612.9,783.5c-1.1-12.3-6.9-23.1-15.5-30.6c-7.2,8.9-11.1,20.5-10,32.8s6.9,23.1,15.5,30.6
			C610.1,807.5,614,795.8,612.9,783.5z"/>
		<path class="st15" d="M622.7,776.2c-5.4-11.1-14.6-19.1-25.3-23.1c-3.5,10.9-3.1,23.1,2.3,34.2c5.4,11.1,14.6,19.1,25.3,23.1
			C628.6,799.5,628.1,787.2,622.7,776.2z"/>
	</g>
	<g class="st14">
		<path class="st15" d="M455.5,557.2c11.9-3.2,21.5-10.8,27.5-20.5c-10-5.5-22.1-7.3-34.1-4.2c-11.9,3.2-21.5,10.8-27.5,20.5
			C431.5,558.5,443.6,560.3,455.5,557.2z"/>
		<path class="st16" d="M483,536.7c30-3.2,56.9,18.6,60,48.6c3.1,30-18.6,56.9-48.6,60c-30,3.2-56.9-18.6-60-48.6
			C431.2,566.7,453,539.8,483,536.7z"/>
		<path class="st17" d="M523.1,548.5c10.9,8.8,18.4,21.7,19.9,36.7c3.2,30-18.6,56.9-48.6,60c-15,1.6-29.2-3.1-40.1-11.9
			c11.7,9.5,28.9,7.7,38.4-4s7.7-28.9-4-38.4s-13.5-26.7-4-38.4C494.1,540.8,511.3,539,523.1,548.5z"/>
		<path class="st17" d="M465.4,607.2c-2.7,3.4-2.2,8.3,1.2,11c3.4,2.7,8.3,2.2,11-1.2s2.2-8.3-1.2-11
			C473.1,603.3,468.1,603.8,465.4,607.2z"/>
		<path class="st16" d="M499.8,564.8c-2.7,3.4-2.2,8.3,1.2,11c3.4,2.7,8.3,2.2,11-1.2c2.7-3.4,2.2-8.3-1.2-11
			C507.4,561,502.5,561.5,499.8,564.8z"/>
		<path class="st18" d="M544.7,619.5c4-11.7,3.1-23.9-1.7-34.3c-10.2,5.2-18.5,14.3-22.5,25.9c-4,11.7-3.1,23.9,1.7,34.3
			C532.4,640.2,540.7,631.2,544.7,619.5z"/>
		<path class="st15" d="M556.8,616.7c-0.4-12.3-5.6-23.4-13.7-31.4c-7.7,8.5-12.2,19.9-11.8,32.2c0.4,12.3,5.6,23.4,13.7,31.4
			C552.6,640.3,557.1,629,556.8,616.7z"/>
	</g>
	<g class="st14">
		<path class="st15" d="M493,348.6c12.2,1.9,24-1.1,33.5-7.6c-6.9-9.1-17.2-15.7-29.4-17.7c-12.2-1.9-24,1.1-33.5,7.6
			C470.5,340.1,480.8,346.8,493,348.6z"/>
		<path class="st16" d="M526.5,341c28.7,9.3,44.4,40.1,35.1,68.8c-9.3,28.7-40.1,44.4-68.8,35.1c-28.7-9.3-44.4-40.1-35.1-68.8
			C467,347.5,497.8,331.8,526.5,341z"/>
		<path class="st17" d="M558.3,368.2c6.3,12.5,7.9,27.3,3.3,41.7c-9.3,28.7-40.1,44.4-68.8,35.1c-14.3-4.7-25.4-14.7-31.8-27.2
			c6.8,13.4,23.3,18.8,36.7,11.9s18.8-23.3,11.9-36.7c-6.9-13.4-1.5-29.9,11.9-36.7C535,349.5,551.4,354.8,558.3,368.2z"/>
		<path class="st17" d="M481.7,398.5c-3.9,2-5.4,6.7-3.4,10.5s6.7,5.4,10.5,3.4c3.9-2,5.4-6.7,3.4-10.5
			C490.3,398,485.6,396.5,481.7,398.5z"/>
		<path class="st16" d="M530.4,373.6c-3.9,2-5.4,6.7-3.4,10.5c2,3.9,6.7,5.4,10.5,3.4c3.9-2,5.4-6.7,3.4-10.5
			C539,373.1,534.3,371.6,530.4,373.6z"/>
		<path class="st18" d="M549.2,442c8.4-9,12.5-20.5,12.4-32c-11.4,0.6-22.7,5.5-31.1,14.5s-12.5,20.5-12.4,32
			C529.6,455.9,540.8,451,549.2,442z"/>
		<path class="st15" d="M561.3,444.2c4.7-11.4,4.4-23.7,0.2-34.3c-10.5,4.7-19.2,13.2-23.9,24.6s-4.4,23.7-0.2,34.3
			C547.9,464.1,556.7,455.6,561.3,444.2z"/>
	</g>
	<g class="st14">
		<path class="st15" d="M612.1,173.5c10.4,6.7,22.4,8.8,33.7,6.7c-2.6-11.2-9.3-21.3-19.7-28.1c-10.4-6.7-22.4-8.8-33.7-6.7
			C595.1,156.5,601.8,166.7,612.1,173.5z"/>
		<path class="st16" d="M645.8,180.1c22.4,20.2,24.2,54.7,4,77.2c-20.2,22.4-54.7,24.2-77.2,4c-22.4-20.2-24.2-54.7-4-77.2
			C588.8,161.6,623.4,160,645.8,180.1z"/>
		<path class="st17" d="M663.8,217.9c0.7,14-3.9,28.2-14,39.4c-20.2,22.4-54.7,24.2-77.2,4c-11.2-10.1-17.3-23.8-18-37.7
			c0.8,15.1,13.6,26.6,28.7,25.8c15.1-0.8,26.6-13.6,25.8-28.7c-0.8-15.1,10.8-27.9,25.8-28.7C650.2,191.2,663,202.8,663.8,217.9z"
			/>
		<path class="st17" d="M581.6,214.4c-4.3,0.2-7.6,3.9-7.4,8.2s3.9,7.6,8.2,7.4c4.3-0.2,7.6-3.9,7.4-8.2
			C589.6,217.4,585.9,214.1,581.6,214.4z"/>
		<path class="st16" d="M636.1,211.5c-4.3,0.2-7.6,3.9-7.4,8.2c0.2,4.3,3.9,7.6,8.2,7.4c4.3-0.2,7.6-3.9,7.4-8.2
			C644.1,214.6,640.4,211.3,636.1,211.5z"/>
		<path class="st18" d="M625.5,281.5c11.4-4.8,19.8-13.7,24.3-24.2c-10.7-4.1-22.9-4.2-34.3,0.6s-19.8,13.7-24.3,24.2
			C601.9,286.1,614.1,286.2,625.5,281.5z"/>
		<path class="st15" d="M635.7,288.5c8.9-8.5,13.7-19.8,14.2-31.3c-11.5,0-22.9,4.2-31.8,12.8c-8.9,8.5-13.7,19.8-14.2,31.3
			C615.3,301.2,626.7,297,635.7,288.5z"/>
	</g>
	<g class="st14">
		<path class="st15" d="M792.2,61.9c6.7,10.4,16.9,17.1,28,19.8c2.2-11.3,0.2-23.3-6.6-33.7c-6.7-10.4-16.9-17.1-28-19.8
			C783.5,39.4,785.5,51.5,792.2,61.9z"/>
		<path class="st16" d="M820.3,81.6c12.3,27.6-0.1,59.9-27.7,72.1c-27.6,12.3-59.9-0.1-72.1-27.7s0.1-59.9,27.7-72.1
			C775.8,41.7,808,54.1,820.3,81.6z"/>
		<path class="st17" d="M821.4,123.4c-5,13-15,24.2-28.8,30.3c-27.6,12.3-59.9-0.1-72.1-27.7c-6.1-13.8-6.1-28.7-1.1-41.8
			c-5.4,14.1,1.6,29.9,15.7,35.3c14.1,5.4,29.9-1.6,35.3-15.7c5.4-14.1,21.2-21.1,35.3-15.7S826.8,109.3,821.4,123.4z"/>
		<path class="st17" d="M747.7,86.8c-4-1.5-8.6,0.5-10.1,4.5s0.5,8.6,4.5,10.1s8.6-0.5,10.1-4.5C753.7,92.8,751.7,88.3,747.7,86.8z"
			/>
		<path class="st16" d="M798.7,106.3c-4-1.5-8.6,0.5-10.1,4.5s0.5,8.6,4.5,10.1s8.6-0.5,10.1-4.5S802.7,107.9,798.7,106.3z"/>
		<path class="st18" d="M760.5,166c12.4,0.2,23.7-4.4,32.1-12.2c-8.1-8.1-19.3-13.1-31.6-13.4c-12.4-0.2-23.7,4.4-32.1,12.2
			C737,160.7,748.1,165.8,760.5,166z"/>
		<path class="st15" d="M766.9,176.5c11.6-4.2,20.6-12.5,25.7-22.8c-10.5-4.7-22.7-5.5-34.3-1.3s-20.6,12.5-25.7,22.8
			C743.1,179.9,755.3,180.7,766.9,176.5z"/>
	</g>
	<g class="st14">
		<path class="st15" d="M1002.1,33.1c1.9,12.2,8.5,22.5,17.6,29.5c6.5-9.4,9.6-21.2,7.7-33.4c-1.9-12.2-8.5-22.5-17.6-29.5
			C1003.3,9.1,1000.2,20.9,1002.1,33.1z"/>
		<path class="st16" d="M1019.7,62.6c0,30.2-24.5,54.6-54.6,54.6c-30.2,0-54.6-24.5-54.6-54.6S934.9,8,965.1,8
			C995.3,8,1019.7,32.4,1019.7,62.6z"/>
		<path class="st17" d="M1003.7,101.2c-9.9,9.9-23.5,16-38.6,16c-30.2,0-54.6-24.5-54.6-54.6c0-15.1,6.1-28.7,16-38.6
			c-10.7,10.7-10.7,28,0,38.6c10.7,10.7,28,10.7,38.6,0c10.7-10.7,28-10.7,38.6,0S1014.4,90.6,1003.7,101.2z"/>
		<path class="st17" d="M951.3,37.7c-3.1-3.1-8-3.1-11.1,0s-3.1,8,0,11.1s8,3.1,11.1,0C954.3,45.8,954.3,40.8,951.3,37.7z"/>
		<path class="st16" d="M989.9,76.4c-3.1-3.1-8-3.1-11.1,0s-3.1,8,0,11.1s8,3.1,11.1,0S993,79.4,989.9,76.4z"/>
		<path class="st18" d="M930.8,115.3c11.2,5.2,23.4,5.6,34.3,1.9c-4.1-10.7-12.2-19.8-23.4-25.1c-11.2-5.2-23.4-5.6-34.3-1.9
			C911.5,101,919.6,110.1,930.8,115.3z"/>
		<path class="st15" d="M932.4,127.6c12.3,0.9,23.9-3.1,32.7-10.4c-7.7-8.5-18.5-14.2-30.8-15.1c-12.3-0.9-23.9,3.1-32.7,10.4
			C909.2,121,920,126.7,932.4,127.6z"/>
	</g>
</g>
</svg>
