<?xml version="1.0" encoding="utf-8"?>
<!-- Generator: Adobe Illustrator 23.0.1, SVG Export Plug-In . SVG Version: 6.00 Build 0)  -->
<svg version="1.1" id="Layer_1" xmlns="http://www.w3.org/2000/svg" xmlns:xlink="http://www.w3.org/1999/xlink" x="0px" y="0px"
	 viewBox="0 0 68 60" style="enable-background:new 0 0 68 60;" xml:space="preserve">
<style type="text/css">
	.st0{opacity:0.8;}
	.st1{fill:#E0EBFC;}
	.st2{fill:#F9CFCF;}
	.st3{fill:#3762CC;}
	.st4{fill:#4671C6;}
	.st5{fill:#F24444;}
	.st6{fill:#FDC236;}
	.st7{fill:#37B253;}
	.st8{fill:#5F3A0F;}
	.st9{opacity:0.2;}
	.st10{opacity:0.5;}
	.st11{fill:#D654B7;}
</style>
<g class="st0">
	<g>
		<path class="st1" d="M23.5,39.4v2.8c0,0.1,0.1,0.2,0.2,0.2h7.5c0,0.1,0,2.8,0,2.7c0,0.1,0.1,0.1,0.1,0.1h5.3
			c0.1,0,0.1-0.1,0.1-0.1v-2.7h7.5c0.1,0,0.2-0.1,0.2-0.2v-2.8L23.5,39.4L23.5,39.4z"/>
	</g>
	<g>
		<path class="st2" d="M23.5,39.4L22.2,39c-0.1,0-0.2,0-0.3,0.1c0,0.1,0,0.2,0.1,0.3l0.4,0.3H21c-0.2,0-0.3,0.1-0.3,0.3V41
			c0,0.2,0.1,0.3,0.3,0.3l1.1,0.2c0.2,0,0.4,0,0.6-0.1l0.9-0.3L23.5,39.4L23.5,39.4z"/>
	</g>
	<g>
		<path class="st2" d="M44.5,39.4l1.3-0.5c0.1,0,0.2,0,0.3,0.1c0,0.1,0,0.2-0.1,0.3l-0.4,0.3H47c0.2,0,0.3,0.1,0.3,0.3V41
			c0,0.2-0.1,0.3-0.3,0.3l-1.3,0.2c-0.1,0-0.2,0-0.3,0l-1-0.4V39.4z"/>
	</g>
	<g>
		<path class="st3" d="M36.6,45.5h-5.3c-0.2,0-0.3-0.2-0.3-0.3c0,0,0,0,0,0v-2.5h-7.3c-0.2,0-0.4-0.2-0.4-0.4v-2.8
			c0-0.1,0.1-0.2,0.2-0.2h20.9c0.1,0,0.2,0.1,0.2,0.2v2.8c0,0.2-0.2,0.4-0.4,0.4H37v2.5C37,45.4,36.8,45.5,36.6,45.5L36.6,45.5z
			 M31.5,45.1h5.1v-2.6c0-0.1,0.1-0.2,0.2-0.2h7.5v-2.6H23.8v2.6h7.5c0.1,0,0.2,0.1,0.2,0.2L31.5,45.1z"/>
	</g>
	<g>
		<path class="st3" d="M22.3,41.8c-0.1,0-0.2,0-0.2,0l-1.1-0.2c-0.3,0-0.5-0.3-0.5-0.5V40c0-0.3,0.2-0.6,0.6-0.6h0.7
			c-0.1-0.1-0.1-0.3,0-0.4c0.1-0.2,0.3-0.3,0.6-0.3l1.3,0.5c0.1,0,0.1,0.1,0.1,0.2v1.7c0,0.1-0.1,0.2-0.1,0.2l-0.9,0.3
			C22.6,41.8,22.4,41.8,22.3,41.8L22.3,41.8z M21,39.9c-0.1,0-0.1,0-0.1,0.1V41c0,0.1,0,0.1,0.1,0.1l1.1,0.2c0.2,0,0.3,0,0.5-0.1
			l0.7-0.3v-1.4l-1.1-0.4l0.4,0.3c0.1,0.1,0.1,0.2,0.1,0.2c0,0.1-0.1,0.1-0.2,0.1H21z"/>
	</g>
	<g>
		<path class="st3" d="M45.7,41.8c-0.1,0-0.2,0-0.3-0.1l-1-0.4c-0.1,0-0.1-0.1-0.1-0.2v-1.7c0-0.1,0.1-0.2,0.1-0.2l1.3-0.5
			c0.2-0.1,0.5,0,0.6,0.3c0.1,0.1,0,0.3,0,0.4H47c0.3,0,0.6,0.2,0.6,0.6v1.1c0,0.3-0.2,0.5-0.5,0.5l-1.3,0.2
			C45.8,41.8,45.7,41.8,45.7,41.8z M44.7,41l0.9,0.3c0.1,0,0.1,0,0.2,0l1.3-0.2c0.1,0,0.1-0.1,0.1-0.1V40c0-0.1,0-0.1-0.1-0.1h-1.4
			c-0.1,0-0.2-0.1-0.2-0.1s0-0.2,0.1-0.2l0.4-0.3l-1.2,0.4L44.7,41L44.7,41z"/>
	</g>
	<g>
		<path class="st2" d="M30.6,58.1l-0.3,0.6c-0.1,0.2-0.2,0.5-0.2,0.7c0,0.2,0.2,0.4,0.4,0.4h1.9c0.2,0,0.4-0.2,0.4-0.4
			c0-0.2,0-0.4-0.1-0.6l-0.2-0.7L30.6,58.1L30.6,58.1z"/>
	</g>
	<g>
		<path class="st2" d="M37.4,58.1l0.3,0.6c0.1,0.2,0.2,0.5,0.2,0.7c0,0.2-0.2,0.4-0.4,0.4h-1.9c-0.2,0-0.4-0.2-0.4-0.4
			c0-0.2,0-0.4,0.1-0.6l0.2-0.7L37.4,58.1L37.4,58.1L37.4,58.1z"/>
	</g>
	<g>
		<path class="st1" d="M31.3,46.7l-1.5,11.1c0,0.1,0.1,0.2,0.2,0.2h2.9c0.1,0,0.2-0.1,0.2-0.2l0.9-9.2l0.9,9.2
			c0,0.1,0.1,0.2,0.2,0.2H38c0.1,0,0.2-0.1,0.2-0.2l-1.5-11.1H31.3z"/>
	</g>
	<g>
		<path class="st3" d="M38,58.3h-2.9c-0.2,0-0.4-0.2-0.4-0.4l-0.7-7l-0.7,7c0,0.2-0.2,0.4-0.4,0.4H30c-0.1,0-0.2-0.1-0.3-0.1
			c-0.1-0.1-0.1-0.2-0.1-0.3l1.5-11.1c0-0.1,0.1-0.2,0.2-0.2h5.4c0.1,0,0.2,0.1,0.2,0.2l1.5,11.1c0,0.1,0,0.3-0.1,0.3
			C38.2,58.3,38.1,58.3,38,58.3L38,58.3z M34,48.5c0.1,0,0.2,0.1,0.2,0.2l0.9,9.2H38L36.5,47h-5L30,57.9h2.9l0.9-9.2
			C33.8,48.6,33.9,48.5,34,48.5L34,48.5z"/>
	</g>
	<g>
		<path class="st1" d="M37,48c0.1,0,0.2-0.1,0.1-0.2l-0.4-1.6c0-0.1-0.1-0.1-0.1-0.1h-5.3c-0.1,0-0.1,0-0.1,0.1l-0.4,1.6
			c0,0.1,0,0.2,0.1,0.2C35,48,37.1,48,37,48z"/>
	</g>
	<g>
		<path class="st3" d="M31,48.3c-0.1,0-0.2-0.1-0.3-0.1c-0.1-0.1-0.1-0.2-0.1-0.3l0.4-1.6c0-0.2,0.2-0.3,0.3-0.3h5.3
			c0.2,0,0.3,0.1,0.3,0.3l0.4,1.6c0,0.1,0,0.2-0.1,0.3c-0.1,0.1-0.2,0.1-0.3,0.1l0,0l0,0H31z M31.4,46.4L31,47.8h5.9l-0.4-1.4H31.4z
			"/>
	</g>
	<g>
		<path class="st3" d="M31.6,45.5c0,0-0.1,0-0.1,0c-0.1-0.1-0.1-0.2-0.1-0.3l3.6-5.9c0.1-0.1,0.2-0.1,0.3-0.1
			c0.1,0.1,0.1,0.2,0.1,0.3l-3.6,5.9C31.7,45.5,31.7,45.5,31.6,45.5L31.6,45.5z"/>
	</g>
	<g>
		<path class="st2" d="M32.8,38.5v0.9l1,2.2l1.3-2.2V39v-0.4H32.8z"/>
	</g>
	<g>
		<path class="st3" d="M33.8,41.8C33.8,41.8,33.8,41.8,33.8,41.8c-0.1,0-0.2-0.1-0.2-0.1l-1-2.2c0,0,0-0.1,0-0.1v-0.9
			c0-0.1,0.1-0.2,0.2-0.2h2.3c0.1,0,0.2,0.1,0.2,0.2v0.9c0,0,0,0.1,0,0.1L34,41.7C34,41.8,33.9,41.8,33.8,41.8L33.8,41.8z
			 M33.1,39.4l0.8,1.8l1.1-1.8v-0.6h-1.9V39.4L33.1,39.4z"/>
	</g>
	<g>
		<path class="st4" d="M34,38.4c-1.6,0-2.9-1.3-2.9-2.9v-0.9c0-0.3,0.2-0.5,0.5-0.5h5.4v1.4C36.9,37.1,35.6,38.4,34,38.4z"/>
	</g>
	<g>
		<path class="st3" d="M34,38.7c-1.7,0-3.2-1.4-3.2-3.2v-0.9c0-0.4,0.3-0.7,0.7-0.7h5.4c0.1,0,0.2,0.1,0.2,0.2v1.4
			C37.2,37.2,35.7,38.7,34,38.7z M31.5,34.3c-0.1,0-0.3,0.1-0.3,0.3v0.9c0,1.5,1.2,2.7,2.7,2.7c1.5,0,2.7-1.2,2.7-2.7v-1.2H31.5z"/>
	</g>
	<g>
		<path class="st2" d="M36.5,35.8v-0.2c0-1.4-1.1-2.5-2.5-2.5c-1.4,0-2.5,1.1-2.5,2.5v0.2c-0.4,0-0.8,0.3-0.8,0.8
			c0,0.4,0.4,0.8,0.8,0.8c0.3,1.1,1.3,1.9,2.4,1.9c1.2,0,2.2-0.8,2.4-1.9c0.5,0,0.8-0.3,0.8-0.8C37.3,36.2,36.9,35.8,36.5,35.8
			L36.5,35.8z"/>
	</g>
	<g>
		<path class="st3" d="M35.3,37.1c-0.2,0-0.3-0.1-0.3-0.3v-0.3c0-0.2,0.1-0.3,0.3-0.3s0.3,0.1,0.3,0.3v0.3
			C35.6,37,35.5,37.1,35.3,37.1z"/>
	</g>
	<g>
		<path class="st3" d="M32.7,37.1c-0.2,0-0.3-0.1-0.3-0.3v-0.3c0-0.2,0.1-0.3,0.3-0.3s0.3,0.1,0.3,0.3v0.3
			C33,37,32.9,37.1,32.7,37.1z"/>
	</g>
	<g>
		<path class="st3" d="M34,39.5c-1.2,0-2.3-0.8-2.6-1.9c-0.2,0-0.4-0.1-0.6-0.2c-0.2-0.2-0.3-0.5-0.3-0.7c0-0.3,0.1-0.5,0.3-0.7
			c0.1-0.1,0.3-0.2,0.5-0.3v0c0-1.5,1.2-2.7,2.7-2.7s2.7,1.2,2.7,2.7v0c0.2,0,0.3,0.1,0.5,0.3c0.2,0.2,0.3,0.4,0.3,0.7
			c0,0.3-0.1,0.5-0.3,0.7c-0.2,0.1-0.4,0.2-0.6,0.2C36.3,38.7,35.2,39.5,34,39.5z M31.6,37.1c0.1,0,0.2,0.1,0.2,0.2
			c0.2,1,1.2,1.7,2.2,1.7s2-0.7,2.2-1.7c0-0.1,0.1-0.2,0.2-0.2c0.2,0,0.3,0,0.4-0.1c0.1-0.1,0.2-0.2,0.2-0.4c0-0.1-0.1-0.3-0.2-0.4
			c-0.1-0.1-0.2-0.2-0.4-0.2c-0.1,0-0.1,0-0.2-0.1c0,0-0.1-0.1-0.1-0.2v-0.2c0-1.2-1-2.3-2.3-2.3c-1.3,0-2.3,1-2.3,2.3v0.2
			c0,0.1,0,0.1-0.1,0.2S31.5,36,31.5,36c-0.1,0-0.3,0.1-0.4,0.2c-0.1,0.1-0.2,0.2-0.2,0.4c0,0.2,0.1,0.3,0.2,0.4
			C31.2,37.1,31.4,37.1,31.6,37.1C31.5,37.1,31.6,37.1,31.6,37.1L31.6,37.1z"/>
	</g>
	<g>
		<path class="st4" d="M32.7,35.4h3.4c0.5,0,0.9-0.4,0.9-0.9v-0.7c0-0.8-0.7-1.5-1.5-1.5h-2.5c-0.8,0-1.5,0.7-1.5,1.5v0.3
			C31.4,34.8,31.9,35.4,32.7,35.4z"/>
	</g>
	<g>
		<path class="st3" d="M36.1,35.6h-3.4c-0.8,0-1.5-0.7-1.5-1.5v-0.3c0-1,0.8-1.8,1.8-1.8h2.5c1,0,1.8,0.8,1.8,1.8v0.7
			C37.2,35.1,36.7,35.6,36.1,35.6z M32.9,32.5c-0.7,0-1.3,0.6-1.3,1.3v0.3c0,0.6,0.5,1.1,1.1,1.1h3.4c0.4,0,0.6-0.3,0.6-0.6v-0.7
			c0-0.7-0.6-1.3-1.3-1.3L32.9,32.5L32.9,32.5z"/>
	</g>
	<g>
		<path class="st3" d="M34,38.2c-0.1,0-0.2,0-0.3,0c-0.1,0-0.3-0.1-0.4-0.2c-0.1-0.1-0.1-0.2,0-0.2c0.1-0.1,0.2-0.1,0.2,0
			c0.1,0.1,0.1,0.1,0.2,0.1c0.1,0,0.1,0,0.2,0c0.1,0,0.1,0,0.2,0c0.1,0,0.2-0.1,0.2-0.1c0.1-0.1,0.2-0.1,0.2,0s0.1,0.2,0,0.2
			c-0.1,0.1-0.2,0.2-0.4,0.2C34.2,38.1,34.1,38.2,34,38.2L34,38.2z"/>
	</g>
	<g>
		<path class="st4" d="M33.8,45.3h-0.7l-0.6,3.4h1.3L33.8,45.3L33.8,45.3z"/>
	</g>
	<g>
		<path class="st4" d="M34.2,45.3h0.7l0.6,3.4h-1.3L34.2,45.3L34.2,45.3z"/>
	</g>
	<g>
		<path class="st3" d="M33.8,48.9h-1.3c-0.1,0-0.1,0-0.2-0.1c0-0.1-0.1-0.1,0-0.2l0.6-3.4c0-0.1,0.1-0.2,0.2-0.2h0.7
			c0.1,0,0.2,0.1,0.2,0.2v3.4C34,48.8,33.9,48.9,33.8,48.9z M32.7,48.5h0.8v-2.9h-0.3L32.7,48.5z"/>
	</g>
	<g>
		<path class="st3" d="M35.6,48.9h-1.3c-0.1,0-0.2-0.1-0.2-0.2v-3.4c0-0.1,0.1-0.2,0.2-0.2h0.7c0.1,0,0.2,0.1,0.2,0.2l0.6,3.4
			c0,0.1,0,0.1,0,0.2C35.7,48.9,35.6,48.9,35.6,48.9L35.6,48.9z M34.5,48.5h0.8l-0.6-2.9h-0.3L34.5,48.5L34.5,48.5z"/>
	</g>
	<g>
		<path class="st4" d="M31.4,45.3h5.2v0.8h-5.2V45.3z"/>
	</g>
	<g>
		<path class="st3" d="M36.6,46.4h-5.2c-0.1,0-0.2-0.1-0.2-0.2v-0.8c0-0.1,0.1-0.2,0.2-0.2h5.2c0.1,0,0.2,0.1,0.2,0.2v0.8
			C36.8,46.3,36.7,46.4,36.6,46.4z M31.6,45.9h4.7v-0.4h-4.7V45.9z"/>
	</g>
	<g>
		<path class="st3" d="M32.3,60h-1.9c-0.3,0-0.6-0.3-0.6-0.6c0-0.3,0.1-0.6,0.2-0.8l0.3-0.6c0-0.1,0.1-0.1,0.2-0.1h1.8
			c0.1,0,0.2,0.1,0.2,0.2l0.2,0.7c0.1,0.3,0.1,0.4,0.1,0.6v0.1C32.9,59.7,32.6,60,32.3,60L32.3,60z M30.7,58.3l-0.2,0.5
			c-0.1,0.2-0.2,0.4-0.2,0.6c0,0.1,0.1,0.1,0.1,0.1h1.9c0.1,0,0.1-0.1,0.1-0.1v-0.1c0-0.2,0-0.3-0.1-0.5l-0.2-0.5L30.7,58.3
			L30.7,58.3z"/>
	</g>
	<g>
		<path class="st3" d="M37.6,60h-1.9c-0.3,0-0.6-0.3-0.6-0.6v-0.1c0-0.2,0-0.4,0.1-0.6l0.2-0.7c0-0.1,0.1-0.2,0.2-0.2h1.8
			c0.1,0,0.2,0,0.2,0.1l0.3,0.6c0.1,0.3,0.2,0.5,0.2,0.8C38.2,59.7,37.9,60,37.6,60z M35.8,58.3l-0.2,0.5c-0.1,0.2-0.1,0.3-0.1,0.5
			v0.1c0,0.1,0.1,0.1,0.1,0.1h1.9c0.1,0,0.1-0.1,0.1-0.1c0-0.2-0.1-0.4-0.2-0.6l-0.2-0.5L35.8,58.3L35.8,58.3z"/>
	</g>
	<g>
		<path class="st5" d="M26.4,34.2l0.4-0.4c0.1-0.1,0.1-0.3-0.1-0.4l-2.3-0.4c-0.1,0-0.3,0.1-0.3,0.3l0.4,2.3c0,0.2,0.2,0.2,0.4,0.1
			l0.4-0.4l3.4,3.4c0.1,0.1,0.2,0.1,0.3,0l0.8-0.8c0.1-0.1,0.1-0.2,0-0.3L26.4,34.2z"/>
	</g>
	<g>
		<path class="st6" d="M38.5,38.7c0.1,0.1,0.2,0.1,0.3,0l3.4-3.4l0.4,0.4c0.1,0.1,0.3,0.1,0.4-0.1l0.4-2.3c0-0.1-0.1-0.3-0.3-0.3
			l-2.3,0.4c-0.2,0-0.2,0.2-0.1,0.4l0.4,0.4l-3.4,3.4c-0.1,0.1-0.1,0.2,0,0.3L38.5,38.7z"/>
	</g>
	<g>
		<path class="st7" d="M43,46.7c0-0.2-0.2-0.2-0.4-0.1l-0.4,0.4l-3.4-3.4c-0.1-0.1-0.2-0.1-0.3,0l-0.8,0.8c-0.1,0.1-0.1,0.2,0,0.3
			l3.4,3.4l-0.4,0.4c-0.1,0.1-0.1,0.3,0.1,0.4l2.3,0.4c0.1,0,0.3-0.1,0.3-0.3L43,46.7z"/>
	</g>
	<g>
		<path class="st8" d="M29.1,43.5c-0.1-0.1-0.2-0.1-0.3,0l-3.4,3.4L25,46.5c-0.1-0.1-0.3-0.1-0.4,0.1l-0.4,2.3
			c0,0.1,0.1,0.3,0.3,0.3l2.3-0.4c0.2,0,0.2-0.2,0.1-0.4L26.4,48l3.4-3.4c0.1-0.1,0.1-0.2,0-0.3L29.1,43.5z"/>
	</g>
</g>
<g class="st9">
	<g class="st10">
		<path class="st11" d="M67.4,0.4C67.1,0.1,66.6,0,66.2,0C63.2,0.3,52,1.3,34,1.3c-1.8,0-3.7,0-5.5,0c-0.6,0-1,0.5-1.1,1
			c0,0.6,0.5,1,1,1.1c1.8,0,3.7,0,5.5,0c17.2,0,28.2-0.9,31.9-1.2v2.5h-1.7H3.9H2.1V2.1c2.6,0.3,10,0.9,21.3,1.1c0.6,0,1-0.4,1.1-1
			c0-0.6-0.4-1-1-1.1C11.4,0.9,3.8,0.2,1.8,0C1.4,0,0.9,0.1,0.6,0.4C0.2,0.7,0.1,1.1,0.1,1.6v3.5c0,0.9,0.7,1.6,1.6,1.6H4
			c0.5,2.2,2.5,3.9,4.8,3.9h0.4v4.2H5.4c-0.9,0-1.6,0.7-1.6,1.6v2.8c0,0.9,0.7,1.6,1.6,1.6h3.7v29.9h0v7.7c0,0.9,0.7,1.6,1.6,1.6
			h4.7c0.9,0,1.6-0.7,1.6-1.6v-6.5c0,0,0-0.1,0-0.1V34.7c0-0.6-0.5-1-1-1s-1,0.5-1,1v16h-3.7V20.8H15v8.9c0,0.6,0.5,1,1,1
			c0.6,0,1-0.5,1-1v-8.9h25.1c0.6,0,1-0.5,1-1s-0.5-1-1-1H16c0,0,0,0,0,0s0,0,0,0h-5.8c0,0,0,0,0,0s0,0,0,0H5.9v-1.8h24.1h7.9h24.1
			v1.8h-15c-0.6,0-1,0.5-1,1s0.5,1,1,1h3.9v29.9h0v7.7c0,0.9,0.7,1.6,1.6,1.6h4.7c0.9,0,1.6-0.7,1.6-1.6v-5.6h0v-32h3.7
			c0.9,0,1.6-0.7,1.6-1.6v-2.8c0-0.9-0.7-1.6-1.6-1.6h-3.7v-4.2h0.4c2.4,0,4.3-1.7,4.8-3.9h2.3c0.9,0,1.6-0.7,1.6-1.6V1.6
			C67.9,1.1,67.8,0.7,67.4,0.4z M11.2,52.8H15v5.1h-3.7V52.8z M56.7,57.9H53v-5.1h3.7V57.9z M56.8,50.7H53V20.8h3.7V50.7z M15,14.8
			h-3.7v-4.2H15V14.8z M30.1,14.8h-13v-4.2h13V14.8z M35.9,14.8h-3.7v-4.2h3.7V14.8z M50.9,14.8h-13v-4.2h13V14.8z M56.8,14.8H53
			v-4.2h3.7V14.8z M61.9,6.7c-0.4,1.1-1.4,1.8-2.6,1.8h-0.4v0h-7.9v0h-13h-7.9H16c0,0,0,0,0,0h-5.8c0,0,0,0,0,0H8.8
			c-1.2,0-2.2-0.7-2.6-1.8L61.9,6.7L61.9,6.7z"/>
	</g>
</g>
</svg>
