<?xml version="1.0" encoding="utf-8"?>
<!-- Generator: Adobe Illustrator 23.0.1, SVG Export Plug-In . SVG Version: 6.00 Build 0)  -->
<svg version="1.1" id="Layer_1" xmlns="http://www.w3.org/2000/svg" xmlns:xlink="http://www.w3.org/1999/xlink" x="0px" y="0px"
	 viewBox="0 0 80 80" style="enable-background:new 0 0 80 80;" xml:space="preserve">
<style type="text/css">
	.st0{opacity:0.8;}
	.st1{fill:#D80027;}
	.st2{fill:#AB2300;}
	.st3{fill:#FF9811;}
	.st4{fill:#E0EBFC;}
	.st5{fill:#F9CFCF;}
	.st6{fill:#3762CC;}
	.st7{fill:#4671C6;}
	.st8{fill:#F24444;}
	.st9{fill:#FDC236;}
	.st10{fill:#37B253;}
	.st11{fill:#5F3A0F;}
	.st12{opacity:0.6;}
	.st13{fill:#79A879;}
	.st14{fill:#E5E5E5;}
	.st15{fill:#5C5E71;}
	.st16{fill:#5D895D;}
</style>
<g>
	<g>
		<g class="st0">
			<g>
				<path class="st1" d="M5.6,12.8h70.6v8.8H5.6V12.8z"/>
				<path class="st1" d="M5.6,31.7h70.6v5H5.6V31.7z"/>
				<g>
					<path class="st2" d="M19.5,36.7v31.5h-5V36.7"/>
					<path class="st2" d="M14.4,31.7V21.6h5v10.1"/>
					<path class="st2" d="M67.4,36.7v31.5h-5V36.7"/>
					<path class="st2" d="M62.3,31.7V21.6h5v10.1"/>
					<path class="st2" d="M78.7,7.7v3.8c-1.7,0.5-3.4,0.9-5.1,1.3c-21.8,5-43.7,5-65.5,0c-1.7-0.4-3.4-0.8-5.1-1.3V7.7
						C28.2,11.1,53.6,11.1,78.7,7.7z"/>
				</g>
				<path class="st3" d="M37.1,20.3h7.6v6.3h-7.6V20.3z"/>
			</g>
			<g>
				<path d="M79.6,6.8c-0.3-0.2-0.6-0.4-1-0.3c-25,3.3-50.3,3.3-75.3,0C2.5,6.4,1.9,6.9,1.8,7.6c0,0.1,0,0.1,0,0.2v3.8
					c0,0.6,0.4,1.1,0.9,1.2c0.5,0.1,1.1,0.3,1.6,0.4v8.5c0,0.7,0.6,1.3,1.3,1.3h7.6v7.6H5.6c-0.7,0-1.3,0.6-1.3,1.3v5
					c0,0.7,0.6,1.3,1.3,1.3h7.6v13.9c-0.7,0-1.3,0.6-1.3,1.3s0.6,1.3,1.3,1.3V67H3.1c-0.7,0-1.3,0.6-1.3,1.3s0.6,1.3,1.3,1.3h70.6
					c0.7,0,1.3-0.6,1.3-1.3S74.4,67,73.7,67h-5V54.4c0.7,0,1.3-0.6,1.3-1.3c0-0.7-0.6-1.3-1.3-1.3V38h7.6c0.7,0,1.3-0.6,1.3-1.3v-5
					c0-0.7-0.6-1.3-1.3-1.3h-7.6v-7.6h7.6c0.7,0,1.3-0.6,1.3-1.3v-8.5c0.5-0.1,1.1-0.3,1.6-0.4c0.6-0.1,0.9-0.6,0.9-1.2V7.7
					C80,7.4,79.8,7,79.6,6.8z M18.2,67h-2.5V54.4h2.5V67z M18.2,51.9h-2.5V38h2.5V51.9z M61.1,51.9c-0.7,0-1.3,0.6-1.3,1.3
					c0,0.7,0.6,1.3,1.3,1.3V67H20.7V54.4c0.7,0,1.3-0.6,1.3-1.3c0-0.7-0.6-1.3-1.3-1.3V38h40.4V51.9z M66.1,67h-2.5V54.4h2.5V67z
					 M66.1,51.9h-2.5V38h2.5V51.9z M75,32.9v2.5H6.8v-2.5H75z M15.7,30.4v-7.6h2.5v7.6H15.7z M37.1,27.9h7.6c0.7,0,1.3-0.6,1.3-1.3
					v-3.8h15.1v7.6H20.7v-7.6h15.1v3.8C35.9,27.3,36.4,27.9,37.1,27.9z M38.4,25.4v-3.8h5v3.8H38.4z M63.6,30.4v-7.6h2.5v7.6H63.6z
					 M75,20.3h-29c0-0.7-0.6-1.3-1.3-1.3h-7.6c-0.7,0-1.3,0.6-1.3,1.3h-29V14H8c10.8,2.5,21.8,3.8,32.9,3.8C52,17.8,63,16.5,73.8,14
					H75V20.3L75,20.3z M77.5,10.5c-11.9,3.1-24.2,4.7-36.6,4.8c-12.3,0-24.6-1.6-36.6-4.8V9.2c24.3,3.1,48.9,3.1,73.2,0V10.5z"/>
				<path d="M78.7,67h-1.3c-0.7,0-1.3,0.6-1.3,1.3s0.6,1.3,1.3,1.3h1.3c0.7,0,1.3-0.6,1.3-1.3S79.4,67,78.7,67z"/>
			</g>
		</g>
		<g>
			<g>
				<path class="st4" d="M32.9,51.4v2.2c0,0.1,0.1,0.2,0.2,0.2h5.7c0,0.1,0,2.1,0,2.1c0,0.1,0,0.1,0.1,0.1h4c0.1,0,0.1,0,0.1-0.1
					v-2.1h5.7c0.1,0,0.2-0.1,0.2-0.2v-2.2H32.9L32.9,51.4z"/>
			</g>
			<g>
				<path class="st5" d="M32.9,51.4l-1-0.4c-0.1,0-0.2,0-0.2,0.1c0,0.1,0,0.2,0.1,0.2l0.3,0.2h-1c-0.1,0-0.3,0.1-0.3,0.3v0.8
					c0,0.1,0.1,0.2,0.2,0.2l0.8,0.2c0.2,0,0.3,0,0.5,0l0.7-0.3L32.9,51.4L32.9,51.4z"/>
			</g>
			<g>
				<path class="st5" d="M48.9,51.4l1-0.4c0.1,0,0.2,0,0.2,0.1c0,0.1,0,0.2-0.1,0.2l-0.3,0.2h1c0.1,0,0.3,0.1,0.3,0.3v0.8
					c0,0.1-0.1,0.2-0.2,0.2l-1,0.2c-0.1,0-0.2,0-0.2,0l-0.8-0.3L48.9,51.4L48.9,51.4z"/>
			</g>
			<g>
				<path class="st6" d="M42.9,56.1h-4c-0.2,0-0.3-0.1-0.3-0.3c0,0,0,0,0,0v-1.9h-5.5c-0.2,0-0.3-0.2-0.3-0.3v-2.2
					c0-0.1,0.1-0.2,0.2-0.2h16c0.1,0,0.2,0.1,0.2,0.2v2.2c0,0.2-0.2,0.3-0.3,0.3h-5.5v1.9C43.2,55.9,43,56.1,42.9,56.1L42.9,56.1z
					 M39,55.7h3.9v-2c0-0.1,0.1-0.2,0.2-0.2h5.7v-2H33.1v2h5.7c0.1,0,0.2,0.1,0.2,0.2L39,55.7z"/>
			</g>
			<g>
				<path class="st6" d="M31.9,53.2c-0.1,0-0.1,0-0.2,0L30.9,53c-0.2,0-0.3-0.2-0.3-0.4v-0.8c0-0.2,0.2-0.4,0.4-0.4h0.6
					c-0.1-0.1-0.1-0.2,0-0.3c0.1-0.2,0.3-0.3,0.4-0.2l1,0.4c0.1,0,0.1,0.1,0.1,0.2v1.3c0,0.1,0,0.1-0.1,0.2l-0.7,0.3
					C32.2,53.2,32.1,53.2,31.9,53.2L31.9,53.2z M31,51.7C31,51.7,30.9,51.8,31,51.7l-0.1,0.9c0,0,0,0.1,0.1,0.1l0.8,0.2
					c0.1,0,0.3,0,0.4,0l0.5-0.2v-1.1l-0.9-0.3l0.3,0.2c0.1,0,0.1,0.1,0.1,0.2c0,0.1-0.1,0.1-0.2,0.1L31,51.7L31,51.7z"/>
			</g>
			<g>
				<path class="st6" d="M49.8,53.2c-0.1,0-0.2,0-0.2,0l-0.8-0.3c-0.1,0-0.1-0.1-0.1-0.2v-1.3c0-0.1,0-0.1,0.1-0.2l1-0.4
					c0.2-0.1,0.4,0,0.4,0.2c0,0.1,0,0.2,0,0.3h0.6c0.2,0,0.4,0.2,0.4,0.4v0.8c0,0.2-0.1,0.4-0.3,0.4L49.8,53.2
					C49.9,53.2,49.8,53.2,49.8,53.2z M49,52.6l0.7,0.3c0,0,0.1,0,0.1,0l1-0.2c0,0,0.1,0,0.1-0.1v-0.8c0,0,0-0.1-0.1-0.1h-1
					c-0.1,0-0.1,0-0.2-0.1c0-0.1,0-0.1,0.1-0.2l0.3-0.2L49,51.5L49,52.6L49,52.6z"/>
			</g>
			<g>
				<path class="st5" d="M38.3,65.7L38,66.1c-0.1,0.2-0.1,0.4-0.1,0.6c0,0.2,0.1,0.3,0.3,0.3h1.4c0.2,0,0.3-0.1,0.3-0.3
					c0-0.2,0-0.3,0-0.5l-0.2-0.5L38.3,65.7L38.3,65.7z"/>
			</g>
			<g>
				<path class="st5" d="M43.5,65.7l0.2,0.4c0.1,0.2,0.1,0.4,0.1,0.6c0,0.2-0.1,0.3-0.3,0.3h-1.4c-0.2,0-0.3-0.1-0.3-0.3
					c0-0.2,0-0.3,0-0.5l0.2-0.5L43.5,65.7L43.5,65.7L43.5,65.7z"/>
			</g>
			<g>
				<path class="st4" d="M38.9,57l-1.2,8.5c0,0.1,0.1,0.2,0.2,0.2H40c0.1,0,0.2-0.1,0.2-0.2l0.7-7l0.7,7c0,0.1,0.1,0.2,0.2,0.2H44
					c0.1,0,0.2-0.1,0.2-0.2L43,57H38.9z"/>
			</g>
			<g>
				<path class="st6" d="M44,65.8h-2.2c-0.2,0-0.3-0.1-0.3-0.3l-0.5-5.4l-0.5,5.4c0,0.2-0.2,0.3-0.3,0.3h-2.2c-0.1,0-0.2,0-0.3-0.1
					c-0.1-0.1-0.1-0.2-0.1-0.3l1.2-8.5c0-0.1,0.1-0.1,0.2-0.1H43c0.1,0,0.2,0.1,0.2,0.1l1.2,8.5c0,0.1,0,0.2-0.1,0.3
					C44.1,65.8,44.1,65.8,44,65.8L44,65.8z M40.9,58.3c0.1,0,0.2,0.1,0.2,0.2l0.7,7H44l-1.1-8.3H39l-1.1,8.3H40l0.7-7
					C40.8,58.4,40.8,58.3,40.9,58.3L40.9,58.3z"/>
			</g>
			<g>
				<path class="st4" d="M43.2,58c0.1,0,0.1-0.1,0.1-0.1L43,56.6c0,0-0.1-0.1-0.1-0.1h-4c0,0-0.1,0-0.1,0.1l-0.3,1.2
					c0,0.1,0,0.1,0.1,0.1C41.7,58,43.3,58,43.2,58z"/>
			</g>
			<g>
				<path class="st6" d="M38.6,58.1c-0.1,0-0.2,0-0.2-0.1c0-0.1-0.1-0.2,0-0.2l0.3-1.2c0-0.1,0.1-0.2,0.3-0.2h4
					c0.1,0,0.2,0.1,0.3,0.2l0.3,1.2c0,0.1,0,0.2,0,0.2c0,0.1-0.1,0.1-0.2,0.1l0,0l0,0H38.6z M38.9,56.7l-0.3,1.1h4.5l-0.3-1.1H38.9z
					"/>
			</g>
			<g>
				<path class="st6" d="M39.1,56.1C39,56.1,39,56.1,39.1,56.1c-0.2-0.1-0.2-0.2-0.1-0.3l2.7-4.5c0-0.1,0.2-0.1,0.2-0.1
					c0.1,0,0.1,0.2,0.1,0.2L39.2,56C39.2,56,39.1,56.1,39.1,56.1L39.1,56.1z"/>
			</g>
			<g>
				<path class="st5" d="M40,50.7v0.7l0.8,1.7l1-1.7V51v-0.3H40z"/>
			</g>
			<g>
				<path class="st6" d="M40.8,53.2C40.8,53.2,40.8,53.2,40.8,53.2c-0.1,0-0.1,0-0.2-0.1l-0.8-1.7c0,0,0,0,0-0.1v-0.7
					c0-0.1,0.1-0.2,0.2-0.2h1.8c0.1,0,0.2,0.1,0.2,0.2v0.7c0,0,0,0.1,0,0.1l-1,1.7C40.9,53.2,40.8,53.2,40.8,53.2L40.8,53.2z
					 M40.2,51.4l0.6,1.4l0.8-1.4v-0.5h-1.4V51.4L40.2,51.4z"/>
			</g>
			<g>
				<path class="st7" d="M40.9,50.6c-1.2,0-2.2-1-2.2-2.2v-0.7c0-0.2,0.2-0.4,0.4-0.4h4.1v1.1C43.1,49.6,42.1,50.6,40.9,50.6z"/>
			</g>
			<g>
				<path class="st6" d="M40.9,50.8c-1.3,0-2.4-1.1-2.4-2.4v-0.7c0-0.3,0.2-0.5,0.5-0.5h4.1c0.1,0,0.2,0.1,0.2,0.2v1.1
					C43.3,49.7,42.2,50.8,40.9,50.8z M39,47.5c-0.1,0-0.2,0.1-0.2,0.2v0.7c0,1.1,0.9,2.1,2.1,2.1c1.1,0,2.1-0.9,2.1-2.1v-0.9H39z"/>
			</g>
			<g>
				<path class="st5" d="M42.8,48.6v-0.2c0-1-0.9-1.9-1.9-1.9S39,47.4,39,48.5v0.2c-0.3,0-0.6,0.3-0.6,0.6c0,0.3,0.3,0.6,0.6,0.6
					c0.2,0.8,1,1.5,1.9,1.5s1.7-0.6,1.9-1.5c0.4,0,0.6-0.2,0.6-0.6C43.4,48.9,43.1,48.6,42.8,48.6L42.8,48.6z"/>
			</g>
			<g>
				<path class="st6" d="M41.9,49.6c-0.1,0-0.2-0.1-0.2-0.2v-0.3c0-0.1,0.1-0.2,0.2-0.2c0.1,0,0.2,0.1,0.2,0.2v0.3
					C42.1,49.5,42,49.6,41.9,49.6z"/>
			</g>
			<g>
				<path class="st6" d="M39.9,49.6c-0.1,0-0.2-0.1-0.2-0.2v-0.3c0-0.1,0.1-0.2,0.2-0.2c0.1,0,0.2,0.1,0.2,0.2v0.3
					C40.2,49.5,40,49.6,39.9,49.6z"/>
			</g>
			<g>
				<path class="st6" d="M40.9,51.4c-0.9,0-1.7-0.6-2-1.5c-0.2,0-0.3-0.1-0.4-0.2c-0.2-0.1-0.2-0.3-0.2-0.6c0-0.2,0.1-0.4,0.2-0.5
					c0.1-0.1,0.2-0.2,0.4-0.2v0c0-1.1,0.9-2.1,2.1-2.1c1.1,0,2.1,0.9,2.1,2.1v0c0.1,0,0.3,0.1,0.4,0.2c0.1,0.1,0.2,0.3,0.2,0.5
					c0,0.2-0.1,0.4-0.2,0.6C43.2,49.9,43,50,42.9,50C42.6,50.8,41.8,51.4,40.9,51.4z M39,49.6c0.1,0,0.1,0,0.2,0.1
					c0.2,0.8,0.9,1.3,1.7,1.3c0.8,0,1.5-0.6,1.7-1.3c0-0.1,0.1-0.1,0.2-0.1c0.1,0,0.2,0,0.3-0.1s0.1-0.2,0.1-0.3
					c0-0.1,0-0.2-0.1-0.3s-0.2-0.1-0.3-0.1c0,0-0.1,0-0.1,0c0,0,0-0.1,0-0.1v-0.2c0-0.9-0.8-1.7-1.7-1.7c-1,0-1.7,0.8-1.7,1.7v0.2
					c0,0,0,0.1,0,0.1c0,0-0.1,0-0.1,0c-0.1,0-0.2,0-0.3,0.1c-0.1,0.1-0.1,0.2-0.1,0.3c0,0.1,0,0.2,0.1,0.3
					C38.8,49.6,38.9,49.6,39,49.6C39,49.6,39,49.6,39,49.6L39,49.6z"/>
			</g>
			<g>
				<path class="st7" d="M39.9,48.3h2.6c0.4,0,0.7-0.3,0.7-0.7v-0.6c0-0.6-0.5-1.2-1.2-1.2h-1.9c-0.6,0-1.2,0.5-1.2,1.2v0.3
					C38.9,47.9,39.3,48.3,39.9,48.3z"/>
			</g>
			<g>
				<path class="st6" d="M42.5,48.5h-2.6c-0.6,0-1.1-0.5-1.1-1.1v-0.3c0-0.7,0.6-1.3,1.3-1.3H42c0.7,0,1.3,0.6,1.3,1.3v0.6
					C43.3,48.1,42.9,48.5,42.5,48.5z M40.1,46.1c-0.6,0-1,0.5-1,1v0.3c0,0.4,0.4,0.8,0.8,0.8h2.6c0.3,0,0.5-0.2,0.5-0.5v-0.6
					c0-0.6-0.5-1-1-1H40.1L40.1,46.1z"/>
			</g>
			<g>
				<path class="st6" d="M40.9,50.4c-0.1,0-0.2,0-0.2,0c-0.1,0-0.2-0.1-0.3-0.2c0,0,0-0.1,0-0.2c0,0,0.1,0,0.2,0
					c0,0,0.1,0.1,0.2,0.1c0,0,0.1,0,0.1,0c0.1,0,0.1,0,0.1,0c0.1,0,0.1-0.1,0.2-0.1c0,0,0.1,0,0.2,0c0,0,0,0.1,0,0.2
					c-0.1,0.1-0.2,0.1-0.3,0.2C41.1,50.4,41,50.4,40.9,50.4L40.9,50.4z"/>
			</g>
			<g>
				<path class="st7" d="M40.7,55.9h-0.5l-0.5,2.6h1V55.9z"/>
			</g>
			<g>
				<path class="st7" d="M41.1,55.9h0.5l0.5,2.6h-1V55.9z"/>
			</g>
			<g>
				<path class="st6" d="M40.7,58.6h-1c0,0-0.1,0-0.1-0.1c0,0,0-0.1,0-0.1l0.5-2.6c0-0.1,0.1-0.1,0.2-0.1h0.5c0.1,0,0.2,0.1,0.2,0.2
					v2.6C40.9,58.6,40.8,58.6,40.7,58.6z M39.9,58.3h0.6v-2.2h-0.2L39.9,58.3z"/>
			</g>
			<g>
				<path class="st6" d="M42.1,58.6h-1c-0.1,0-0.2-0.1-0.2-0.2v-2.6c0-0.1,0.1-0.2,0.2-0.2h0.5c0.1,0,0.2,0.1,0.2,0.1l0.5,2.6
					c0,0,0,0.1,0,0.1C42.2,58.6,42.1,58.6,42.1,58.6L42.1,58.6z M41.2,58.3h0.6l-0.4-2.2h-0.2L41.2,58.3L41.2,58.3z"/>
			</g>
			<g>
				<path class="st7" d="M38.9,55.9h3.9v0.6h-3.9V55.9z"/>
			</g>
			<g>
				<path class="st6" d="M42.9,56.7h-3.9c-0.1,0-0.2-0.1-0.2-0.2v-0.6c0-0.1,0.1-0.2,0.2-0.2h3.9c0.1,0,0.2,0.1,0.2,0.2v0.6
					C43,56.6,43,56.7,42.9,56.7z M39.1,56.4h3.6v-0.3h-3.6V56.4z"/>
			</g>
			<g>
				<path class="st6" d="M39.6,67.1h-1.4c-0.2,0-0.4-0.2-0.4-0.4c0-0.2,0.1-0.4,0.2-0.6l0.2-0.4c0-0.1,0.1-0.1,0.2-0.1h1.4
					c0.1,0,0.1,0,0.2,0.1l0.2,0.5c0.1,0.2,0.1,0.3,0.1,0.5v0C40,66.9,39.8,67.1,39.6,67.1L39.6,67.1z M38.4,65.8l-0.2,0.4
					c-0.1,0.1-0.1,0.3-0.1,0.5c0,0.1,0,0.1,0.1,0.1h1.4c0.1,0,0.1,0,0.1-0.1v0c0-0.1,0-0.2,0-0.4l-0.1-0.4H38.4L38.4,65.8z"/>
			</g>
			<g>
				<path class="st6" d="M43.6,67.1h-1.4c-0.2,0-0.4-0.2-0.4-0.4v0c0-0.1,0-0.3,0.1-0.5l0.2-0.5c0-0.1,0.1-0.1,0.2-0.1h1.4
					c0.1,0,0.1,0,0.2,0.1l0.2,0.4c0.1,0.2,0.2,0.4,0.2,0.6C44.1,66.9,43.9,67.1,43.6,67.1z M42.3,65.8l-0.1,0.4c0,0.2,0,0.3,0,0.4v0
					c0,0.1,0,0.1,0.1,0.1h1.4c0.1,0,0.1,0,0.1-0.1c0-0.2,0-0.3-0.1-0.5l-0.2-0.4L42.3,65.8L42.3,65.8z"/>
			</g>
			<g>
				<path class="st8" d="M35.1,47.4l0.3-0.3c0.1-0.1,0-0.3-0.1-0.3l-1.7-0.3c-0.1,0-0.2,0.1-0.2,0.2l0.3,1.7c0,0.1,0.2,0.2,0.3,0.1
					l0.3-0.3l2.6,2.6c0.1,0.1,0.2,0.1,0.2,0l0.6-0.6c0.1-0.1,0.1-0.2,0-0.2L35.1,47.4z"/>
			</g>
			<g>
				<path class="st9" d="M44.4,50.8c0.1,0.1,0.2,0.1,0.2,0l2.6-2.6l0.3,0.3c0.1,0.1,0.3,0,0.3-0.1l0.3-1.7c0-0.1-0.1-0.2-0.2-0.2
					l-1.7,0.3C46,46.8,46,47,46,47.1l0.3,0.3L43.8,50c-0.1,0.1-0.1,0.2,0,0.2L44.4,50.8z"/>
			</g>
			<g>
				<path class="st10" d="M47.8,56.9c0-0.1-0.2-0.2-0.3-0.1l-0.3,0.3l-2.6-2.6c-0.1-0.1-0.2-0.1-0.2,0l-0.6,0.6
					c-0.1,0.1-0.1,0.2,0,0.2l2.6,2.6L46,58.2c-0.1,0.1,0,0.3,0.1,0.3l1.7,0.3c0.1,0,0.2-0.1,0.2-0.2L47.8,56.9z"/>
			</g>
			<g>
				<path class="st11" d="M37.1,54.5c-0.1-0.1-0.2-0.1-0.2,0l-2.6,2.6L34,56.8c-0.1-0.1-0.3,0-0.3,0.1l-0.3,1.7
					c0,0.1,0.1,0.2,0.2,0.2l1.7-0.3c0.1,0,0.2-0.2,0.1-0.3L35.1,58l2.6-2.6c0.1-0.1,0.1-0.2,0-0.2L37.1,54.5z"/>
			</g>
		</g>
	</g>
	<g class="st12">
		<path class="st13" d="M57.4,7.6c-0.3,0.9-0.1,1.9,0.3,2.7c0.8-0.5,1.4-1.2,1.6-2.2s0.1-1.9-0.3-2.7C58.3,5.9,57.7,6.7,57.4,7.6z"
			/>
		<path class="st14" d="M57.8,10.3c-1,2.2-3.6,3.2-5.8,2.2c-2.2-1-3.2-3.6-2.2-5.8c1-2.2,3.6-3.2,5.8-2.2
			C57.7,5.6,58.7,8.2,57.8,10.3z"/>
		<path class="st15" d="M55.3,12.6c-1,0.4-2.2,0.4-3.3-0.1c-2.2-1-3.2-3.6-2.2-5.8c0.5-1.1,1.4-1.9,2.4-2.3
			c-1.1,0.4-1.7,1.7-1.3,2.8s1.7,1.7,2.8,1.3c1.1-0.4,2.4,0.1,2.8,1.3S56.5,12.2,55.3,12.6z"/>
		<path class="st15" d="M53.6,6.3C53.5,6,53.1,5.8,52.8,6c-0.3,0.1-0.5,0.5-0.4,0.8c0.1,0.3,0.5,0.5,0.8,0.4
			C53.5,7,53.7,6.6,53.6,6.3z"/>
		<path class="st14" d="M55.1,10.4c-0.1-0.3-0.5-0.5-0.8-0.4c-0.3,0.1-0.5,0.5-0.4,0.8c0.1,0.3,0.5,0.5,0.8,0.4
			C55.1,11.1,55.3,10.7,55.1,10.4z"/>
		<path class="st16" d="M49.6,11.3c0.6,0.7,1.5,1.2,2.4,1.3c0-0.9-0.2-1.8-0.9-2.6c-0.6-0.7-1.5-1.2-2.4-1.3
			C48.6,9.6,48.9,10.6,49.6,11.3z"/>
		<path class="st13" d="M49.3,12.3c0.9,0.5,1.8,0.6,2.7,0.3c-0.3-0.9-0.9-1.6-1.8-2.1c-0.9-0.5-1.8-0.6-2.7-0.3
			C47.8,11,48.4,11.8,49.3,12.3z"/>
	</g>
	<g class="st12">
		<path class="st13" d="M69.1,17.6c-0.6,0.8-0.9,1.7-0.8,2.6c0.9-0.1,1.8-0.6,2.4-1.3c0.6-0.8,0.9-1.7,0.8-2.6
			C70.6,16.4,69.7,16.9,69.1,17.6z"/>
		<path class="st14" d="M68.3,20.3c-1.8,1.6-4.5,1.5-6.2-0.3s-1.5-4.5,0.3-6.2s4.5-1.5,6.2,0.3C70.2,15.9,70.1,18.7,68.3,20.3z"/>
		<path class="st15" d="M65.2,21.4c-1.1-0.1-2.2-0.5-3-1.4c-1.6-1.8-1.5-4.5,0.3-6.2c0.9-0.8,2-1.2,3.1-1.1
			c-1.2-0.1-2.2,0.9-2.3,2.1c-0.1,1.2,0.9,2.2,2.1,2.3c1.2,0.1,2.1,1.1,2.1,2.3S66.3,21.4,65.2,21.4z"/>
		<path class="st15" d="M66.1,14.9c0-0.3-0.2-0.6-0.6-0.7c-0.3,0-0.6,0.2-0.7,0.6s0.2,0.6,0.6,0.7C65.8,15.5,66.1,15.2,66.1,14.9z"
			/>
		<path class="st14" d="M65.9,19.2c0-0.3-0.2-0.6-0.6-0.7c-0.3,0-0.6,0.2-0.7,0.6c0,0.3,0.2,0.6,0.6,0.7
			C65.6,19.8,65.9,19.6,65.9,19.2z"/>
		<path class="st16" d="M60.4,17.8c0.3,0.9,0.9,1.7,1.7,2.1c0.4-0.8,0.5-1.8,0.2-2.7c-0.3-0.9-0.9-1.7-1.7-2.1
			C60.2,15.9,60.1,16.9,60.4,17.8z"/>
		<path class="st13" d="M59.8,18.5c0.6,0.8,1.5,1.3,2.4,1.4c0.1-0.9-0.1-1.9-0.8-2.6c-0.6-0.8-1.5-1.3-2.4-1.4
			C58.9,16.8,59.2,17.8,59.8,18.5z"/>
	</g>
	<g class="st12">
		<path class="st13" d="M75.7,31.5c-0.9,0.4-1.5,1.2-1.8,2.1c0.9,0.3,1.9,0.2,2.7-0.2c0.9-0.4,1.5-1.2,1.8-2.1
			C77.6,31,76.6,31.1,75.7,31.5z"/>
		<path class="st14" d="M73.9,33.6c-2.3,0.7-4.7-0.5-5.5-2.8c-0.7-2.3,0.5-4.7,2.8-5.5s4.7,0.5,5.5,2.8
			C77.4,30.4,76.2,32.9,73.9,33.6z"/>
		<path class="st15" d="M70.6,33.3c-1-0.5-1.8-1.4-2.2-2.5c-0.7-2.3,0.5-4.7,2.8-5.5c1.1-0.4,2.3-0.2,3.3,0.3
			c-1.1-0.5-2.4-0.1-2.9,0.9c-0.5,1.1-0.1,2.4,0.9,2.9c1.1,0.5,1.5,1.9,0.9,2.9C72.9,33.5,71.6,33.9,70.6,33.3z"/>
		<path class="st15" d="M74.1,27.8c0.2-0.3,0-0.7-0.3-0.8c-0.3-0.2-0.7,0-0.8,0.3c-0.2,0.3,0,0.7,0.3,0.8
			C73.6,28.2,73.9,28.1,74.1,27.8z"/>
		<path class="st14" d="M72.1,31.7c0.2-0.3,0-0.7-0.3-0.8c-0.3-0.2-0.7,0-0.8,0.3c-0.2,0.3,0,0.7,0.3,0.8C71.6,32.1,72,32,72.1,31.7
			z"/>
		<path class="st16" d="M67.7,28.2c-0.1,1,0.2,1.9,0.7,2.6c0.7-0.6,1.2-1.4,1.3-2.4c0.1-1-0.2-1.9-0.7-2.6
			C68.3,26.3,67.8,27.2,67.7,28.2z"/>
		<path class="st13" d="M66.8,28.6c0.2,1,0.8,1.7,1.6,2.2c0.5-0.8,0.6-1.8,0.4-2.7c-0.2-1-0.8-1.7-1.6-2.2
			C66.7,26.7,66.6,27.6,66.8,28.6z"/>
	</g>
	<g class="st12">
		<path class="st13" d="M76.1,46.9c-1,0-1.9,0.5-2.5,1.1c0.7,0.6,1.6,0.9,2.6,0.9c1,0,1.9-0.5,2.5-1.1C78,47.2,77.1,46.9,76.1,46.9z
			"/>
		<path class="st14" d="M73.6,48.1c-2.4-0.3-4.1-2.4-3.9-4.8c0.3-2.4,2.4-4.1,4.8-3.9c2.4,0.3,4.1,2.4,3.9,4.8
			C78.1,46.6,76,48.3,73.6,48.1z"/>
		<path class="st15" d="M70.6,46.5c-0.7-0.9-1.1-2-0.9-3.2c0.3-2.4,2.4-4.1,4.8-3.9c1.2,0.1,2.2,0.7,2.9,1.6
			c-0.8-0.9-2.1-1.1-3.1-0.3c-0.9,0.8-1.1,2.1-0.3,3.1c0.8,0.9,0.6,2.3-0.3,3.1C72.8,47.6,71.4,47.4,70.6,46.5z"/>
		<path class="st15" d="M76.1,42.9c0.3-0.2,0.3-0.6,0.1-0.9s-0.6-0.3-0.9-0.1c-0.3,0.2-0.3,0.6-0.1,0.9S75.9,43.1,76.1,42.9z"/>
		<path class="st14" d="M72.7,45.6c0.3-0.2,0.3-0.6,0.1-0.9c-0.2-0.3-0.6-0.3-0.9-0.1c-0.3,0.2-0.3,0.6-0.1,0.9
			C72.1,45.8,72.5,45.8,72.7,45.6z"/>
		<path class="st16" d="M70.1,40.6c-0.5,0.8-0.6,1.8-0.4,2.7c0.9-0.2,1.7-0.8,2.2-1.7c0.5-0.8,0.6-1.8,0.4-2.7
			C71.4,39.2,70.6,39.7,70.1,40.6z"/>
		<path class="st13" d="M69.1,40.6c-0.2,1,0,1.9,0.6,2.7c0.7-0.5,1.3-1.3,1.5-2.3c0.2-1,0-1.9-0.6-2.7
			C69.9,38.8,69.3,39.6,69.1,40.6z"/>
	</g>
	<g class="st12">
		<path class="st13" d="M70.1,61.1c-0.9-0.4-1.9-0.3-2.7,0c0.4,0.8,1.1,1.5,2,1.9c0.9,0.4,1.9,0.3,2.7,0
			C71.8,62.2,71.1,61.5,70.1,61.1z"/>
		<path class="st14" d="M67.4,61.2c-2.1-1.2-2.8-3.9-1.6-6c1.2-2.1,3.9-2.8,6-1.6s2.8,3.9,1.6,6C72.2,61.7,69.5,62.4,67.4,61.2z"/>
		<path class="st15" d="M65.4,58.5c-0.3-1.1-0.2-2.3,0.4-3.3c1.2-2.1,3.9-2.8,6-1.6c1,0.6,1.7,1.6,2,2.6c-0.3-1.2-1.5-1.9-2.7-1.5
			c-1.2,0.3-1.9,1.5-1.5,2.7s-0.4,2.4-1.5,2.7C66.9,60.4,65.7,59.7,65.4,58.5z"/>
		<path class="st15" d="M71.9,57.4c0.3-0.1,0.5-0.4,0.4-0.8c-0.1-0.3-0.4-0.5-0.8-0.4c-0.3,0.1-0.5,0.4-0.4,0.8
			C71.2,57.3,71.5,57.5,71.9,57.4z"/>
		<path class="st14" d="M67.6,58.6c0.3-0.1,0.5-0.4,0.4-0.8c-0.1-0.3-0.4-0.5-0.8-0.4c-0.3,0.1-0.5,0.4-0.4,0.8
			C67,58.4,67.3,58.6,67.6,58.6z"/>
		<path class="st16" d="M67.3,52.9c-0.8,0.6-1.3,1.4-1.5,2.3c0.9,0.1,1.9-0.1,2.7-0.6c0.8-0.6,1.3-1.4,1.5-2.3
			C69.1,52.2,68.1,52.3,67.3,52.9z"/>
		<path class="st13" d="M66.4,52.5c-0.6,0.8-0.7,1.8-0.6,2.7c0.9-0.2,1.7-0.7,2.3-1.5c0.6-0.8,0.7-1.8,0.6-2.7
			C67.8,51.2,67,51.7,66.4,52.5z"/>
	</g>
	<g class="st12">
		<path class="st13" d="M59,71.7c-0.7-0.7-1.6-1.1-2.5-1.1c0,0.9,0.4,1.8,1.1,2.5c0.7,0.7,1.6,1.1,2.5,1.1
			C60,73.3,59.7,72.4,59,71.7z"/>
		<path class="st14" d="M56.5,70.6c-1.4-1.9-1-4.7,1-6.1c1.9-1.4,4.7-1,6.1,1c1.4,1.9,1,4.7-1,6.1C60.6,73,57.9,72.6,56.5,70.6z"/>
		<path class="st15" d="M55.7,67.4c0.2-1.1,0.8-2.1,1.7-2.8c1.9-1.4,4.7-1,6.1,1c0.7,1,0.9,2.1,0.8,3.2c0.2-1.2-0.6-2.3-1.8-2.5
			C61.3,66,60.2,66.9,60,68c-0.2,1.2-1.3,2-2.5,1.8C56.3,69.7,55.5,68.5,55.7,67.4z"/>
		<path class="st15" d="M62,69c0.3,0.1,0.7-0.2,0.7-0.5c0.1-0.3-0.2-0.7-0.5-0.7s-0.7,0.2-0.7,0.5S61.7,68.9,62,69z"/>
		<path class="st14" d="M57.7,68.3c0.3,0.1,0.7-0.2,0.7-0.5c0.1-0.3-0.2-0.7-0.5-0.7s-0.7,0.2-0.7,0.5
			C57.2,67.9,57.4,68.3,57.7,68.3z"/>
		<path class="st16" d="M59.7,63c-1,0.2-1.8,0.7-2.3,1.5c0.8,0.5,1.7,0.7,2.7,0.5c1-0.2,1.8-0.7,2.3-1.5
			C61.6,63.1,60.7,62.9,59.7,63z"/>
		<path class="st13" d="M59,62.3c-0.8,0.5-1.4,1.3-1.6,2.2c0.9,0.2,1.9,0,2.7-0.5c0.8-0.5,1.4-1.3,1.6-2.2
			C60.8,61.7,59.9,61.8,59,62.3z"/>
	</g>
	<g class="st12">
		<path class="st13" d="M44.5,76.8c-0.4-0.9-1-1.6-1.9-2c-0.4,0.8-0.4,1.8,0,2.7s1,1.6,1.9,2C44.8,78.7,44.8,77.7,44.5,76.8z"/>
		<path class="st14" d="M42.6,74.8c-0.5-2.4,1-4.7,3.4-5.2c2.4-0.5,4.7,1,5.2,3.4c0.5,2.4-1,4.7-3.4,5.2
			C45.4,78.6,43.1,77.1,42.6,74.8z"/>
		<path class="st15" d="M43.2,71.5c0.6-0.9,1.6-1.6,2.8-1.9c2.4-0.5,4.7,1,5.2,3.4c0.2,1.2,0,2.3-0.6,3.3c0.7-1,0.4-2.4-0.6-3
			c-1-0.7-2.4-0.4-3,0.6c-0.7,1-2,1.3-3,0.6C42.8,73.9,42.5,72.5,43.2,71.5z"/>
		<path class="st15" d="M48.3,75.6c0.3,0.2,0.7,0.1,0.9-0.2c0.2-0.3,0.1-0.7-0.2-0.9c-0.3-0.2-0.7-0.1-0.9,0.2
			C48,75,48.1,75.4,48.3,75.6z"/>
		<path class="st14" d="M44.7,73.2c0.3,0.2,0.7,0.1,0.9-0.2c0.2-0.3,0.1-0.7-0.2-0.9c-0.3-0.2-0.7-0.1-0.9,0.2
			C44.3,72.6,44.4,73,44.7,73.2z"/>
		<path class="st16" d="M48.7,69.2c-1-0.2-1.9,0-2.7,0.4c0.5,0.8,1.3,1.3,2.2,1.6c1,0.2,1.9,0,2.7-0.4C50.4,70,49.6,69.4,48.7,69.2z
			"/>
		<path class="st13" d="M48.3,68.3c-1,0.1-1.8,0.6-2.4,1.4c0.7,0.5,1.7,0.8,2.7,0.7c1-0.1,1.8-0.6,2.4-1.4
			C50.3,68.4,49.3,68.1,48.3,68.3z"/>
	</g>
	<g class="st12">
		<path class="st13" d="M29.1,75.6c0.1-1-0.3-1.9-0.9-2.6c-0.7,0.6-1.1,1.5-1.2,2.5c-0.1,1,0.3,1.9,0.9,2.6
			C28.6,77.4,29.1,76.5,29.1,75.6z"/>
		<path class="st14" d="M28.2,73c0.5-2.4,2.8-3.9,5.2-3.4s3.9,2.8,3.4,5.2c-0.5,2.4-2.8,3.9-5.2,3.4C29.2,77.6,27.7,75.3,28.2,73z"
			/>
		<path class="st15" d="M30.1,70.2c0.9-0.6,2.1-0.9,3.3-0.6c2.4,0.5,3.9,2.8,3.4,5.2c-0.2,1.2-1,2.1-1.9,2.8c1-0.7,1.3-2,0.6-3
			s-2-1.3-3-0.6c-1,0.7-2.4,0.4-3-0.6C28.8,72.2,29.1,70.9,30.1,70.2z"/>
		<path class="st15" d="M33.2,76c0.2,0.3,0.6,0.4,0.9,0.2c0.3-0.2,0.4-0.6,0.2-0.9c-0.2-0.3-0.6-0.4-0.9-0.2
			C33.1,75.4,33,75.8,33.2,76z"/>
		<path class="st14" d="M30.8,72.4c0.2,0.3,0.6,0.4,0.9,0.2s0.4-0.6,0.2-0.9c-0.2-0.3-0.6-0.4-0.9-0.2S30.6,72.1,30.8,72.4z"/>
		<path class="st16" d="M36.1,70.3c-0.8-0.6-1.7-0.8-2.6-0.7c0.1,0.9,0.6,1.8,1.4,2.3c0.8,0.6,1.7,0.8,2.6,0.7
			C37.3,71.8,36.8,70.9,36.1,70.3z"/>
		<path class="st13" d="M36.1,69.3c-0.9-0.3-1.9-0.2-2.7,0.3c0.5,0.8,1.2,1.4,2.2,1.7s1.9,0.2,2.7-0.3
			C37.8,70.2,37.1,69.6,36.1,69.3z"/>
	</g>
	<g class="st12">
		<path class="st13" d="M15.6,68.2c0.4-0.9,0.5-1.9,0.2-2.7c-0.9,0.3-1.6,0.9-2.1,1.8c-0.4,0.9-0.5,1.9-0.2,2.7
			C14.4,69.7,15.2,69.1,15.6,68.2z"/>
		<path class="st14" d="M15.9,65.5c1.4-1.9,4.1-2.4,6.1-1c1.9,1.4,2.4,4.1,1,6.1c-1.4,1.9-4.1,2.4-6.1,1
			C14.9,70.1,14.5,67.4,15.9,65.5z"/>
		<path class="st15" d="M18.7,63.7c1.1-0.2,2.3,0.1,3.2,0.8c1.9,1.4,2.4,4.1,1,6.1c-0.7,1-1.7,1.6-2.8,1.7c1.2-0.2,2-1.3,1.8-2.5
			c-0.2-1.2-1.3-2-2.5-1.8c-1.2,0.2-2.3-0.6-2.5-1.8C16.7,65,17.5,63.9,18.7,63.7z"/>
		<path class="st15" d="M19.1,70.3c0.1,0.3,0.4,0.6,0.7,0.5c0.3-0.1,0.6-0.4,0.5-0.7c-0.1-0.3-0.4-0.6-0.7-0.5
			C19.3,69.6,19.1,69.9,19.1,70.3z"/>
		<path class="st14" d="M18.4,66c0.1,0.3,0.4,0.6,0.7,0.5c0.3-0.1,0.6-0.4,0.5-0.7c-0.1-0.3-0.4-0.6-0.7-0.5
			C18.6,65.3,18.4,65.6,18.4,66z"/>
		<path class="st16" d="M24.1,66.2c-0.5-0.9-1.3-1.5-2.1-1.7c-0.2,0.9-0.1,1.9,0.3,2.7c0.5,0.9,1.3,1.5,2.1,1.7
			C24.6,68.1,24.6,67.1,24.1,66.2z"/>
		<path class="st13" d="M24.6,65.4c-0.8-0.6-1.7-0.9-2.6-0.9c0.1,0.9,0.5,1.8,1.3,2.4c0.8,0.6,1.7,0.9,2.6,0.9
			C25.7,66.9,25.3,66,24.6,65.4z"/>
	</g>
	<g class="st12">
		<path class="st13" d="M6.3,56c0.8-0.6,1.2-1.5,1.3-2.4c-0.9-0.1-1.9,0.2-2.6,0.8c-0.8,0.6-1.2,1.5-1.3,2.4
			C4.6,56.8,5.5,56.6,6.3,56z"/>
		<path class="st14" d="M7.6,53.6c2.1-1.2,4.7-0.5,6,1.6c1.2,2.1,0.5,4.7-1.6,6c-2.1,1.2-4.7,0.5-6-1.6C4.8,57.4,5.5,54.8,7.6,53.6z
			"/>
		<path class="st15" d="M10.9,53.1c1.1,0.3,2,1,2.6,2c1.2,2.1,0.5,4.7-1.6,6c-1,0.6-2.2,0.7-3.3,0.4c1.2,0.3,2.4-0.4,2.7-1.5
			s-0.4-2.4-1.5-2.7c-1.2-0.3-1.9-1.5-1.5-2.7C8.6,53.5,9.8,52.8,10.9,53.1z"/>
		<path class="st15" d="M8.6,59.3c-0.1,0.3,0.1,0.7,0.4,0.8c0.3,0.1,0.7-0.1,0.8-0.4c0.1-0.3-0.1-0.7-0.4-0.8
			C9.1,58.8,8.7,59,8.6,59.3z"/>
		<path class="st14" d="M9.8,55.1c-0.1,0.3,0.1,0.7,0.4,0.8c0.3,0.1,0.7-0.1,0.8-0.4c0.1-0.3-0.1-0.7-0.4-0.8
			C10.2,54.6,9.8,54.7,9.8,55.1z"/>
		<path class="st16" d="M14.8,57.6c-0.1-1-0.6-1.8-1.2-2.4c-0.6,0.7-0.9,1.6-0.8,2.6c0.1,1,0.6,1.8,1.2,2.4
			C14.6,59.5,14.9,58.6,14.8,57.6z"/>
		<path class="st13" d="M15.6,57c-0.4-0.9-1.2-1.5-2-1.8c-0.3,0.9-0.2,1.8,0.2,2.7c0.4,0.9,1.2,1.5,2,1.8C16.1,58.9,16,57.9,15.6,57
			z"/>
	</g>
	<g class="st12">
		<path class="st13" d="M2.7,41c0.9-0.3,1.7-0.9,2.2-1.6c-0.8-0.4-1.8-0.6-2.7-0.3c-0.9,0.3-1.7,0.9-2.2,1.6
			C0.8,41.1,1.8,41.2,2.7,41z"/>
		<path class="st14" d="M4.9,39.4c2.4-0.3,4.5,1.5,4.8,3.9c0.2,2.4-1.5,4.5-3.9,4.8c-2.4,0.3-4.5-1.5-4.8-3.9
			C0.8,41.7,2.5,39.6,4.9,39.4z"/>
		<path class="st15" d="M8.1,40.3C9,41,9.6,42,9.7,43.2c0.3,2.4-1.5,4.5-3.9,4.8c-1.2,0.1-2.3-0.2-3.2-0.9c0.9,0.8,2.3,0.6,3.1-0.3
			c0.8-0.9,0.6-2.3-0.3-3.1s-1.1-2.1-0.3-3.1C5.8,39.7,7.2,39.5,8.1,40.3z"/>
		<path class="st15" d="M3.5,45c-0.2,0.3-0.2,0.7,0.1,0.9c0.3,0.2,0.7,0.2,0.9-0.1s0.2-0.7-0.1-0.9C4.1,44.7,3.7,44.7,3.5,45z"/>
		<path class="st14" d="M6.3,41.6c-0.2,0.3-0.2,0.7,0.1,0.9s0.7,0.2,0.9-0.1s0.2-0.7-0.1-0.9C6.9,41.3,6.5,41.3,6.3,41.6z"/>
		<path class="st16" d="M9.8,46c0.3-0.9,0.2-1.9-0.1-2.7c-0.8,0.4-1.5,1.1-1.8,2.1C7.6,46.2,7.7,47.2,8,48C8.9,47.6,9.5,46.9,9.8,46
			z"/>
		<path class="st13" d="M10.8,45.7c0-1-0.4-1.9-1.1-2.5c-0.6,0.7-1,1.6-0.9,2.6c0,1,0.4,1.9,1.1,2.5C10.5,47.6,10.8,46.7,10.8,45.7z
			"/>
	</g>
	<g class="st12">
		<path class="st13" d="M5.6,25.9c1,0.2,1.9-0.1,2.7-0.6c-0.6-0.7-1.4-1.3-2.3-1.4c-1-0.2-1.9,0.1-2.7,0.6
			C3.8,25.2,4.6,25.7,5.6,25.9z"/>
		<path class="st14" d="M8.2,25.3c2.3,0.7,3.5,3.2,2.8,5.5s-3.2,3.5-5.5,2.8c-2.3-0.7-3.5-3.2-2.8-5.5C3.5,25.8,5.9,24.5,8.2,25.3z"
			/>
		<path class="st15" d="M10.8,27.4c0.5,1,0.6,2.2,0.3,3.3c-0.7,2.3-3.2,3.5-5.5,2.8c-1.1-0.4-2-1.2-2.5-2.2c0.5,1.1,1.9,1.5,2.9,0.9
			c1.1-0.6,1.5-1.9,0.9-2.9c-0.6-1.1-0.1-2.4,0.9-2.9C8.9,25.9,10.2,26.4,10.8,27.4z"/>
		<path class="st15" d="M4.7,29.8c-0.3,0.2-0.4,0.5-0.3,0.8c0.2,0.3,0.5,0.4,0.8,0.3c0.3-0.2,0.4-0.5,0.3-0.8
			C5.3,29.8,5,29.7,4.7,29.8z"/>
		<path class="st14" d="M8.5,27.9c-0.3,0.2-0.4,0.5-0.3,0.8C8.4,29,8.8,29.1,9.1,29c0.3-0.2,0.4-0.5,0.3-0.8
			C9.2,27.8,8.8,27.7,8.5,27.9z"/>
		<path class="st16" d="M10,33.3c0.7-0.7,1-1.6,1-2.6c-0.9,0-1.8,0.4-2.5,1.2s-1,1.6-1,2.6C8.5,34.4,9.4,34,10,33.3z"/>
		<path class="st13" d="M11,33.5c0.4-0.9,0.4-1.9,0-2.7c-0.8,0.4-1.5,1.1-1.9,2c-0.4,0.9-0.4,1.9,0,2.7C9.9,35.1,10.6,34.4,11,33.5z
			"/>
	</g>
	<g class="st12">
		<path class="st13" d="M14.3,13.2c0.8,0.5,1.8,0.7,2.7,0.5c-0.2-0.9-0.7-1.7-1.6-2.2c-0.8-0.5-1.8-0.7-2.7-0.5
			C12.9,11.9,13.5,12.7,14.3,13.2z"/>
		<path class="st14" d="M17,13.7c1.8,1.6,1.9,4.4,0.3,6.2c-1.6,1.8-4.4,1.9-6.2,0.3c-1.8-1.6-1.9-4.4-0.3-6.2S15.2,12.1,17,13.7z"/>
		<path class="st15" d="M18.4,16.8c0.1,1.1-0.3,2.3-1.1,3.1c-1.6,1.8-4.4,1.9-6.2,0.3c-0.9-0.8-1.4-1.9-1.4-3
			c0.1,1.2,1.1,2.1,2.3,2.1c1.2-0.1,2.1-1.1,2.1-2.3c-0.1-1.2,0.9-2.2,2.1-2.3C17.3,14.6,18.4,15.6,18.4,16.8z"/>
		<path class="st15" d="M11.9,16.5c-0.3,0-0.6,0.3-0.6,0.7c0,0.3,0.3,0.6,0.7,0.6c0.3,0,0.6-0.3,0.6-0.7
			C12.5,16.7,12.2,16.5,11.9,16.5z"/>
		<path class="st14" d="M16.2,16.3c-0.3,0-0.6,0.3-0.6,0.7c0,0.3,0.3,0.6,0.7,0.6c0.3,0,0.6-0.3,0.6-0.7
			C16.8,16.5,16.6,16.2,16.2,16.3z"/>
		<path class="st16" d="M15.4,21.8c0.9-0.4,1.6-1.1,1.9-1.9c-0.9-0.3-1.8-0.3-2.7,0c-0.9,0.4-1.6,1.1-1.9,1.9
			C13.5,22.2,14.5,22.2,15.4,21.8z"/>
		<path class="st13" d="M16.2,22.4c0.7-0.7,1.1-1.6,1.1-2.5c-0.9,0-1.8,0.3-2.5,1c-0.7,0.7-1.1,1.6-1.1,2.5
			C14.5,23.4,15.5,23.1,16.2,22.4z"/>
	</g>
	<g class="st12">
		<path class="st13" d="M27.4,5.2C28,6,28.8,6.6,29.7,6.8c0.2-0.9,0-1.9-0.5-2.7c-0.5-0.8-1.3-1.4-2.2-1.6
			C26.7,3.4,26.9,4.4,27.4,5.2z"/>
		<path class="st14" d="M29.7,6.8c1,2.2,0,4.8-2.2,5.8c-2.2,1-4.8,0-5.8-2.2c-1-2.2,0-4.8,2.2-5.8C26.1,3.6,28.7,4.6,29.7,6.8z"/>
		<path class="st15" d="M29.8,10.1c-0.4,1-1.2,1.9-2.3,2.4c-2.2,1-4.8,0-5.8-2.2C21.2,9.2,21.2,8,21.6,7c-0.4,1.1,0.1,2.4,1.3,2.8
			c1.1,0.4,2.4-0.1,2.8-1.3c0.4-1.1,1.7-1.7,2.8-1.3C29.6,7.7,30.2,9,29.8,10.1z"/>
		<path class="st15" d="M23.9,7.2c-0.3-0.1-0.7,0-0.8,0.4c-0.1,0.3,0,0.7,0.4,0.8c0.3,0.1,0.7,0,0.8-0.4C24.4,7.7,24.2,7.3,23.9,7.2
			z"/>
		<path class="st14" d="M27.9,8.8c-0.3-0.1-0.7,0-0.8,0.4c-0.1,0.3,0,0.7,0.4,0.8c0.3,0.1,0.7,0,0.8-0.4C28.4,9.2,28.3,8.9,27.9,8.8
			z"/>
		<path class="st16" d="M24.9,13.5c1,0,1.9-0.4,2.6-1c-0.6-0.6-1.5-1-2.5-1.1c-1,0-1.9,0.4-2.6,1C23,13.1,23.9,13.5,24.9,13.5z"/>
		<path class="st13" d="M25.4,14.4c0.9-0.3,1.6-1,2.1-1.8c-0.8-0.4-1.8-0.4-2.7-0.1c-0.9,0.3-1.6,1-2.1,1.8
			C23.5,14.6,24.5,14.7,25.4,14.4z"/>
	</g>
	<g class="st12">
		<path class="st13" d="M42.7,3.2c0.2,1,0.7,1.8,1.4,2.4c0.5-0.8,0.8-1.7,0.6-2.7c-0.2-1-0.7-1.8-1.4-2.4
			C42.8,1.3,42.5,2.3,42.7,3.2z"/>
		<path class="st14" d="M44.1,5.6c0,2.4-2,4.4-4.4,4.4c-2.4,0-4.4-2-4.4-4.4s2-4.4,4.4-4.4C42.1,1.2,44.1,3.2,44.1,5.6z"/>
		<path class="st15" d="M42.8,8.7c-0.8,0.8-1.9,1.3-3.1,1.3c-2.4,0-4.4-2-4.4-4.4c0-1.2,0.5-2.3,1.3-3.1c-0.9,0.9-0.9,2.2,0,3.1
			c0.9,0.9,2.2,0.9,3.1,0c0.9-0.9,2.2-0.9,3.1,0C43.7,6.4,43.7,7.8,42.8,8.7z"/>
		<path class="st15" d="M38.6,3.6c-0.2-0.2-0.6-0.2-0.9,0c-0.2,0.2-0.2,0.6,0,0.9c0.2,0.2,0.6,0.2,0.9,0C38.9,4.2,38.9,3.8,38.6,3.6
			z"/>
		<path class="st14" d="M41.7,6.7c-0.2-0.2-0.6-0.2-0.9,0c-0.2,0.2-0.2,0.6,0,0.9c0.2,0.2,0.6,0.2,0.9,0C42,7.3,42,6.9,41.7,6.7z"/>
		<path class="st16" d="M37,9.8c0.9,0.4,1.9,0.4,2.7,0.2c-0.3-0.9-1-1.6-1.9-2C37,7.5,36,7.5,35.1,7.8C35.5,8.6,36.1,9.4,37,9.8z"/>
		<path class="st13" d="M37.1,10.8c1,0.1,1.9-0.2,2.6-0.8c-0.6-0.7-1.5-1.1-2.5-1.2c-1-0.1-1.9,0.2-2.6,0.8
			C35.3,10.2,36.1,10.7,37.1,10.8z"/>
	</g>
</g>
</svg>
