<?xml version="1.0" encoding="utf-8"?>
<!-- Generator: Adobe Illustrator 23.0.1, SVG Export Plug-In . SVG Version: 6.00 Build 0)  -->
<svg version="1.1" id="Layer_1" xmlns="http://www.w3.org/2000/svg" xmlns:xlink="http://www.w3.org/1999/xlink" x="0px" y="0px"
	 viewBox="0 0 1920 1080" style="enable-background:new 0 0 1920 1080;" xml:space="preserve">
<style type="text/css">
	.st0{opacity:0.8;}
	.st1{fill:#D80027;}
	.st2{fill:#AB2300;}
	.st3{fill:#FF9811;}
	.st4{fill:#E0EBFC;}
	.st5{fill:#F9CFCF;}
	.st6{fill:#3762CC;}
	.st7{fill:#4671C6;}
	.st8{fill:#F24444;}
	.st9{fill:#FDC236;}
	.st10{fill:#37B253;}
	.st11{fill:#5F3A0F;}
	.st12{opacity:0.6;}
	.st13{fill:#79A879;}
	.st14{fill:#E5E5E5;}
	.st15{fill:#5C5E71;}
	.st16{fill:#5D895D;}
</style>
<g>
	<g>
		<g class="st0">
			<g>
				<path class="st1" d="M528.7,198.2h885.2v110.6H528.7V198.2z"/>
				<path class="st1" d="M528.7,435.2h885.2v63.2H528.7V435.2z"/>
				<g>
					<path class="st2" d="M702.6,498.5v395.2h-63.2V498.5"/>
					<path class="st2" d="M639.4,435.2V308.8h63.2v126.5"/>
					<path class="st2" d="M1303.2,498.5v395.2H1240V498.5"/>
					<path class="st2" d="M1240,435.2V308.8h63.2v126.5"/>
					<path class="st2" d="M1445.5,134.9v47.4c-21.2,5.7-42.4,10.9-63.6,15.8c-273.7,63.2-547.5,63.2-821.2,0
						c-21.2-4.9-42.4-10.1-63.6-15.8v-47.4C811.8,177.1,1130.8,177.1,1445.5,134.9z"/>
				</g>
				<path class="st3" d="M923.9,293h94.8v79h-94.8V293z"/>
			</g>
			<g>
				<path d="M1455.9,123.1c-3.4-3-8-4.4-12.5-3.8c-313.3,41.8-630.9,41.8-944.2,0c-8.7-1.2-16.6,4.9-17.8,13.6
					c-0.1,0.7-0.1,1.4-0.1,2.1v47.4c0,7.2,4.8,13.4,11.7,15.3c6.6,1.8,13.2,3.5,19.9,5.2v106c0,8.7,7.1,15.8,15.8,15.8h94.8v94.8
					h-94.8c-8.7,0-15.8,7.1-15.8,15.8v63.2c0,8.7,7.1,15.8,15.8,15.8h94.8v173.9c-8.7,0-15.8,7.1-15.8,15.8s7.1,15.8,15.8,15.8
					v158.1H497.1c-8.7,0-15.8,7.1-15.8,15.8s7.1,15.8,15.8,15.8h885.2c8.7,0,15.8-7.1,15.8-15.8s-7.1-15.8-15.8-15.8h-63.2V719.8
					c8.7,0,15.8-7.1,15.8-15.8s-7.1-15.8-15.8-15.8V514.2h94.8c8.7,0,15.8-7.1,15.8-15.8v-63.2c0-8.7-7.1-15.8-15.8-15.8h-94.8
					v-94.8h94.8c8.7,0,15.8-7.1,15.8-15.8v-106c6.6-1.7,13.3-3.4,19.9-5.2c6.9-1.8,11.7-8.1,11.7-15.3V135
					C1461.3,130.4,1459.3,126.1,1455.9,123.1z M686.8,877.8h-31.6v-158h31.6V877.8z M686.8,688.2h-31.6V514.2h31.6V688.2z
					 M1224.2,688.2c-8.7,0-15.8,7.1-15.8,15.8s7.1,15.8,15.8,15.8v158.1H718.4V719.8c8.7,0,15.8-7.1,15.8-15.8s-7.1-15.8-15.8-15.8
					V514.2h505.8V688.2z M1287.4,877.8h-31.6v-158h31.6V877.8z M1287.4,688.2h-31.6V514.2h31.6V688.2z M1398.1,451v31.6H544.5V451
					H1398.1z M655.2,419.5v-94.8h31.6v94.8H655.2z M923.9,387.8h94.8c8.7,0,15.8-7.1,15.8-15.8v-47.4h189.7v94.8H718.4v-94.8h189.7
					V372C908.1,380.8,915.2,387.8,923.9,387.8z M939.7,356.1v-47.4h63.2v47.4H939.7z M1255.8,419.5v-94.8h31.6v94.8H1255.8z
					 M1398.1,293h-363.6c0-8.7-7.1-15.8-15.8-15.8h-94.8c-8.7,0-15.8,7.1-15.8,15.8H544.5v-79H559c135.2,31.3,273.5,47.2,412.3,47.4
					c138.8-0.2,277.1-16.2,412.3-47.4h14.5L1398.1,293L1398.1,293z M1429.7,170.2c-149.6,39.2-303.7,59.3-458.4,59.6
					c-154.7-0.3-308.7-20.4-458.4-59.6V153c304.3,39,612.4,39,916.8,0V170.2z"/>
				<path d="M1445.5,877.8h-15.8c-8.7,0-15.8,7.1-15.8,15.8s7.1,15.8,15.8,15.8h15.8c8.7,0,15.8-7.1,15.8-15.8
					S1454.2,877.8,1445.5,877.8z"/>
			</g>
		</g>
		<g>
			<g>
				<path class="st4" d="M871.2,682v27.2c0,1.2,1,2.1,2.1,2.1h71.5c0,1.3,0,26.6,0,26c0,0.7,0.6,1.3,1.3,1.3h50.3
					c0.8,0,1.4-0.6,1.4-1.4v-25.9h71.5c1.2,0,2.1-1,2.1-2.1V682L871.2,682L871.2,682z"/>
			</g>
			<g>
				<path class="st5" d="M871.2,682l-12.4-4.4c-1.1-0.4-2.3,0.2-2.7,1.3c-0.3,0.9-0.1,1.9,0.7,2.4l3.5,2.7h-12.9
					c-1.7,0-3.2,1.4-3.2,3.2v10.3c0,1.5,1.1,2.8,2.6,3.1l10.5,1.9c2,0.3,4,0.1,5.9-0.6l8.2-3.3L871.2,682L871.2,682z"/>
			</g>
			<g>
				<path class="st5" d="M1071.4,682l12.4-4.4c1.1-0.4,2.3,0.2,2.7,1.3c0.3,0.9,0.1,1.9-0.7,2.4l-3.5,2.7h12.9
					c1.7,0,3.2,1.4,3.2,3.2v10.3c0,1.5-1.1,2.8-2.6,3.1l-12,2.1c-1,0.2-2,0.1-2.9-0.3l-9.6-3.9L1071.4,682L1071.4,682z"/>
			</g>
			<g>
				<path class="st6" d="M996.4,740.8h-50.3c-1.9,0-3.3-1.5-3.3-3.3c0,0,0,0,0-0.1v-23.9h-69.4c-2.3,0-4.2-1.9-4.2-4.2V682
					c0-1.2,1-2.1,2.1-2.1h200.1c1.2,0,2.1,1,2.1,2.1v27.2c0,2.3-1.9,4.2-4.2,4.2h-69.4v23.8C999.9,739.2,998.2,740.8,996.4,740.8
					L996.4,740.8z M946.9,736.5h48.7v-25.1c0-1.2,1-2.1,2.1-2.1h71.5v-25.1H873.3v25.1h71.5c1.2,0,2.1,1,2.1,2.1L946.9,736.5z"/>
			</g>
			<g>
				<path class="st6" d="M859.1,704.8c-0.8,0-1.5-0.1-2.3-0.2l-10.5-1.9c-2.5-0.5-4.3-2.6-4.3-5.2v-10.3c0-2.9,2.4-5.3,5.3-5.3h7.1
					c-0.7-1.1-0.9-2.5-0.4-3.8c0.8-2.2,3.2-3.3,5.4-2.5l12.4,4.4c0.8,0.3,1.4,1.1,1.4,2v16.5c0,0.8-0.5,1.6-1.3,1.9l-8.2,3.3
					C862.4,704.5,860.8,704.8,859.1,704.8L859.1,704.8z M847.4,686.2c-0.6,0-1,0.5-1,1v10.3c0,0.5,0.4,1,0.8,1l10.5,1.9
					c1.6,0.3,3.2,0.1,4.7-0.5l6.8-2.8v-13.6l-11-3.9l3.4,2.8c0.7,0.6,1,1.5,0.7,2.4c-0.3,0.8-1.1,1.4-2,1.4L847.4,686.2L847.4,686.2
					z"/>
			</g>
			<g>
				<path class="st6" d="M1082.9,705c-1,0-1.9-0.2-2.8-0.5l-9.6-3.9c-0.8-0.3-1.3-1.1-1.3-1.9v-16.5c0-0.9,0.6-1.7,1.4-2l12.4-4.4
					c2.2-0.8,4.6,0.3,5.4,2.5c0.5,1.3,0.3,2.7-0.4,3.8h7.1c2.9,0,5.3,2.4,5.3,5.3v10.3c0,2.6-1.8,4.8-4.3,5.2l-12,2.1
					C1083.8,705,1083.3,705,1082.9,705z M1073.4,697.2l8.2,3.3c0.6,0.3,1.2,0.3,1.7,0.2l12-2.1c0.5-0.1,0.8-0.5,0.8-1v-10.3
					c0-0.6-0.5-1-1-1h-12.9c-0.9,0-1.7-0.6-2-1.4c-0.3-0.8,0-1.8,0.7-2.4l3.5-2.7l-11.1,3.8L1073.4,697.2L1073.4,697.2z"/>
			</g>
			<g>
				<path class="st5" d="M938.4,861l-2.9,5.5c-1.1,2.1-1.7,4.5-1.7,6.9c0,1.9,1.5,3.4,3.4,3.4H955c1.9,0,3.4-1.5,3.4-3.4
					s0.1-3.5-0.6-6l-2-6.6L938.4,861L938.4,861z"/>
			</g>
			<g>
				<path class="st5" d="M1004.3,861l2.9,5.5c1.1,2.1,1.7,4.5,1.7,6.9c0,1.9-1.5,3.4-3.4,3.4h-17.8c-1.9,0-3.4-1.5-3.4-3.4
					s-0.1-3.5,0.6-6l2-6.6L1004.3,861L1004.3,861L1004.3,861z"/>
			</g>
			<g>
				<path class="st4" d="M945.6,752.2l-14.7,106.4c-0.2,1.3,0.8,2.4,2.1,2.4h27.5c1.1,0,2-0.8,2.1-1.9l8.7-88.2l8.7,88.2
					c0.1,1.1,1,1.9,2.1,1.9h27.5c1.3,0,2.3-1.2,2.1-2.4L997,752.2H945.6z"/>
			</g>
			<g>
				<path class="st6" d="M1009.7,863.2h-27.5c-2.2,0-4-1.6-4.2-3.8l-6.7-67.1l-6.6,67.1c-0.2,2.2-2,3.8-4.2,3.8H933
					c-1.2,0-2.4-0.5-3.2-1.4c-0.8-0.9-1.2-2.1-1-3.3L943.5,752c0.1-1,1-1.8,2.1-1.8H997c1,0,1.9,0.8,2.1,1.8l14.7,106.4
					c0.2,1.2-0.2,2.4-1,3.3C1011.9,862.7,1010.9,863.2,1009.7,863.2L1009.7,863.2z M971.4,768.8c1.1,0,2,0.8,2.1,1.9l8.7,88.2h27.5
					l-14.4-104.6h-47.8l-14.4,104.6h27.5l8.7-88.2C969.4,769.7,970.3,768.8,971.4,768.8L971.4,768.8z"/>
			</g>
			<g>
				<path class="st4" d="M1000.4,764.5c0.9,0,1.5-0.8,1.3-1.7l-3.7-15.2c-0.1-0.6-0.7-1-1.3-1H946c-0.6,0-1.2,0.5-1.3,1l-3.7,15.2
					c-0.2,0.8,0.5,1.7,1.3,1.7C980.8,764.5,1001.1,764.5,1000.4,764.5z"/>
			</g>
			<g>
				<path class="st6" d="M942.2,766.7c-1.1,0-2.1-0.5-2.7-1.4c-0.6-0.8-0.9-1.9-0.6-3l3.7-15.2c0.4-1.5,1.7-2.6,3.3-2.6h50.7
					c1.6,0,3,1.1,3.3,2.6l3.7,15.2c0.3,1,0,2.1-0.6,3c-0.6,0.8-1.7,1.4-2.7,1.4l0,0l0,0H942.2z M946.5,748.8l-3.4,13.6h56.3
					l-3.4-13.6H946.5z"/>
			</g>
			<g>
				<path class="st6" d="M948.3,740.8c-0.4,0-0.8-0.1-1.1-0.3c-1-0.6-1.3-1.9-0.7-2.9l34.1-56.6c0.6-1,1.9-1.4,2.9-0.7
					c1,0.6,1.3,1.9,0.7,2.9l-34.1,56.6C949.7,740.5,949,740.8,948.3,740.8L948.3,740.8z"/>
			</g>
			<g>
				<path class="st5" d="M960.2,673.7v8.5l9.6,21l12.7-21v-4.3v-4.2H960.2z"/>
			</g>
			<g>
				<path class="st6" d="M969.8,705.2C969.7,705.2,969.7,705.2,969.8,705.2c-0.9-0.1-1.6-0.5-1.9-1.2l-9.6-21
					c-0.1-0.3-0.2-0.6-0.2-0.9v-8.5c0-1.2,1-2.1,2.1-2.1h22.3c1.2,0,2.1,1,2.1,2.1v8.5c0,0.4-0.1,0.8-0.3,1.1l-12.7,21
					C971.2,704.8,970.5,705.2,969.8,705.2L969.8,705.2z M962.3,681.7l7.7,17l10.3-17.1v-5.8h-18V681.7L962.3,681.7z"/>
			</g>
			<g>
				<path class="st7" d="M971.3,672.8c-15.6,0-28.1-12.6-28.1-28.1v-9c0-2.6,2.1-4.6,4.6-4.6h51.6v13.6
					C999.4,660.2,986.9,672.8,971.3,672.8z"/>
			</g>
			<g>
				<path class="st6" d="M971.3,674.8c-16.7,0-30.2-13.6-30.2-30.2v-9c0-3.7,3-6.8,6.8-6.8h51.6c1.2,0,2.1,1,2.1,2.1v13.6
					C1001.5,661.3,988,674.8,971.3,674.8z M947.8,633.2c-1.4,0-2.5,1.2-2.5,2.5v9c0,14.3,11.6,26,26,26c14.3,0,26-11.6,26-26v-11.5
					H947.8z"/>
			</g>
			<g>
				<path class="st5" d="M995.2,647.8v-2.3c0-13.1-10.7-23.7-23.9-23.7c-13.2,0-23.9,10.6-23.9,23.7v2.3c-4.2-0.1-7.5,3.2-7.5,7.2
					c0,4.2,3.7,7.7,8.1,7.2c2.4,10.5,12,18.3,23.3,18.3s20.8-7.8,23.3-18.3c4.4,0.5,8.1-2.9,8.1-7.2
					C1002.7,651,999.4,647.7,995.2,647.8L995.2,647.8z"/>
			</g>
			<g>
				<path class="st6" d="M983.7,660c-1.7,0-3-1.4-3-3v-3.2c0-1.7,1.4-3,3-3c1.7,0,3,1.4,3,3v3.2C986.7,658.5,985.4,660,983.7,660z"
					/>
			</g>
			<g>
				<path class="st6" d="M958.9,660c-1.7,0-3-1.4-3-3v-3.2c0-1.7,1.4-3,3-3c1.7,0,3,1.4,3,3v3.2C961.9,658.5,960.6,660,958.9,660z"
					/>
			</g>
			<g>
				<path class="st6" d="M971.3,682.7c-11.6,0-21.6-7.5-25-18.3c-2.1-0.2-4-1-5.5-2.4c-2-1.8-3.1-4.3-3.1-6.9c0-2.5,1-4.9,2.8-6.6
					c1.3-1.3,2.9-2.1,4.6-2.5v-0.3c0-14.3,11.7-25.9,26-25.9s26,11.6,26,25.9v0.3c1.7,0.4,3.3,1.2,4.6,2.5c1.8,1.8,2.8,4.1,2.8,6.6
					c0,2.6-1.2,5.1-3.1,6.9c-1.5,1.4-3.5,2.2-5.5,2.4C992.9,675.2,982.9,682.7,971.3,682.7z M948,660c1,0,1.8,0.6,2.1,1.6
					c2.3,9.8,11.1,16.7,21.3,16.7c10.2,0,19-6.9,21.3-16.7c0.3-1,1.2-1.7,2.3-1.6c1.5,0.2,3-0.3,4.1-1.3s1.7-2.3,1.7-3.8
					c0-1.4-0.5-2.7-1.5-3.7s-2.3-1.5-3.8-1.5c-0.6,0-1.1-0.2-1.5-0.6c-0.4-0.4-0.6-1-0.6-1.5v-2.3c0-11.9-9.8-21.6-21.9-21.6
					c-12,0-21.9,9.7-21.9,21.6v2.3c0,0.6-0.3,1.1-0.6,1.5c-0.4,0.4-1,0.6-1.5,0.6c-1.4,0-2.8,0.5-3.8,1.5s-1.5,2.3-1.5,3.7
					c0,1.5,0.6,2.8,1.7,3.8S946.5,660.2,948,660C947.8,660,947.9,660,948,660L948,660z"/>
			</g>
			<g>
				<path class="st7" d="M958.4,643.8h32.7c4.6,0,8.3-3.7,8.3-8.3v-7.2c0-8.1-6.6-14.7-14.7-14.7h-23.9c-8.1,0-14.7,6.6-14.7,14.7
					v3.2C946.2,638.2,951.7,643.8,958.4,643.8z"/>
			</g>
			<g>
				<path class="st6" d="M991.2,645.8h-32.7c-7.9,0-14.3-6.4-14.3-14.3v-3.3c0-9.3,7.5-16.8,16.8-16.8h23.9
					c9.3,0,16.8,7.5,16.8,16.8v7.1C1001.5,641.2,996.9,645.8,991.2,645.8z M960.9,615.8c-6.9,0-12.5,5.7-12.5,12.5v3.2
					c0,5.6,4.6,10.1,10.1,10.1h32.7c3.4,0,6.2-2.8,6.2-6.2v-7.1c0-6.9-5.7-12.5-12.5-12.5H960.9L960.9,615.8z"/>
			</g>
			<g>
				<path class="st6" d="M971.3,670c-1,0-1.9-0.1-2.8-0.4c-1.4-0.4-2.6-1.1-3.5-2.1c-0.6-0.6-0.6-1.6,0-2.3c0.6-0.6,1.6-0.6,2.3,0
					c0.5,0.5,1.3,1,2.1,1.2c0.5,0.1,1.1,0.3,1.8,0.3c0.7,0,1.3-0.1,1.8-0.3c0.8-0.3,1.6-0.7,2.1-1.2c0.6-0.6,1.6-0.6,2.3,0
					c0.6,0.6,0.6,1.6,0,2.3c-0.9,0.9-2.1,1.6-3.5,2.1C973.2,670,972.3,670,971.3,670L971.3,670z"/>
			</g>
			<g>
				<path class="st7" d="M969,738.7h-6.7l-6,32.1H969V738.7z"/>
			</g>
			<g>
				<path class="st7" d="M973.5,738.7h6.7l6,32.1h-12.7V738.7z"/>
			</g>
			<g>
				<path class="st6" d="M969,773h-12.7c-0.6,0-1.2-0.3-1.6-0.8s-0.6-1.1-0.5-1.7l6-32.1c0.2-1,1-1.7,2.1-1.7h6.7
					c1.2,0,2.1,1,2.1,2.1v32.1C971.2,772,970.2,773,969,773z M958.9,768.7h8v-27.9h-2.8L958.9,768.7z"/>
			</g>
			<g>
				<path class="st6" d="M986.2,773h-12.7c-1.2,0-2.1-1-2.1-2.1v-32.1c0-1.2,1-2.1,2.1-2.1h6.7c1,0,1.9,0.7,2.1,1.7l6,32.1
					c0.1,0.6-0.1,1.2-0.5,1.7C987.4,772.7,986.9,773,986.2,773L986.2,773z M975.6,768.7h8l-5.3-27.9h-2.8L975.6,768.7L975.6,768.7z"
					/>
			</g>
			<g>
				<path class="st7" d="M946.6,738.7H996v8h-49.4V738.7z"/>
			</g>
			<g>
				<path class="st6" d="M996,748.8h-49.4c-1.2,0-2.1-1-2.1-2.1v-8c0-1.2,1-2.1,2.1-2.1H996c1.2,0,2.1,1,2.1,2.1v8
					C998.1,747.8,997.2,748.8,996,748.8z M948.7,744.5h45.2v-3.7h-45.2V744.5z"/>
			</g>
			<g>
				<path class="st6" d="M955.1,879h-17.8c-3,0-5.5-2.4-5.5-5.5c0-2.8,0.7-5.5,1.9-7.9l2.9-5.5c0.4-0.7,1.1-1.2,1.9-1.2h17.4
					c0.9,0,1.7,0.6,2,1.5l2,6.6c0.7,2.4,0.7,4.2,0.7,6v0.6C960.6,876.5,958.1,879,955.1,879L955.1,879z M939.7,863.2l-2.3,4.4
					c-1,1.8-1.5,3.9-1.5,6c0,0.7,0.6,1.3,1.3,1.3H955c0.7,0,1.3-0.6,1.3-1.3V873c0-1.6,0-3-0.5-4.8l-1.5-5L939.7,863.2L939.7,863.2z
					"/>
			</g>
			<g>
				<path class="st6" d="M1005.5,879h-17.8c-3,0-5.5-2.4-5.5-5.5V873c0-1.7,0-3.5,0.7-6l2-6.6c0.3-0.9,1.1-1.5,2-1.5h17.4
					c0.8,0,1.5,0.5,1.9,1.2l2.9,5.5c1.3,2.4,1.9,5.1,1.9,7.9C1011,876.5,1008.5,879,1005.5,879z M988.5,863.2l-1.5,5
					c-0.6,1.9-0.6,3.2-0.5,4.8v0.6c0,0.7,0.6,1.3,1.3,1.3h17.8c0.7,0,1.3-0.6,1.3-1.3c0-2.1-0.5-4.1-1.5-6l-2.3-4.4L988.5,863.2
					L988.5,863.2z"/>
			</g>
			<g>
				<path class="st8" d="M899,632.3l3.8-3.8c1.2-1.2,0.5-3.3-1.2-3.5l-21.5-3.5c-1.4-0.3-2.6,1-2.4,2.4l3.5,21.5
					c0.3,1.7,2.4,2.4,3.5,1.2l3.8-3.8l32.5,32.5c0.8,0.8,2.2,0.8,3,0l7.5-7.5c0.8-0.8,0.8-2.2,0-3L899,632.3z"/>
			</g>
			<g>
				<path class="st9" d="M1014.6,675.2c0.8,0.8,2.2,0.8,3,0l32.5-32.5l3.8,3.8c1.2,1.2,3.3,0.5,3.5-1.2l3.5-21.5
					c0.3-1.4-1-2.6-2.4-2.4l-21.5,3.5c-1.7,0.3-2.4,2.4-1.2,3.5l3.8,3.8l-32.5,32.5c-0.8,0.8-0.8,2.2,0,3L1014.6,675.2z"/>
			</g>
			<g>
				<path class="st10" d="M1057.4,751.2c-0.3-1.7-2.4-2.4-3.5-1.2l-3.8,3.8l-32.5-32.5c-0.8-0.8-2.2-0.8-3,0l-7.5,7.5
					c-0.8,0.8-0.8,2.2,0,3l32.5,32.5l-3.8,3.8c-1.2,1.2-0.5,3.3,1.2,3.5l21.5,3.5c1.4,0.3,2.6-1,2.4-2.4L1057.4,751.2z"/>
			</g>
			<g>
				<path class="st11" d="M924,721.5c-0.8-0.8-2.2-0.8-3,0L888.5,754l-3.8-3.8c-1.2-1.2-3.3-0.5-3.5,1.2l-3.5,21.5
					c-0.3,1.4,1,2.6,2.4,2.4l21.5-3.5c1.7-0.3,2.4-2.4,1.2-3.5l-3.8-3.8l32.5-32.5c0.8-0.8,0.8-2.2,0-3L924,721.5z"/>
			</g>
		</g>
	</g>
	<g class="st12">
		<path class="st13" d="M1178.4,133.8c-3.2,11.9-1.4,24,4.1,34.1c9.8-5.9,17.4-15.5,20.6-27.4s1.4-24-4.1-34.1
			C1189.2,112.3,1181.6,121.8,1178.4,133.8z"/>
		<path class="st14" d="M1182.5,167.8c-12.3,27.6-44.6,40-72.1,27.7c-27.6-12.3-40-44.6-27.7-72.1c12.3-27.6,44.6-40,72.1-27.7
			C1182.3,108,1194.7,140.3,1182.5,167.8z"/>
		<path class="st15" d="M1152.1,196.6c-13,5-28,5-41.8-1.1c-27.6-12.3-40-44.6-27.7-72.1c6.1-13.8,17.3-23.8,30.3-28.8
			c-14.1,5.4-21.1,21.2-15.7,35.3s21.2,21.1,35.3,15.7c14.1-5.4,29.9,1.6,35.3,15.7S1166.2,191.2,1152.1,196.6z"/>
		<path class="st15" d="M1130.1,117.3c-1.5-4-6.1-6.1-10.1-4.5c-4,1.5-6.1,6.1-4.5,10.1c1.5,4,6.1,6.1,10.1,4.5
			C1129.6,125.9,1131.6,121.3,1130.1,117.3z"/>
		<path class="st14" d="M1149.7,168.3c-1.5-4-6.1-6.1-10.1-4.5c-4,1.5-6.1,6.1-4.5,10.1c1.5,4,6.1,6.1,10.1,4.5
			C1149.2,176.9,1151.2,172.4,1149.7,168.3z"/>
		<path class="st16" d="M1079.8,179.9c8.1,9.3,19.1,14.6,30.5,15.7c0.6-11.4-3.1-23.1-11.2-32.4s-19.1-14.6-30.5-15.7
			C1068,158.9,1071.7,170.5,1079.8,179.9z"/>
		<path class="st13" d="M1076.2,191.7c10.9,5.9,23.1,6.9,34.1,3.8c-3.5-10.9-11.1-20.5-22-26.3c-10.9-5.9-23.1-6.9-34.1-3.8
			C1057.8,176.2,1065.4,185.8,1076.2,191.7z"/>
	</g>
	<g class="st12">
		<path class="st13" d="M1324.7,259.2c-7.8,9.6-11.1,21.4-10.2,32.8c11.4-1.4,22.2-7.1,30-16.6c7.8-9.6,11.1-21.4,10.2-32.8
			C1343.4,244.1,1332.5,249.7,1324.7,259.2z"/>
		<path class="st14" d="M1314.6,292c-22.4,20.2-57,18.4-77.2-4s-18.4-57,4-77.2s57-18.4,77.2,4C1338.8,237.3,1337,271.9,1314.6,292z
			"/>
		<path class="st15" d="M1275.2,306c-14-0.7-27.6-6.8-37.7-18c-20.2-22.4-18.4-57,4-77.2c11.2-10.1,25.5-14.7,39.4-14
			c-15.1-0.8-27.9,10.8-28.7,25.8s10.8,27.9,25.8,28.7c15.1,0.8,26.6,13.6,25.8,28.7S1290.2,306.8,1275.2,306z"/>
		<path class="st15" d="M1287.3,224.6c0.2-4.3-3.1-8-7.4-8.2s-8,3.1-8.2,7.4c-0.2,4.3,3.1,8,7.4,8.2
			C1283.4,232.2,1287.1,228.9,1287.3,224.6z"/>
		<path class="st14" d="M1284.4,279.1c0.2-4.3-3.1-8-7.4-8.2s-8,3.1-8.2,7.4s3.1,8,7.4,8.2S1284.2,283.5,1284.4,279.1z"/>
		<path class="st16" d="M1215.9,261.2c3.6,11.8,11.5,21.1,21.5,26.7c5.2-10.2,6.5-22.4,2.9-34.2c-3.6-11.8-11.5-21.1-21.5-26.7
			C1213.7,237.3,1212.3,249.5,1215.9,261.2z"/>
		<path class="st13" d="M1207.8,270.6c7.6,9.8,18.3,15.7,29.6,17.4c1.2-11.4-1.8-23.2-9.4-33c-7.6-9.8-18.3-15.7-29.6-17.4
			C1197.3,249,1200.3,260.9,1207.8,270.6z"/>
	</g>
	<g class="st12">
		<path class="st13" d="M1407.4,433.5c-11,5.6-18.8,15-22.6,25.8c11,3.3,23.2,2.6,34.2-3s18.8-15,22.6-25.8
			C1430.6,427.1,1418.4,427.9,1407.4,433.5z"/>
		<path class="st14" d="M1384.8,459.2c-28.7,9.3-59.5-6.4-68.8-35.1s6.4-59.5,35.1-68.8s59.5,6.4,68.8,35.1
			C1429.2,419.1,1413.5,450,1384.8,459.2z"/>
		<path class="st15" d="M1343.1,456c-12.5-6.3-22.5-17.4-27.2-31.8c-9.3-28.7,6.4-59.5,35.1-68.8c14.3-4.7,29.2-3.1,41.7,3.3
			c-13.4-6.8-29.9-1.5-36.7,11.9s-1.5,29.9,11.9,36.7c13.4,6.8,18.8,23.3,11.9,36.7S1356.5,462.9,1343.1,456z"/>
		<path class="st15" d="M1387.3,386.5c2-3.9,0.4-8.6-3.4-10.5c-3.9-2-8.6-0.4-10.6,3.4c-2,3.9-0.4,8.6,3.4,10.5
			C1380.6,391.9,1385.3,390.4,1387.3,386.5z"/>
		<path class="st14" d="M1362.5,435.1c2-3.9,0.4-8.6-3.4-10.5s-8.6-0.4-10.5,3.4c-2,3.9-0.4,8.6,3.4,10.5
			C1355.8,440.5,1360.5,439,1362.5,435.1z"/>
		<path class="st16" d="M1307.1,391c-1.5,12.3,1.9,24,8.8,33.2c8.9-7.2,15.1-17.8,16.6-30c1.5-12.3-1.9-24-8.8-33.2
			C1314.8,368.2,1308.6,378.8,1307.1,391z"/>
		<path class="st13" d="M1295.9,396.2c2.9,12,10.3,21.8,20,27.9c5.7-9.9,7.8-22,4.9-34s-10.3-21.8-20-27.9
			C1295.1,372.2,1293,384.2,1295.9,396.2z"/>
	</g>
	<g class="st12">
		<path class="st13" d="M1412,626.2c-12.3,0.6-23.3,6.1-31.1,14.4c8.7,7.5,20.1,11.8,32.4,11.2s23.3-6.1,31.1-14.4
			C1435.8,629.8,1424.4,625.5,1412,626.2z"/>
		<path class="st14" d="M1380.9,640.5c-30-3.2-51.8-30-48.6-60c3.2-30,30-51.8,60-48.6s51.8,30,48.6,60S1410.9,643.8,1380.9,640.5z"
			/>
		<path class="st15" d="M1344.1,620.7c-8.8-10.9-13.5-25.1-11.9-40.1c3.2-30,30-51.8,60-48.6c15,1.6,27.9,9.1,36.7,19.9
			c-9.5-11.7-26.7-13.5-38.4-4c-11.7,9.5-13.5,26.7-4,38.4s7.7,28.9-4,38.4C1370.8,634.2,1353.6,632.3,1344.1,620.7z"/>
		<path class="st15" d="M1412.7,575.2c3.4-2.7,3.9-7.7,1.2-11s-7.7-3.9-11-1.2c-3.4,2.7-3.9,7.7-1.2,11
			C1404.4,577.3,1409.4,577.8,1412.7,575.2z"/>
		<path class="st14" d="M1370.3,609.5c3.4-2.7,3.9-7.7,1.2-11c-2.7-3.4-7.7-3.9-11-1.2c-3.4,2.7-3.9,7.7-1.2,11
			S1366.9,612.2,1370.3,609.5z"/>
		<path class="st16" d="M1337.7,546.7c-6.4,10.6-8,22.7-5.5,33.9c11.1-3,21-10.1,27.4-20.7c6.4-10.6,8-22.7,5.5-33.9
			C1354,529,1344.1,536,1337.7,546.7z"/>
		<path class="st13" d="M1325.3,547c-2.2,12.2,0.6,24.1,6.9,33.6c9.3-6.7,16.1-16.9,18.3-29c2.2-12.2-0.6-24.1-6.9-33.6
			C1334.3,524.5,1327.5,534.8,1325.3,547z"/>
	</g>
	<g class="st12">
		<path class="st13" d="M1337.8,804.2c-11.5-4.4-23.7-3.9-34.3,0.5c4.9,10.4,13.6,18.9,25.1,23.4c11.5,4.4,23.7,3.9,34.3-0.5
			C1358.1,817.2,1349.4,808.5,1337.8,804.2z"/>
		<path class="st14" d="M1303.5,804.7c-26.1-15.1-35.1-48.5-20-74.6s48.5-35.1,74.6-20s35.1,48.5,20,74.6S1329.7,819.7,1303.5,804.7
			z"/>
		<path class="st15" d="M1278.1,771.5c-3.6-13.5-2.1-28.4,5.5-41.5c15.1-26.1,48.5-35.1,74.6-20c13.1,7.5,21.8,19.7,25.5,33.2
			c-3.9-14.6-18.9-23.2-33.5-19.3s-23.2,18.9-19.3,33.5c3.9,14.6-4.7,29.6-19.3,33.5C1297,794.7,1282,786,1278.1,771.5z"/>
		<path class="st15" d="M1359.3,757.8c4.2-1.1,6.7-5.4,5.5-9.6c-1.1-4.2-5.4-6.7-9.6-5.5c-4.2,1.1-6.7,5.4-5.5,9.6
			C1350.8,756.5,1355.1,759,1359.3,757.8z"/>
		<path class="st14" d="M1306.5,772c4.2-1.1,6.7-5.4,5.5-9.6c-1.1-4.2-5.4-6.7-9.6-5.5c-4.2,1.1-6.7,5.4-5.5,9.6
			C1298,770.5,1302.3,773,1306.5,772z"/>
		<path class="st16" d="M1302.3,701.2c-10.1,7.1-16.5,17.5-18.8,28.7c11.3,1.8,23.3-0.7,33.4-7.8s16.5-17.5,18.8-28.7
			C1324.4,691.8,1312.4,694.2,1302.3,701.2z"/>
		<path class="st13" d="M1290.9,696.5c-7,10.2-9.3,22.2-7.4,33.5c11.2-2.4,21.5-8.9,28.5-19.1c7-10.2,9.3-22.2,7.4-33.5
			C1308.2,679.8,1297.9,686.2,1290.9,696.5z"/>
	</g>
	<g class="st12">
		<path class="st13" d="M1197.7,936.5c-8.7-8.8-20.1-13.2-31.5-13.5c0.2,11.5,4.7,22.8,13.4,31.6c8.7,8.8,20.1,13.2,31.5,13.5
			C1210.9,956.7,1206.4,945.3,1197.7,936.5z"/>
		<path class="st14" d="M1166.2,923c-17.7-24.4-12.3-58.6,12.1-76.3s58.6-12.3,76.3,12.1c17.7,24.4,12.3,58.6-12.1,76.3
			S1183.9,947.5,1166.2,923z"/>
		<path class="st15" d="M1156.4,882.3c2.2-13.8,9.6-26.8,21.8-35.6c24.4-17.7,58.6-12.3,76.3,12.1c8.9,12.2,11.9,26.9,9.8,40.7
			c2.4-14.9-7.8-28.9-22.7-31.3c-14.9-2.4-28.9,7.8-31.3,22.7s-16.4,25.1-31.3,22.7C1164.2,911.2,1154.1,897.2,1156.4,882.3z"/>
		<path class="st15" d="M1236.1,903c4.3,0.7,8.3-2.2,9-6.5s-2.2-8.3-6.5-9s-8.3,2.2-9,6.5S1231.9,902.2,1236.1,903z"/>
		<path class="st14" d="M1182.2,894.3c4.3,0.7,8.3-2.2,9-6.5s-2.2-8.3-6.5-9s-8.3,2.2-9,6.5C1175,889.7,1177.9,893.8,1182.2,894.3z"
			/>
		<path class="st16" d="M1207.1,828.2c-12.1,2.4-22.2,9.3-28.8,18.6c9.6,6.2,21.6,8.9,33.7,6.5s22.2-9.3,28.8-18.6
			C1231.2,828.5,1219.2,825.8,1207.1,828.2z"/>
		<path class="st13" d="M1198.6,819.2c-10.5,6.5-17.5,16.5-20.4,27.6c11.2,2.4,23.3,0.6,33.8-5.9s17.5-16.5,20.4-27.6
			C1221.2,810.8,1209.1,812.7,1198.6,819.2z"/>
	</g>
	<g class="st12">
		<path class="st13" d="M1015.8,1000.6c-4.4-11.5-13-20.3-23.3-25.2c-4.4,10.6-5,22.8-0.6,34.3s13,20.3,23.3,25.2
			C1019.7,1024.2,1020.3,1012.1,1015.8,1000.6z"/>
		<path class="st14" d="M992.5,975.3c-6.3-29.5,12.6-58.5,42.1-64.8s58.5,12.6,64.8,42.1s-12.6,58.5-42.1,64.8
			S998.8,1004.8,992.5,975.3z"/>
		<path class="st15" d="M1000.1,934.2c7.6-11.7,19.7-20.5,34.5-23.7c29.5-6.3,58.5,12.6,64.8,42.1c3.1,14.7,0,29.4-7.6,41.1
			c8.2-12.7,4.6-29.6-8-37.8c-12.7-8.2-29.6-4.6-37.8,8c-8.2,12.7-25.1,16.2-37.8,8C995.5,963.8,991.9,946.8,1000.1,934.2z"/>
		<path class="st15" d="M1064.6,985.5c3.6,2.4,8.5,1.3,10.8-2.3c2.4-3.6,1.3-8.5-2.3-10.9c-3.6-2.4-8.5-1.3-10.8,2.3
			C1059.9,978.2,1061,983,1064.6,985.5z"/>
		<path class="st14" d="M1018.8,955.7c3.6,2.4,8.5,1.3,10.8-2.3c2.4-3.6,1.3-8.5-2.3-10.8s-8.5-1.3-10.8,2.3
			C1014.1,948.5,1015.2,953.3,1018.8,955.7z"/>
		<path class="st16" d="M1068.5,905.2c-12-2.8-24.1-0.6-33.9,5.3c6.3,9.6,16.1,16.9,28.1,19.6c12,2.8,24.1,0.6,33.9-5.3
			C1090.4,915.3,1080.5,908,1068.5,905.2z"/>
		<path class="st13" d="M1064.4,893.5c-12.2,1.7-22.7,8-29.8,17c9.3,6.7,21,10.1,33.3,8.4c12.2-1.7,22.7-8,29.8-17
			C1088.5,895.2,1076.7,892,1064.4,893.5z"/>
	</g>
	<g class="st12">
		<path class="st13" d="M823.7,985c0.7-12.3-3.6-23.8-11.1-32.5c-8.4,7.8-13.8,18.8-14.5,31.1c-0.7,12.3,3.6,23.8,11.1,32.5
			C817.5,1008.2,823,997.3,823.7,985z"/>
		<path class="st14" d="M812.6,952.5c6.3-29.5,35.3-48.3,64.8-42.1s48.3,35.3,42.1,64.8s-35.3,48.3-64.8,42.1S806.3,982,812.6,952.5
			z"/>
		<path class="st15" d="M836.3,918c11.7-7.6,26.3-10.8,41.1-7.6c29.5,6.3,48.3,35.3,42.1,64.8c-3.1,14.7-12,26.8-23.7,34.5
			c12.7-8.2,16.2-25.1,8-37.8s-25.1-16.2-37.8-8c-12.7,8.2-29.6,4.6-37.8-8C820,943.2,823.6,926.2,836.3,918z"/>
		<path class="st15" d="M874.4,991c2.4,3.6,7.2,4.7,10.8,2.3c3.6-2.4,4.7-7.2,2.3-10.9c-2.4-3.6-7.2-4.7-10.8-2.3
			C873,982.5,872,987.5,874.4,991z"/>
		<path class="st14" d="M844.6,945.2c2.4,3.6,7.2,4.7,10.8,2.3c3.6-2.4,4.7-7.2,2.3-10.8c-2.4-3.6-7.2-4.7-10.8-2.3
			S842.3,941.5,844.6,945.2z"/>
		<path class="st16" d="M910.5,919.3c-9.9-7.4-21.7-10.3-33.1-9c1.8,11.3,7.9,22,17.7,29.4c9.9,7.4,21.7,10.3,33.1,9
			C926.4,937.5,920.4,926.8,910.5,919.3z"/>
		<path class="st13" d="M911.6,907c-11.9-3.5-24-1.9-34.2,3.4c5.7,9.9,15.1,17.7,27,21.2s24,1.9,34.2-3.4
			C932.8,918.3,923.4,910.5,911.6,907z"/>
	</g>
	<g class="st12">
		<path class="st13" d="M654.4,892.7c5.6-11,6.4-23.2,3.1-34.2c-10.8,3.8-20.3,11.5-25.9,22.5c-5.6,11-6.4,23.2-3.1,34.2
			C639.4,911.3,648.8,903.7,654.4,892.7z"/>
		<path class="st14" d="M657.5,858.5c17.7-24.4,51.9-29.8,76.3-12.1s29.8,51.9,12.1,76.3c-17.7,24.4-51.9,29.8-76.3,12.1
			C645.2,917,639.8,882.8,657.5,858.5z"/>
		<path class="st15" d="M693.2,836.7c13.8-2.2,28.4,0.9,40.7,9.8c24.4,17.7,29.8,51.9,12.1,76.3c-8.9,12.2-21.8,19.7-35.6,21.8
			c14.9-2.4,25.1-16.4,22.7-31.3c-2.4-14.9-16.4-25.1-31.3-22.7c-14.9,2.4-28.9-7.8-31.3-22.7C668.1,853,678.3,839,693.2,836.7z"/>
		<path class="st15" d="M698.3,918.8c0.7,4.3,4.7,7.2,9,6.5c4.3-0.7,7.2-4.7,6.5-9c-0.7-4.3-4.7-7.2-9-6.5
			C700.5,910.5,697.6,914.5,698.3,918.8z"/>
		<path class="st14" d="M689.7,864.8c0.7,4.3,4.7,7.2,9,6.5c4.3-0.7,7.2-4.7,6.5-9c-0.7-4.3-4.7-7.2-9-6.5
			C692,856.5,689.1,860.5,689.7,864.8z"/>
		<path class="st16" d="M760.5,868c-6-10.8-15.7-18.3-26.6-21.7c-2.9,11.1-1.8,23.2,4.2,34.1c6,10.8,15.7,18.3,26.6,21.7
			C767.6,891,766.4,878.8,760.5,868z"/>
		<path class="st13" d="M766.4,857.2c-9.4-8-21.1-11.5-32.6-10.8c1.2,11.4,6.6,22.3,16,30.3s21.1,11.5,32.6,10.8
			C781.3,876.2,775.8,865.2,766.4,857.2z"/>
	</g>
	<g class="st12">
		<path class="st13" d="M537.4,739.5c9.6-7.8,15.3-18.6,16.7-29.9c-11.4-1-23.2,2.3-32.8,10c-9.6,7.8-15.3,18.6-16.7,29.9
			C516,750.5,527.8,747.2,537.4,739.5z"/>
		<path class="st14" d="M554.1,709.5c26.1-15.1,59.5-6.1,74.6,20s6.1,59.5-20,74.6s-59.5,6.1-74.6-20
			C519.1,758,528,724.5,554.1,709.5z"/>
		<path class="st15" d="M595.6,704c13.5,3.6,25.6,12.4,33.2,25.5c15.1,26.1,6.1,59.5-20,74.6c-13.1,7.5-28,9.1-41.5,5.5
			c14.6,3.9,29.6-4.7,33.5-19.3s-4.7-29.6-19.3-33.5s-23.2-18.9-19.3-33.5C566,708.8,581,700.2,595.6,704z"/>
		<path class="st15" d="M566.8,781.2c-1.1,4.2,1.4,8.5,5.5,9.6c4.2,1.1,8.5-1.4,9.6-5.5c1.1-4.2-1.4-8.5-5.5-9.6
			C572.2,774.5,567.9,777,566.8,781.2z"/>
		<path class="st14" d="M581,728.3c-1.1,4.2,1.4,8.5,5.5,9.6s8.5-1.4,9.6-5.5c1.1-4.2-1.4-8.5-5.5-9.6
			C586.4,721.8,582.1,724.2,581,728.3z"/>
		<path class="st16" d="M644.3,760c-1.1-12.3-6.9-23.1-15.5-30.6c-7.2,8.9-11.1,20.5-10,32.8s6.9,23.1,15.5,30.6
			C641.5,784,645.3,772.3,644.3,760z"/>
		<path class="st13" d="M654.1,752.7c-5.4-11.1-14.6-19.1-25.3-23.1c-3.5,10.9-3.1,23.1,2.3,34.2c5.4,11.1,14.6,19.1,25.3,23.1
			C659.9,776,659.5,763.8,654.1,752.7z"/>
	</g>
	<g class="st12">
		<path class="st13" d="M492.8,551.8c11.9-3.2,21.5-10.8,27.5-20.5c-10-5.5-22.1-7.3-34.1-4.2c-11.9,3.2-21.5,10.8-27.5,20.5
			C468.8,553.2,480.8,555,492.8,551.8z"/>
		<path class="st14" d="M520.3,531.3c30-3.2,56.9,18.6,60,48.6s-18.6,56.9-48.6,60c-30,3.2-56.9-18.6-60-48.6
			C468.5,561.3,490.3,534.5,520.3,531.3z"/>
		<path class="st15" d="M560.4,543.2c10.9,8.8,18.4,21.7,19.9,36.7c3.2,30-18.6,56.9-48.6,60c-15,1.6-29.2-3.1-40.1-11.9
			c11.7,9.5,28.9,7.7,38.4-4s7.7-28.9-4-38.4c-11.7-9.5-13.5-26.7-4-38.4C531.4,535.5,548.6,533.7,560.4,543.2z"/>
		<path class="st15" d="M502.7,602c-2.7,3.4-2.2,8.3,1.2,11s8.3,2.2,11-1.2c2.7-3.4,2.2-8.3-1.2-11C510.3,598,505.4,598.5,502.7,602
			z"/>
		<path class="st14" d="M537.1,559.5c-2.7,3.4-2.2,8.3,1.2,11s8.3,2.2,11-1.2c2.7-3.4,2.2-8.3-1.2-11S539.8,556.2,537.1,559.5z"/>
		<path class="st16" d="M582,614.2c4-11.7,3.1-23.9-1.7-34.3c-10.2,5.2-18.5,14.3-22.5,25.9c-4,11.7-3.1,23.9,1.7,34.3
			C569.7,634.8,578,625.8,582,614.2z"/>
		<path class="st13" d="M594,611.3c-0.4-12.3-5.6-23.4-13.7-31.4c-7.7,8.5-12.2,19.9-11.8,32.2s5.6,23.4,13.7,31.4
			C589.9,635,594.4,623.8,594,611.3z"/>
	</g>
	<g class="st12">
		<path class="st13" d="M528.3,362.4c12.2,1.9,24-1.1,33.5-7.6c-6.9-9.1-17.2-15.7-29.4-17.7c-12.2-1.9-24,1.1-33.5,7.6
			C505.8,353.9,516.1,360.5,528.3,362.4z"/>
		<path class="st14" d="M561.8,354.8c28.7,9.3,44.4,40.1,35.1,68.8s-40.1,44.4-68.8,35.1c-28.7-9.3-44.4-40.1-35.1-68.8
			C502.3,361.1,533.1,345.5,561.8,354.8z"/>
		<path class="st15" d="M593.6,382c6.3,12.5,7.9,27.3,3.3,41.7c-9.3,28.7-40.1,44.4-68.8,35.1c-14.3-4.7-25.4-14.7-31.8-27.2
			c6.8,13.4,23.3,18.8,36.7,11.9s18.8-23.3,11.9-36.7c-6.9-13.4-1.5-29.9,11.9-36.7S586.7,368.5,593.6,382z"/>
		<path class="st15" d="M517,412.1c-3.9,2-5.4,6.7-3.4,10.5c2,3.8,6.7,5.4,10.5,3.4c3.9-2,5.4-6.7,3.4-10.5
			C525.6,411.8,520.9,410.1,517,412.1z"/>
		<path class="st14" d="M565.7,387.4c-3.9,2-5.4,6.7-3.4,10.5c2,3.9,6.7,5.4,10.5,3.4c3.9-2,5.4-6.7,3.4-10.5
			C574.3,387,569.5,385.4,565.7,387.4z"/>
		<path class="st16" d="M584.5,455.6c8.4-9,12.5-20.5,12.4-32c-11.4,0.6-22.7,5.5-31.1,14.5s-12.5,20.5-12.4,32
			C564.8,469.5,576,464.6,584.5,455.6z"/>
		<path class="st13" d="M596.6,458c4.7-11.4,4.4-23.7,0.2-34.3c-10.5,4.7-19.2,13.2-23.9,24.6c-4.7,11.4-4.4,23.7-0.2,34.3
			C583.2,477.9,591.9,469.4,596.6,458z"/>
	</g>
	<g class="st12">
		<path class="st13" d="M637.9,203.8c10.4,6.7,22.4,8.8,33.7,6.7c-2.6-11.2-9.3-21.3-19.7-28.1c-10.4-6.7-22.4-8.8-33.7-6.7
			C620.8,186.8,627.5,197,637.9,203.8z"/>
		<path class="st14" d="M671.5,210.4c22.4,20.2,24.2,54.7,4,77.2c-20.2,22.4-54.7,24.2-77.2,4c-22.4-20.2-24.2-54.7-4-77.2
			C614.5,191.9,649.1,190.2,671.5,210.4z"/>
		<path class="st15" d="M689.5,248.2c0.7,14-3.9,28.2-14,39.4c-20.2,22.4-54.7,24.2-77.2,4c-11.2-10.1-17.3-23.8-18-37.7
			c0.8,15.1,13.6,26.6,28.7,25.8c15.1-0.8,26.6-13.6,25.8-28.7c-0.8-15.1,10.8-27.9,25.8-28.7C675.9,221.5,688.7,233.1,689.5,248.2z
			"/>
		<path class="st15" d="M607.3,244.6c-4.3,0.2-7.6,3.9-7.4,8.2c0.2,4.3,3.9,7.6,8.2,7.4c4.3-0.2,7.6-3.9,7.4-8.2
			C615.3,247.7,611.6,244.4,607.3,244.6z"/>
		<path class="st14" d="M661.8,241.8c-4.3,0.2-7.6,3.9-7.4,8.2c0.2,4.3,3.9,7.6,8.2,7.4c4.3-0.2,7.6-3.9,7.4-8.2
			C669.8,244.9,666.2,241.5,661.8,241.8z"/>
		<path class="st16" d="M651.2,311.8c11.4-4.8,19.8-13.7,24.3-24.2c-10.7-4.1-22.9-4.2-34.3,0.6c-11.4,4.8-19.8,13.7-24.3,24.2
			C627.6,316.5,639.9,316.5,651.2,311.8z"/>
		<path class="st13" d="M661.4,318.8c8.9-8.5,13.7-19.8,14.2-31.3c-11.5,0-22.9,4.2-31.8,12.8c-8.9,8.5-13.7,19.8-14.2,31.3
			C641,331.5,652.5,327.4,661.4,318.8z"/>
	</g>
	<g class="st12">
		<path class="st13" d="M802.5,103.4c6.7,10.4,16.9,17.1,28,19.8c2.2-11.3,0.2-23.3-6.6-33.7c-6.7-10.4-16.9-17.1-28-19.8
			C793.7,80.9,795.7,93,802.5,103.4z"/>
		<path class="st14" d="M830.5,123.2c12.3,27.6-0.1,59.9-27.7,72.1c-27.6,12.3-59.9-0.1-72.1-27.7c-12.3-27.6,0.1-59.9,27.7-72.1
			C785.9,83.2,818.2,95.6,830.5,123.2z"/>
		<path class="st15" d="M831.6,165c-5,13-15,24.2-28.8,30.3c-27.6,12.3-59.9-0.1-72.1-27.7c-6.1-13.8-6.1-28.7-1.1-41.8
			c-5.4,14.1,1.6,29.9,15.7,35.3c14.1,5.4,29.9-1.6,35.3-15.7c5.4-14.1,21.2-21.1,35.3-15.7C830,135.1,837,150.9,831.6,165z"/>
		<path class="st15" d="M757.9,128.3c-4-1.5-8.6,0.5-10.1,4.5s0.5,8.6,4.5,10.1s8.6-0.5,10.1-4.5C764,134.4,761.9,129.8,757.9,128.3
			z"/>
		<path class="st14" d="M808.9,147.9c-4-1.5-8.6,0.5-10.1,4.5s0.5,8.6,4.5,10.1s8.6-0.5,10.1-4.5S812.9,149.4,808.9,147.9z"/>
		<path class="st16" d="M770.7,207.5c12.4,0.2,23.7-4.4,32.1-12.2c-8.1-8.1-19.3-13.1-31.6-13.4c-12.4-0.2-23.7,4.4-32.1,12.2
			C747.3,202.2,758.4,207.3,770.7,207.5z"/>
		<path class="st13" d="M777.2,218.1c11.6-4.2,20.6-12.5,25.7-22.8c-10.5-4.7-22.7-5.5-34.3-1.3s-20.6,12.5-25.7,22.8
			C753.3,221.4,765.5,222.2,777.2,218.1z"/>
	</g>
	<g class="st12">
		<path class="st13" d="M993.7,78.6c1.9,12.2,8.5,22.5,17.6,29.5c6.5-9.4,9.6-21.2,7.7-33.4c-1.9-12.2-8.5-22.5-17.6-29.5
			C994.8,54.6,991.7,66.4,993.7,78.6z"/>
		<path class="st14" d="M1011.2,108.1c0,30.2-24.5,54.6-54.6,54.6S902,138.2,902,108.1s24.5-54.6,54.6-54.6
			S1011.2,77.9,1011.2,108.1z"/>
		<path class="st15" d="M995.2,146.7c-9.9,9.9-23.5,16-38.6,16c-30.2,0-54.6-24.5-54.6-54.6c0-15.1,6.1-28.7,16-38.6
			c-10.7,10.7-10.7,28,0,38.6c10.7,10.7,28,10.7,38.6,0c10.7-10.7,28-10.7,38.6,0C1005.9,118.8,1005.9,136.1,995.2,146.7z"/>
		<path class="st15" d="M942.8,83.2c-3.1-3.1-8-3.1-11.1,0c-3.1,3.1-3.1,8,0,11.1c3.1,3.1,8,3.1,11.1,0
			C945.9,91.3,945.9,86.3,942.8,83.2z"/>
		<path class="st14" d="M981.5,121.9c-3.1-3.1-8-3.1-11.1,0s-3.1,8,0,11.1s8,3.1,11.1,0C984.5,129.9,984.5,124.9,981.5,121.9z"/>
		<path class="st16" d="M922.3,160.8c11.2,5.2,23.4,5.6,34.3,1.9c-4.1-10.7-12.2-19.8-23.4-25.1c-11.2-5.2-23.4-5.6-34.3-1.9
			C903,146.5,911.1,155.6,922.3,160.8z"/>
		<path class="st13" d="M923.9,173.1c12.3,0.9,23.9-3.1,32.7-10.4c-7.7-8.5-18.5-14.2-30.8-15.1c-12.3-0.9-23.9,3.1-32.7,10.4
			C900.7,166.5,911.6,172.2,923.9,173.1z"/>
	</g>
</g>
</svg>
