<?xml version="1.0" encoding="utf-8"?>
<!-- Generator: Adobe Illustrator 23.0.1, SVG Export Plug-In . SVG Version: 6.00 Build 0)  -->
<svg version="1.1" id="Layer_1" xmlns="http://www.w3.org/2000/svg" xmlns:xlink="http://www.w3.org/1999/xlink" x="0px" y="0px"
	 viewBox="0 0 1920 1080" style="enable-background:new 0 0 1920 1080;" xml:space="preserve">
<style type="text/css">
	.st0{opacity:0.8;}
	.st1{fill:#E90D39;}
	.st2{fill:#970524;}
	.st3{fill:#AF052E;}
	.st4{fill:#17A187;}
	.st5{fill:#1E0202;}
	.st6{opacity:0.7;}
	.st7{fill:#79A879;}
	.st8{fill:#E5E5E5;}
	.st9{fill:#5C5E71;}
	.st10{fill:#5D895D;}
	.st11{fill:#E0EBFC;}
	.st12{fill:#F9CFCF;}
	.st13{fill:#3762CC;}
	.st14{fill:#4671C6;}
	.st15{fill:#F24444;}
	.st16{fill:#FDC236;}
	.st17{fill:#37B253;}
	.st18{fill:#5F3A0F;}
</style>
<g>
	<g class="st0">
		<path class="st1" d="M629.1,308.4h115.8v728.1H629.1V308.4z"/>
		<path class="st1" d="M1175.1,308.4h115.8v728.1h-115.8V308.4z"/>
		<path class="st2" d="M629.1,887.6h115.8v148.9H629.1V887.6z"/>
		<path class="st2" d="M1175.1,887.6h115.8v148.9h-115.8V887.6z"/>
		<path class="st3" d="M629.1,308.4h115.8v115.8H629.1V308.4z"/>
		<path class="st3" d="M1172.3,308.4h118.6v115.8h-118.6V308.4z"/>
		<g>
			<path class="st2" d="M1423.3,440.8v115.8H496.7V440.8H1423.3z"/>
			<path class="st2" d="M529.8,523.6h860.5V474H529.8V523.6z"/>
			<path class="st2" d="M877.3,308.4H496.7V176.1h926.6v132.4h-380.6"/>
			<path class="st1" d="M496.7,176.1L463.6,43.7C619.1,54.1,785,60.2,960,60.2c155.9,0,321.8-5,496.4-16.5
				c-5.5,33.1-27.6,99.3-33.1,132.4H496.7z"/>
			<path class="st1" d="M522.5,143h874.2c3.3-12.9,7.2-27.2,11.3-41.9c2-7.2,4-14.4,5.9-21.5c-150.7,9.2-303.2,13.8-453.9,13.8
				s-302.8-4.6-453.4-13.7L522.5,143z"/>
			<path class="st4" d="M877.3,258.8h165.5v297.9H877.3V258.8z"/>
			<g>
				<path class="st5" d="M711.8,93.3h-16.5c-9.1,0-16.5,7.4-16.5,16.5s7.4,16.5,16.5,16.5h16.5c9.1,0,16.5-7.4,16.5-16.5
					S720.9,93.3,711.8,93.3z"/>
				<path class="st5" d="M629.1,93.3h-16.5c-9.1,0-16.5,7.4-16.5,16.5s7.4,16.5,16.5,16.5h16.5c9.1,0,16.5-7.4,16.5-16.5
					S638.2,93.3,629.1,93.3z"/>
				<path class="st5" d="M1307.5,722.1c0-9.1-7.4-16.5-16.5-16.5s-16.5,7.4-16.5,16.5v149h-82.7V325h82.7v330.9
					c0,9.1,7.4,16.5,16.5,16.5s16.5-7.4,16.5-16.5v-82.7h115.8c9.1,0,16.5-7.4,16.5-16.5V440.8c0-9.1-7.4-16.5-16.5-16.5h-115.8V325
					h115.8c9.1,0,16.5-7.4,16.5-16.5V177.7c2.7-15.7,9.4-39.9,15.9-63.4c7.2-26,14-50.5,16.9-67.8c0.8-5-0.7-10.1-4.1-13.8
					c-3.4-3.8-8.3-5.8-13.4-5.5c-164.1,11-330.8,16.5-495.3,16.5s-331-5.6-495.1-16.6c-5.3-0.4-10.4,1.8-13.8,5.9s-4.6,9.5-3.3,14.6
					l32.5,130.5v130.3c0,9.1,7.4,16.5,16.5,16.5h115.8v99.3H496.7c-9.1,0-16.5,7.4-16.5,16.5v115.8c0,9.1,7.4,16.5,16.5,16.5h115.8
					v446.8h-182v33.1h1059v-33.1h-182V722.1z M1406.8,457.4v82.7h-99.3v-82.7H1406.8z M860.7,325v99.3h-99.3V325L860.7,325
					L860.7,325z M860.7,540.1h-99.3v-82.7h99.3V540.1z M761.4,573.2h397.1V1020H761.4V573.2z M893.8,540.1V275.4h132.4v264.7H893.8z
					 M1059.3,457.4h99.3v82.7h-99.3V457.4z M1158.6,424.3h-99.3V325h99.3V424.3z M513.2,192.6h347.5c9.1,0,16.5-7.4,16.5-16.5
					s-7.4-16.5-16.5-16.5H509.6l-24.5-97.8c157.6,10,317.2,15.1,474.9,15.1c158,0,317.9-5.1,475.7-15.2
					c-3.3,13.2-7.5,28.7-11.7,43.8c-5.5,19.7-10.7,38.5-14.2,54.1H926.9c-9.1,0-16.5,7.4-16.5,16.5s7.4,16.5,16.5,16.5h479.9v99.3
					h-347.5v-33.1c0-9.1-7.4-16.5-16.5-16.5H877.3c-9.1,0-16.5,7.4-16.5,16.5v33.1H513.2V192.6z M728.3,325v546.1h-82.7V325H728.3z
					 M513.2,540.1v-82.7h99.3v82.7H513.2z M645.6,1020V904.2h82.7V1020L645.6,1020L645.6,1020z M1191.7,1020V904.2h82.7V1020
					L1191.7,1020L1191.7,1020z"/>
				<path class="st5" d="M976.6,374.6h-33.1c-9.1,0-16.5,7.4-16.5,16.5s7.4,16.5,16.5,16.5h33.1c9.1,0,16.5-7.4,16.5-16.5
					S985.7,374.6,976.6,374.6z"/>
			</g>
		</g>
	</g>
	<g>
		<g class="st6">
			<path class="st7" d="M1170.2,479.2c10.8,68.7,47.6,126.7,98.8,165.8c36.8-52.9,54.1-119.4,43.4-188.1
				c-10.8-68.7-47.6-126.7-98.8-165.8C1176.7,344,1159.4,410.5,1170.2,479.2z"/>
			<path class="st8" d="M1269,645c0,169.7-137.6,307.3-307.3,307.3S654.4,814.7,654.4,645S792,337.7,961.7,337.7
				S1269,475.3,1269,645z"/>
			<path class="st9" d="M1179,862.3c-55.6,55.6-132.4,90-217.3,90C792,952.3,654.4,814.7,654.4,645c0-84.8,34.4-161.7,90-217.3
				c-60,60-60,157.3,0,217.3s157.3,60,217.3,0s157.3-60,217.3,0S1239,802.3,1179,862.3z"/>
			<path class="st9" d="M884.2,505.2c-17.2-17.2-45.1-17.2-62.3,0s-17.2,45.1,0,62.4c17.2,17.2,45.1,17.2,62.3,0
				C901.4,550.3,901.4,522.4,884.2,505.2z"/>
			<path class="st8" d="M1101.5,722.5c-17.2-17.2-45.1-17.2-62.3,0c-17.2,17.2-17.2,45.1,0,62.3c17.2,17.2,45.1,17.2,62.3,0
				S1118.7,739.7,1101.5,722.5z"/>
			<path class="st10" d="M768.9,941.7c63,29.4,131.7,31.3,192.7,10.6c-23.3-60.1-68.9-111.6-131.8-141
				c-63-29.4-131.7-31.3-192.7-10.6C660.4,860.8,706,912.3,768.9,941.7z"/>
			<path class="st7" d="M777.7,1010.7c69.3,5.2,134.3-17.4,184-58.4c-43.1-47.9-103.9-79.9-173.2-85.1
				c-69.3-5.2-134.3,17.4-184,58.4C647.5,973.5,708.4,1005.5,777.7,1010.7z"/>
		</g>
		<g>
			<g>
				<path class="st11" d="M804.4,713.9v42.3c0,1.8,1.5,3.3,3.3,3.3h111.2c0,2,0,41.4,0,40.4c0,1.1,0.9,2,2,2h78.2
					c1.2,0,2.1-0.9,2.1-2.1v-40.2h111.2c1.8,0,3.3-1.5,3.3-3.3V714H804.4V713.9z"/>
			</g>
			<g>
				<path class="st12" d="M804.4,713.9l-19.3-6.8c-1.7-0.6-3.6,0.3-4.2,2c-0.5,1.4-0.1,2.9,1.1,3.8l5.4,4.2h-20.1
					c-2.7,0-4.9,2.2-4.9,4.9v16c0,2.4,1.7,4.4,4,4.8l16.3,2.9c3.1,0.5,6.2,0.2,9.1-1l12.7-5.2L804.4,713.9L804.4,713.9z"/>
			</g>
			<g>
				<path class="st12" d="M1115.6,713.9l19.3-6.8c1.7-0.6,3.6,0.3,4.2,2c0.5,1.4,0.1,2.9-1.1,3.8l-5.4,4.2h20.1
					c2.7,0,4.9,2.2,4.9,4.9v16c0,2.4-1.7,4.4-4,4.8l-18.6,3.3c-1.5,0.3-3.1,0.1-4.5-0.5l-14.9-6.1V713.9z"/>
			</g>
			<g>
				<path class="st13" d="M999,805.1h-78.2c-2.9,0-5.2-2.3-5.2-5.1c0,0,0,0,0-0.1v-37.1H807.7c-3.6,0-6.6-2.9-6.6-6.6v-42.3
					c0-1.8,1.5-3.3,3.3-3.3h311.2c1.8,0,3.3,1.5,3.3,3.3v42.3c0,3.6-2.9,6.6-6.6,6.6h-107.9v37C1004.4,802.7,1001.9,805.1,999,805.1
					L999,805.1z M922.1,798.6h75.7v-39.1c0-1.8,1.5-3.3,3.3-3.3h111.2v-39.1H807.7v39.1h111.2c1.8,0,3.3,1.5,3.3,3.3L922.1,798.6z"
					/>
			</g>
			<g>
				<path class="st13" d="M785.6,749.3c-1.2,0-2.3-0.1-3.5-0.3l-16.3-2.9c-3.9-0.7-6.7-4.1-6.7-8.1v-16c0-4.5,3.7-8.2,8.2-8.2h11.1
					c-1.1-1.7-1.4-3.9-0.6-5.9c1.3-3.4,5-5.1,8.4-3.9l19.3,6.8c1.3,0.5,2.2,1.7,2.2,3.1v25.7c0,1.3-0.8,2.5-2,3l-12.7,5.2
					C790.6,748.8,788.1,749.3,785.6,749.3L785.6,749.3z M767.3,720.4c-0.9,0-1.6,0.7-1.6,1.6v16c0,0.8,0.6,1.5,1.3,1.6l16.3,2.9
					c2.5,0.4,5,0.2,7.3-0.8l10.6-4.3v-21.2l-17.1-6l5.3,4.3c1.1,0.9,1.5,2.3,1.1,3.7c-0.5,1.3-1.7,2.2-3.1,2.2H767.3z"/>
			</g>
			<g>
				<path class="st13" d="M1133.5,749.6c-1.5,0-2.9-0.3-4.3-0.8l-14.9-6c-1.2-0.5-2-1.7-2-3v-25.7c0-1.4,0.9-2.6,2.2-3.1l19.3-6.8
					c3.4-1.2,7.1,0.5,8.4,3.9c0.8,2,0.5,4.2-0.6,5.9h11.1c4.5,0,8.2,3.7,8.2,8.2v16c0,4-2.8,7.4-6.7,8.1l-18.6,3.3
					C1134.9,749.5,1134.2,749.6,1133.5,749.6z M1118.8,737.4l12.8,5.2c0.9,0.4,1.8,0.4,2.7,0.3l18.6-3.3c0.8-0.1,1.3-0.8,1.3-1.6
					v-16c0-0.9-0.7-1.6-1.6-1.6h-20.1c-1.4,0-2.6-0.9-3.1-2.2s0-2.8,1.1-3.7l5.4-4.2l-17.2,5.9L1118.8,737.4L1118.8,737.4z"/>
			</g>
			<g>
				<path class="st12" d="M908.9,992.1l-4.5,8.6c-1.7,3.3-2.7,7-2.7,10.8c0,2.9,2.4,5.3,5.3,5.3h27.7c2.9,0,5.3-2.4,5.3-5.3
					c0-3,0.1-5.5-1-9.3l-3.1-10.2h-27V992.1z"/>
			</g>
			<g>
				<path class="st12" d="M1011.3,992.1l4.5,8.6c1.7,3.3,2.7,7,2.7,10.8c0,2.9-2.4,5.3-5.3,5.3h-27.7c-2.9,0-5.3-2.4-5.3-5.3
					c0-3-0.1-5.5,1-9.3l3.1-10.2h27V992.1L1011.3,992.1z"/>
			</g>
			<g>
				<path class="st11" d="M920.1,822.8l-22.8,165.5c-0.3,2,1.3,3.7,3.2,3.7h42.7c1.7,0,3.1-1.3,3.3-3l13.6-137.2L973.7,989
					c0.2,1.7,1.6,3,3.3,3h42.7c2,0,3.5-1.8,3.2-3.7l-22.8-165.5H920.1z"/>
			</g>
			<g>
				<path class="st13" d="M1019.7,995.4H977c-3.4,0-6.2-2.5-6.5-5.9l-10.4-104.4l-10.3,104.4c-0.3,3.4-3.1,5.9-6.5,5.9h-42.7
					c-1.9,0-3.7-0.8-4.9-2.2s-1.8-3.3-1.6-5.2l22.8-165.5c0.2-1.6,1.6-2.8,3.2-2.8h80c1.6,0,3,1.2,3.2,2.8l22.8,165.5
					c0.3,1.9-0.3,3.8-1.6,5.2C1023.2,994.6,1021.6,995.4,1019.7,995.4L1019.7,995.4z M960.1,848.7c1.7,0,3.1,1.3,3.3,3L977,988.9
					h42.7l-22.4-162.8H923l-22.4,162.7h42.7l13.6-137.2C957,850,958.4,848.7,960.1,848.7L960.1,848.7z"/>
			</g>
			<g>
				<path class="st11" d="M1005.3,842c1.4,0,2.4-1.3,2-2.6l-5.8-23.6c-0.2-0.9-1.1-1.6-2-1.6h-78.9c-1,0-1.8,0.7-2,1.6l-5.8,23.6
					c-0.3,1.3,0.7,2.6,2,2.6C974.7,842,1006.3,842,1005.3,842z"/>
			</g>
			<g>
				<path class="st13" d="M914.7,845.3c-1.7,0-3.2-0.8-4.2-2.1s-1.4-3-1-4.6l5.8-23.6c0.6-2.4,2.7-4.1,5.2-4.1h78.9
					c2.5,0,4.6,1.7,5.2,4.1l5.8,23.6c0.4,1.6,0,3.3-1,4.6s-2.6,2.1-4.2,2.1l0,0l0,0H914.7z M921.4,817.5l-5.3,21.2h87.6l-5.3-21.2
					H921.4z"/>
			</g>
			<g>
				<path class="st13" d="M924.2,805.1c-0.6,0-1.2-0.2-1.7-0.5c-1.5-0.9-2-2.9-1.1-4.5l53.1-88c0.9-1.5,2.9-2.1,4.5-1.1
					c1.5,0.9,2,2.9,1.1,4.5l-53.1,88C926.4,804.6,925.3,805.1,924.2,805.1L924.2,805.1z"/>
			</g>
			<g>
				<path class="st12" d="M942.7,700.7v13.2l14.9,32.7l19.7-32.7v-6.7v-6.5H942.7z"/>
			</g>
			<g>
				<path class="st13" d="M957.6,749.9c-0.1,0-0.1,0-0.2,0c-1.2-0.1-2.3-0.8-2.8-1.9l-14.9-32.7c-0.2-0.4-0.3-0.9-0.3-1.4v-13.2
					c0-1.8,1.5-3.3,3.3-3.3h34.6c1.8,0,3.3,1.5,3.3,3.3v13.2c0,0.6-0.2,1.2-0.5,1.7l-19.7,32.7C959.8,749.3,958.7,749.9,957.6,749.9
					L957.6,749.9z M946,713.2l12,26.4l16-26.6v-9h-28V713.2L946,713.2z"/>
			</g>
			<g>
				<path class="st14" d="M960,699.4c-24.2,0-43.7-19.6-43.7-43.7v-14c0-4,3.2-7.2,7.2-7.2h80.3v21.2
					C1003.7,679.9,984.2,699.4,960,699.4z"/>
			</g>
			<g>
				<path class="st13" d="M960,702.7c-25.9,0-47-21.1-47-47v-14c0-5.8,4.7-10.5,10.5-10.5h80.3c1.8,0,3.3,1.5,3.3,3.3v21.2
					C1007,681.6,985.9,702.7,960,702.7z M923.5,637.8c-2.2,0-3.9,1.8-3.9,3.9v14c0,22.3,18.1,40.5,40.5,40.5
					c22.3,0,40.5-18.1,40.5-40.5v-17.9H923.5z"/>
			</g>
			<g>
				<path class="st12" d="M997.2,660.5V657c0-20.4-16.7-36.9-37.2-36.9c-20.6,0-37.2,16.5-37.2,36.9v3.5c-6.5-0.1-11.6,5-11.6,11.2
					c0,6.6,5.8,11.9,12.6,11.2c3.8,16.3,18.6,28.5,36.3,28.5c17.6,0,32.4-12.2,36.3-28.5c6.8,0.7,12.6-4.5,12.6-11.2
					C1008.8,665.5,1003.7,660.3,997.2,660.5L997.2,660.5z"/>
			</g>
			<g>
				<path class="st13" d="M979.3,679.4c-2.6,0-4.7-2.1-4.7-4.7v-5c0-2.6,2.1-4.7,4.7-4.7s4.7,2.1,4.7,4.7v5
					C984,677.3,981.9,679.4,979.3,679.4z"/>
			</g>
			<g>
				<path class="st13" d="M940.7,679.4c-2.6,0-4.7-2.1-4.7-4.7v-5c0-2.6,2.1-4.7,4.7-4.7s4.7,2.1,4.7,4.7v5
					C945.4,677.3,943.3,679.4,940.7,679.4z"/>
			</g>
			<g>
				<path class="st13" d="M960,714.7c-18,0-33.6-11.6-38.8-28.5c-3.2-0.3-6.2-1.6-8.5-3.7c-3.1-2.8-4.8-6.7-4.8-10.8
					c0-3.9,1.5-7.6,4.4-10.3c2-2,4.5-3.3,7.2-3.9V657c0-22.2,18.2-40.2,40.5-40.2s40.5,18,40.5,40.2v0.5c2.7,0.6,5.2,1.9,7.2,3.9
					c2.8,2.8,4.4,6.4,4.4,10.3c0,4.1-1.8,8-4.8,10.8c-2.4,2.1-5.4,3.4-8.5,3.7C993.6,703.1,978,714.7,960,714.7z M923.7,679.6
					c1.5,0,2.8,1,3.2,2.5c3.6,15.3,17.2,26,33.1,26s29.5-10.7,33.1-26c0.4-1.6,1.9-2.7,3.5-2.5c2.4,0.3,4.6-0.5,6.3-2
					s2.6-3.6,2.6-5.9c0-2.1-0.8-4.2-2.4-5.7s-3.6-2.4-5.9-2.3c-0.9,0-1.7-0.3-2.4-0.9c-0.6-0.6-1-1.5-1-2.3V657
					c0-18.5-15.2-33.6-34-33.6c-18.7,0-34,15.1-34,33.6v3.5c0,0.9-0.4,1.7-1,2.3s-1.5,0.9-2.4,0.9c-2.2,0-4.3,0.8-5.9,2.3
					c-1.5,1.5-2.4,3.5-2.4,5.7c0,2.3,0.9,4.4,2.6,5.9c1.7,1.6,4,2.3,6.3,2C923.5,679.6,923.6,679.6,923.7,679.6L923.7,679.6z"/>
			</g>
			<g>
				<path class="st14" d="M940,654.2h50.8c7.1,0,12.9-5.8,12.9-12.9v-11.1c0-12.6-10.2-22.8-22.8-22.8h-37.1
					c-12.6,0-22.8,10.2-22.8,22.8v5C921,645.7,929.5,654.2,940,654.2z"/>
			</g>
			<g>
				<path class="st13" d="M990.9,657.5h-50.8c-12.3,0-22.3-10-22.3-22.3v-5c0-14.4,11.7-26.1,26.1-26.1H981
					c14.4,0,26.1,11.7,26.1,26.1v11.1C1007,650.2,999.8,657.5,990.9,657.5z M943.8,610.7c-10.8,0-19.5,8.8-19.5,19.5v5
					c0,8.7,7.1,15.7,15.7,15.7h50.8c5.3,0,9.6-4.3,9.6-9.6v-11.1c0-10.8-8.8-19.5-19.5-19.5L943.8,610.7L943.8,610.7z"/>
			</g>
			<g>
				<path class="st13" d="M960,695.2c-1.6,0-3-0.2-4.3-0.6c-2.1-0.6-4-1.7-5.4-3.2c-1-1-0.9-2.5,0-3.5c1-1,2.5-0.9,3.5,0
					c0.8,0.8,2,1.5,3.3,1.9c0.8,0.2,1.7,0.4,2.8,0.4s2-0.1,2.8-0.4c1.3-0.4,2.5-1.1,3.3-1.9c1-1,2.5-1,3.5,0s1,2.5,0,3.5
					c-1.4,1.4-3.3,2.5-5.4,3.2C963,695,961.6,695.2,960,695.2L960,695.2z"/>
			</g>
			<g>
				<path class="st14" d="M956.5,801.9h-10.4l-9.4,49.9h19.8L956.5,801.9L956.5,801.9z"/>
			</g>
			<g>
				<path class="st14" d="M963.4,801.9h10.4l9.4,49.9h-19.8V801.9z"/>
			</g>
			<g>
				<path class="st13" d="M956.5,855.1h-19.8c-1,0-1.9-0.4-2.5-1.2s-0.9-1.7-0.7-2.7l9.4-49.9c0.3-1.5,1.6-2.7,3.2-2.7h10.4
					c1.8,0,3.3,1.5,3.3,3.3v49.9C959.8,853.6,958.3,855.1,956.5,855.1z M940.7,848.5h12.5v-43.4h-4.4L940.7,848.5z"/>
			</g>
			<g>
				<path class="st13" d="M983.2,855.1h-19.8c-1.8,0-3.3-1.5-3.3-3.3v-49.9c0-1.8,1.5-3.3,3.3-3.3h10.4c1.6,0,2.9,1.1,3.2,2.7
					l9.4,49.9c0.2,1-0.1,1.9-0.7,2.7S984.2,855.1,983.2,855.1L983.2,855.1z M966.7,848.5h12.5l-8.2-43.4h-4.4L966.7,848.5
					L966.7,848.5z"/>
			</g>
			<g>
				<path class="st14" d="M921.6,801.9h76.8v12.4h-76.8V801.9z"/>
			</g>
			<g>
				<path class="st13" d="M998.4,817.5h-76.8c-1.8,0-3.3-1.5-3.3-3.3v-12.4c0-1.8,1.5-3.3,3.3-3.3h76.8c1.8,0,3.3,1.5,3.3,3.3v12.4
					C1001.7,816,1000.2,817.5,998.4,817.5z M924.8,810.9h70.3v-5.8h-70.3V810.9z"/>
			</g>
			<g>
				<path class="st13" d="M934.8,1020.1h-27.7c-4.7,0-8.6-3.8-8.6-8.6c0-4.3,1.1-8.5,3-12.3l4.5-8.6c0.6-1.1,1.7-1.8,2.9-1.8H936
					c1.4,0,2.7,0.9,3.1,2.3l3.1,10.2c1.1,3.8,1.1,6.6,1.1,9.3v0.9C943.3,1016.3,939.5,1020.1,934.8,1020.1L934.8,1020.1z
					 M910.9,995.4l-3.6,6.9c-1.5,2.8-2.3,6.1-2.3,9.3c0,1.1,0.9,2,2,2h27.7c1.1,0,2-0.9,2-2v-0.9c0-2.5,0-4.6-0.8-7.4l-2.4-7.8
					L910.9,995.4L910.9,995.4z"/>
			</g>
			<g>
				<path class="st13" d="M1013.2,1020.1h-27.7c-4.7,0-8.6-3.8-8.6-8.6v-0.9c0-2.7,0-5.5,1.1-9.3l3.1-10.2c0.4-1.4,1.7-2.3,3.1-2.3
					h27.1c1.2,0,2.3,0.7,2.9,1.8l4.5,8.6c2,3.8,3,8,3,12.3C1021.8,1016.3,1017.9,1020.1,1013.2,1020.1z M986.7,995.4l-2.4,7.8
					c-0.9,2.9-0.9,4.9-0.8,7.4v0.9c0,1.1,0.9,2,2,2h27.7c1.1,0,2-0.9,2-2c0-3.2-0.8-6.4-2.3-9.3l-3.6-6.9L986.7,995.4L986.7,995.4z"
					/>
			</g>
			<g>
				<path class="st15" d="M847.5,636.5l5.9-5.9c1.9-1.9,0.8-5.1-1.8-5.5l-33.5-5.5c-2.2-0.4-4.1,1.6-3.8,3.8l5.5,33.5
					c0.4,2.6,3.7,3.7,5.5,1.8l5.9-5.9l50.5,50.5c1.3,1.3,3.4,1.3,4.6,0l11.6-11.6c1.3-1.3,1.3-3.4,0-4.6L847.5,636.5z"/>
			</g>
			<g>
				<path class="st16" d="M1027.3,703.2c1.3,1.3,3.4,1.3,4.6,0l50.5-50.5l5.9,5.9c1.9,1.9,5.1,0.8,5.5-1.8l5.5-33.5
					c0.4-2.2-1.6-4.1-3.8-3.8L1062,625c-2.6,0.4-3.7,3.7-1.8,5.5l5.9,5.9l-50.5,50.5c-1.3,1.3-1.3,3.4,0,4.6L1027.3,703.2z"/>
			</g>
			<g>
				<path class="st17" d="M1093.9,821.5c-0.4-2.6-3.7-3.7-5.5-1.8l-5.9,5.9l-50.5-50.5c-1.3-1.3-3.4-1.3-4.6,0l-11.6,11.6
					c-1.3,1.3-1.3,3.4,0,4.6l50.5,50.5l-5.9,5.9c-1.9,1.9-0.8,5.1,1.8,5.5l33.5,5.5c2.2,0.4,4.1-1.6,3.8-3.8L1093.9,821.5z"/>
			</g>
			<g>
				<path class="st18" d="M886.4,775.1c-1.3-1.3-3.4-1.3-4.6,0l-50.5,50.5l-5.9-5.9c-1.9-1.9-5.1-0.8-5.5,1.8l-5.5,33.5
					c-0.4,2.2,1.6,4.1,3.8,3.8l33.5-5.5c2.6-0.4,3.7-3.7,1.8-5.5l-5.9-5.9l50.5-50.5c1.3-1.3,1.3-3.4,0-4.6L886.4,775.1z"/>
			</g>
		</g>
	</g>
</g>
</svg>
