<?xml version="1.0" encoding="utf-8"?>
<!-- Generator: Adobe Illustrator 23.0.1, SVG Export Plug-In . SVG Version: 6.00 Build 0)  -->
<svg version="1.1" id="Layer_1" xmlns="http://www.w3.org/2000/svg" xmlns:xlink="http://www.w3.org/1999/xlink" x="0px" y="0px"
	 viewBox="0 0 1920 1080" style="enable-background:new 0 0 1920 1080;" xml:space="preserve">
<style type="text/css">
	.st0{opacity:0.8;}
	.st1{fill:#D80027;}
	.st2{fill:#AB2300;}
	.st3{fill:#FF9811;}
	.st4{opacity:0.6;}
	.st5{fill:#79A879;}
	.st6{fill:#E5E5E5;}
	.st7{fill:#5C5E71;}
	.st8{fill:#5D895D;}
	.st9{fill:#E0EBFC;}
	.st10{fill:#F9CFCF;}
	.st11{fill:#3762CC;}
	.st12{fill:#4671C6;}
	.st13{fill:#F24444;}
	.st14{fill:#FDC236;}
	.st15{fill:#37B253;}
	.st16{fill:#5F3A0F;}
</style>
<g>
	<g class="st0">
		<g>
			<path class="st1" d="M355.3,108h1209.6v151.2H355.3V108z"/>
			<path class="st1" d="M355.3,432h1209.6v86.4H355.3V432z"/>
			<g>
				<path class="st2" d="M592.9,518.4v540h-86.4v-540"/>
				<path class="st2" d="M506.5,432V259.2h86.4V432"/>
				<path class="st2" d="M1413.7,518.4v540h-86.4v-540"/>
				<path class="st2" d="M1327.2,432V259.2h86.4V432"/>
				<path class="st2" d="M1608.1,21.6v64.8c-29,7.7-57.9,14.9-86.9,21.6c-374.1,86.4-748.1,86.4-1122.2,0
					c-29-6.7-57.9-13.9-86.9-21.6V21.6C742.2,79.2,1178,79.2,1608.1,21.6z"/>
			</g>
			<path class="st3" d="M895.3,237.6h129.6v108H895.3V237.6z"/>
		</g>
		<g>
			<path d="M1622.2,5.3c-4.7-4.1-10.9-6-17.1-5.2c-428.2,57.1-862.1,57.1-1290.3,0c-11.8-1.6-22.7,6.7-24.3,18.5
				c-0.1,0.9-0.2,1.9-0.2,2.9v64.8c0,9.8,6.6,18.4,16,20.9c9,2.4,18.1,4.8,27.2,7.1v144.9c0,11.9,9.7,21.6,21.6,21.6h129.6v129.6
				H355.3c-11.9,0-21.6,9.7-21.6,21.6v86.4c0,11.9,9.7,21.6,21.6,21.6h129.6v237.6c-11.9,0-21.6,9.7-21.6,21.6s9.7,21.6,21.6,21.6
				v216H312.1c-11.9,0-21.6,9.7-21.6,21.6s9.7,21.6,21.6,21.6h1209.6c11.9,0,21.6-9.7,21.6-21.6s-9.7-21.6-21.6-21.6h-86.4v-216
				c11.9,0,21.6-9.7,21.6-21.6s-9.7-21.6-21.6-21.6V540h129.6c11.9,0,21.6-9.7,21.6-21.6V432c0-11.9-9.7-21.6-21.6-21.6h-129.6
				V280.8h129.6c11.9,0,21.6-9.7,21.6-21.6V114.3c9.1-2.3,18.1-4.7,27.2-7.1c9.5-2.5,16-11.1,16-20.9V21.6
				C1629.7,15.4,1627,9.5,1622.2,5.3z M571.3,1036.8h-43.2v-216h43.2V1036.8z M571.3,777.6h-43.2V540h43.2V777.6z M1305.7,777.6
				c-11.9,0-21.6,9.7-21.6,21.6s9.7,21.6,21.6,21.6v216H614.5v-216c11.9,0,21.6-9.7,21.6-21.6s-9.7-21.6-21.6-21.6V540h691.2
				L1305.7,777.6L1305.7,777.6z M1392.1,1036.8h-43.2v-216h43.2V1036.8z M1392.1,777.6h-43.2V540h43.2V777.6z M1543.2,453.6v43.2
				H376.9v-43.2H1543.2z M528.1,410.4V280.8h43.2v129.6H528.1z M895.3,367.2h129.6c11.9,0,21.6-9.7,21.6-21.6v-64.8h259.2v129.6
				H614.5V280.8h259.2v64.8C873.7,357.5,883.4,367.2,895.3,367.2z M916.9,324v-64.8h86.4V324H916.9z M1348.9,410.4V280.8h43.2v129.6
				H1348.9z M1543.2,237.6h-496.8c0-11.9-9.7-21.6-21.6-21.6H895.3c-11.9,0-21.6,9.7-21.6,21.6H376.9v-108h19.8
				c184.8,42.7,373.8,64.5,563.4,64.8c189.7-0.3,378.7-22.1,563.4-64.8h19.8L1543.2,237.6L1543.2,237.6z M1586.5,69.7
				c-204.5,53.6-415,81-626.4,81.5c-211.4-0.5-421.9-27.9-626.4-81.5V46.2c415.9,53.3,836.9,53.3,1252.8,0V69.7z"/>
			<path d="M1608.1,1036.8h-21.6c-11.9,0-21.6,9.7-21.6,21.6s9.7,21.6,21.6,21.6h21.6c11.9,0,21.6-9.7,21.6-21.6
				S1620,1036.8,1608.1,1036.8z"/>
		</g>
	</g>
	<g class="st4">
		<path class="st5" d="M1159.5,501.1c10.8,68.7,47.6,126.7,98.8,165.8c36.8-52.9,54.1-119.4,43.4-188.1
			c-10.8-68.7-47.6-126.7-98.8-165.8C1166,365.9,1148.7,432.4,1159.5,501.1z"/>
		<path class="st6" d="M1258.2,666.9c0,169.7-137.6,307.3-307.3,307.3S643.7,836.6,643.7,666.9S781.2,359.6,951,359.6
			S1258.2,497.2,1258.2,666.9z"/>
		<path class="st7" d="M1168.2,884.2c-55.6,55.6-132.4,90-217.3,90c-169.7,0-307.3-137.6-307.3-307.3c0-84.8,34.4-161.7,90-217.3
			c-60,60-60,157.3,0,217.3s157.3,60,217.3,0s157.3-60,217.3,0S1228.2,824.2,1168.2,884.2z"/>
		<path class="st7" d="M873.5,527.1c-17.2-17.2-45.1-17.2-62.3,0c-17.2,17.2-17.2,45.1,0,62.4c17.2,17.2,45.1,17.2,62.3,0
			C890.7,572.2,890.7,544.3,873.5,527.1z"/>
		<path class="st6" d="M1090.8,744.4c-17.2-17.2-45.1-17.2-62.3,0c-17.2,17.2-17.2,45.1,0,62.3c17.2,17.2,45.1,17.2,62.3,0
			S1108,761.6,1090.8,744.4z"/>
		<path class="st8" d="M758.2,963.6c63,29.4,131.7,31.3,192.7,10.6c-23.3-60.1-68.9-111.6-131.8-141c-63-29.4-131.7-31.3-192.7-10.6
			C649.7,882.7,695.3,934.2,758.2,963.6z"/>
		<path class="st5" d="M767,1032.6c69.3,5.2,134.3-17.4,184-58.4c-43.1-47.9-103.9-79.9-173.2-85.1c-69.3-5.2-134.3,17.4-184,58.4
			C636.8,995.4,697.7,1027.4,767,1032.6z"/>
	</g>
	<g>
		<g>
			<path class="st9" d="M793.7,735.8v42.3c0,1.8,1.5,3.3,3.3,3.3h111.2c0,2,0,41.4,0,40.4c0,1.1,0.9,2,2,2h78.2
				c1.2,0,2.1-0.9,2.1-2.1v-40.2h111.2c1.8,0,3.3-1.5,3.3-3.3v-42.3H793.7V735.8z"/>
		</g>
		<g>
			<path class="st10" d="M793.7,735.8l-19.3-6.8c-1.7-0.6-3.6,0.3-4.2,2c-0.5,1.4-0.1,2.9,1.1,3.8l5.4,4.2h-20.1
				c-2.7,0-4.9,2.2-4.9,4.9v16c0,2.4,1.7,4.4,4,4.8l16.3,2.9c3.1,0.5,6.2,0.2,9.1-1l12.7-5.2L793.7,735.8L793.7,735.8z"/>
		</g>
		<g>
			<path class="st10" d="M1104.9,735.8l19.3-6.8c1.7-0.6,3.6,0.3,4.2,2c0.5,1.4,0.1,2.9-1.1,3.8l-5.4,4.2h20.1
				c2.7,0,4.9,2.2,4.9,4.9v16c0,2.4-1.7,4.4-4,4.8l-18.6,3.3c-1.5,0.3-3.1,0.1-4.5-0.5l-14.9-6.1V735.8z"/>
		</g>
		<g>
			<path class="st11" d="M988.3,827h-78.2c-2.9,0-5.2-2.3-5.2-5.1c0,0,0,0,0-0.1v-37.1H797c-3.6,0-6.6-2.9-6.6-6.6v-42.3
				c0-1.8,1.5-3.3,3.3-3.3h311.2c1.8,0,3.3,1.5,3.3,3.3v42.3c0,3.6-2.9,6.6-6.6,6.6H993.7v37C993.7,824.6,991.2,827,988.3,827
				L988.3,827z M911.4,820.5h75.7v-39.1c0-1.8,1.5-3.3,3.3-3.3h111.2V739H797v39.1h111.2c1.8,0,3.3,1.5,3.3,3.3L911.4,820.5z"/>
		</g>
		<g>
			<path class="st11" d="M774.9,771.2c-1.2,0-2.3-0.1-3.5-0.3l-16.3-2.9c-3.9-0.7-6.7-4.1-6.7-8.1v-16c0-4.5,3.7-8.2,8.2-8.2h11.1
				c-1.1-1.7-1.4-3.9-0.6-5.9c1.3-3.4,5-5.1,8.4-3.9l19.3,6.8c1.3,0.5,2.2,1.7,2.2,3.1v25.7c0,1.3-0.8,2.5-2,3l-12.7,5.2
				C779.9,770.7,777.4,771.2,774.9,771.2L774.9,771.2z M756.6,742.3c-0.9,0-1.6,0.7-1.6,1.6v16c0,0.8,0.6,1.5,1.3,1.6l16.3,2.9
				c2.5,0.4,5,0.2,7.3-0.8l10.6-4.3v-21.2l-17.1-6l5.3,4.3c1.1,0.9,1.5,2.3,1.1,3.7c-0.5,1.3-1.7,2.2-3.1,2.2H756.6z"/>
		</g>
		<g>
			<path class="st11" d="M1122.8,771.5c-1.5,0-2.9-0.3-4.3-0.8l-14.9-6c-1.2-0.5-2-1.7-2-3V736c0-1.4,0.9-2.6,2.2-3.1l19.3-6.8
				c3.4-1.2,7.1,0.5,8.4,3.9c0.8,2,0.5,4.2-0.6,5.9h11.1c4.5,0,8.2,3.7,8.2,8.2v16c0,4-2.8,7.4-6.7,8.1l-18.6,3.3
				C1124.2,771.4,1123.5,771.5,1122.8,771.5z M1108.1,759.3l12.8,5.2c0.9,0.4,1.8,0.4,2.7,0.3l18.6-3.3c0.8-0.1,1.3-0.8,1.3-1.6v-16
				c0-0.9-0.7-1.6-1.6-1.6h-20.1c-1.4,0-2.6-0.9-3.1-2.2s0-2.8,1.1-3.7l5.4-4.2l-17.2,5.9L1108.1,759.3L1108.1,759.3z"/>
		</g>
		<g>
			<path class="st10" d="M898.2,1014l-4.5,8.6c-1.7,3.3-2.7,7-2.7,10.8c0,2.9,2.4,5.3,5.3,5.3H924c2.9,0,5.3-2.4,5.3-5.3
				c0-3,0.1-5.5-1-9.3l-3.1-10.2h-27V1014z"/>
		</g>
		<g>
			<path class="st10" d="M1000.6,1014l4.5,8.6c1.7,3.3,2.7,7,2.7,10.8c0,2.9-2.4,5.3-5.3,5.3h-27.7c-2.9,0-5.3-2.4-5.3-5.3
				c0-3-0.1-5.5,1-9.3l3.1-10.2h27V1014L1000.6,1014z"/>
		</g>
		<g>
			<path class="st9" d="M909.4,844.7l-22.8,165.5c-0.3,2,1.3,3.7,3.2,3.7h42.7c1.7,0,3.1-1.3,3.3-3l13.6-137.2l13.6,137.2
				c0.2,1.7,1.6,3,3.3,3h42.7c2,0,3.5-1.8,3.2-3.7l-22.8-165.5H909.4z"/>
		</g>
		<g>
			<path class="st11" d="M1009,1017.3h-42.7c-3.4,0-6.2-2.5-6.5-5.9L949.4,907l-10.3,104.4c-0.3,3.4-3.1,5.9-6.5,5.9h-42.7
				c-1.9,0-3.7-0.8-4.9-2.2s-1.8-3.3-1.6-5.2l22.8-165.5c0.2-1.6,1.6-2.8,3.2-2.8h80c1.6,0,3,1.2,3.2,2.8l22.8,165.5
				c0.3,1.9-0.3,3.8-1.6,5.2S1010.9,1017.3,1009,1017.3L1009,1017.3z M949.4,870.6c1.7,0,3.1,1.3,3.3,3l13.6,137.2h42.7L986.6,848
				h-74.3l-22.4,162.7h42.7l13.6-137.2C946.3,871.9,947.7,870.6,949.4,870.6L949.4,870.6z"/>
		</g>
		<g>
			<path class="st9" d="M994.6,863.9c1.4,0,2.4-1.3,2-2.6l-5.8-23.6c-0.2-0.9-1.1-1.6-2-1.6h-78.9c-1,0-1.8,0.7-2,1.6l-5.8,23.6
				c-0.3,1.3,0.7,2.6,2,2.6C964,863.9,995.6,863.9,994.6,863.9z"/>
		</g>
		<g>
			<path class="st11" d="M904,867.2c-1.7,0-3.2-0.8-4.2-2.1s-1.4-3-1-4.6l5.8-23.6c0.6-2.4,2.7-4.1,5.2-4.1h78.9
				c2.5,0,4.6,1.7,5.2,4.1l5.8,23.6c0.4,1.6,0,3.3-1,4.6s-2.6,2.1-4.2,2.1l0,0l0,0H904z M910.7,839.4l-5.3,21.2H993l-5.3-21.2H910.7
				z"/>
		</g>
		<g>
			<path class="st11" d="M913.5,827c-0.6,0-1.2-0.2-1.7-0.5c-1.5-0.9-2-2.9-1.1-4.5l53.1-88c0.9-1.5,2.9-2.1,4.5-1.1
				c1.5,0.9,2,2.9,1.1,4.5l-53.1,88C915.7,826.5,914.6,827,913.5,827L913.5,827z"/>
		</g>
		<g>
			<path class="st10" d="M932,722.6v13.2l14.9,32.7l19.7-32.7v-6.7v-6.5H932z"/>
		</g>
		<g>
			<path class="st11" d="M946.9,771.8c-0.1,0-0.1,0-0.2,0c-1.2-0.1-2.3-0.8-2.8-1.9L929,737.2c-0.2-0.4-0.3-0.9-0.3-1.4v-13.2
				c0-1.8,1.5-3.3,3.3-3.3h34.6c1.8,0,3.3,1.5,3.3,3.3v13.2c0,0.6-0.2,1.2-0.5,1.7l-19.7,32.7C949.1,771.2,948,771.8,946.9,771.8
				L946.9,771.8z M935.3,735.1l12,26.4l16-26.6v-9h-28V735.1L935.3,735.1z"/>
		</g>
		<g>
			<path class="st12" d="M949.3,721.3c-24.2,0-43.7-19.6-43.7-43.7v-14c0-4,3.2-7.2,7.2-7.2h80.3v21.2
				C993,701.8,973.5,721.3,949.3,721.3z"/>
		</g>
		<g>
			<path class="st11" d="M949.3,724.6c-25.9,0-47-21.1-47-47v-14c0-5.8,4.7-10.5,10.5-10.5h80.3c1.8,0,3.3,1.5,3.3,3.3v21.2
				C996.3,703.5,975.2,724.6,949.3,724.6z M912.8,659.7c-2.2,0-3.9,1.8-3.9,3.9v14c0,22.3,18.1,40.5,40.5,40.5
				c22.3,0,40.5-18.1,40.5-40.5v-17.9H912.8z"/>
		</g>
		<g>
			<path class="st10" d="M986.5,682.4v-3.5c0-20.4-16.7-36.9-37.2-36.9c-20.6,0-37.2,16.5-37.2,36.9v3.5c-6.5-0.1-11.6,5-11.6,11.2
				c0,6.6,5.8,11.9,12.6,11.2c3.8,16.3,18.6,28.5,36.3,28.5c17.6,0,32.4-12.2,36.3-28.5c6.8,0.7,12.6-4.5,12.6-11.2
				C998.1,687.4,993,682.2,986.5,682.4L986.5,682.4z"/>
		</g>
		<g>
			<path class="st11" d="M968.6,701.3c-2.6,0-4.7-2.1-4.7-4.7v-5c0-2.6,2.1-4.7,4.7-4.7s4.7,2.1,4.7,4.7v5
				C973.3,699.2,971.2,701.3,968.6,701.3z"/>
		</g>
		<g>
			<path class="st11" d="M930,701.3c-2.6,0-4.7-2.1-4.7-4.7v-5c0-2.6,2.1-4.7,4.7-4.7s4.7,2.1,4.7,4.7v5
				C934.7,699.2,932.6,701.3,930,701.3z"/>
		</g>
		<g>
			<path class="st11" d="M949.3,736.6c-18,0-33.6-11.6-38.8-28.5c-3.2-0.3-6.2-1.6-8.5-3.7c-3.1-2.8-4.8-6.7-4.8-10.8
				c0-3.9,1.5-7.6,4.4-10.3c2-2,4.5-3.3,7.2-3.9v-0.5c0-22.2,18.2-40.2,40.5-40.2s40.5,18,40.5,40.2v0.5c2.7,0.6,5.2,1.9,7.2,3.9
				c2.8,2.8,4.4,6.4,4.4,10.3c0,4.1-1.8,8-4.8,10.8c-2.4,2.1-5.4,3.4-8.5,3.7C982.9,725,967.3,736.6,949.3,736.6z M913,701.5
				c1.5,0,2.8,1,3.2,2.5c3.6,15.3,17.2,26,33.1,26s29.5-10.7,33.1-26c0.4-1.6,1.9-2.7,3.5-2.5c2.4,0.3,4.6-0.5,6.3-2
				s2.6-3.6,2.6-5.9c0-2.1-0.8-4.2-2.4-5.7s-3.6-2.4-5.9-2.3c-0.9,0-1.7-0.3-2.4-0.9c-0.6-0.6-1-1.5-1-2.3v-3.5
				c0-18.5-15.2-33.6-34-33.6c-18.7,0-34,15.1-34,33.6v3.5c0,0.9-0.4,1.7-1,2.3s-1.5,0.9-2.4,0.9c-2.2,0-4.3,0.8-5.9,2.3
				c-1.5,1.5-2.4,3.5-2.4,5.7c0,2.3,0.9,4.4,2.6,5.9c1.7,1.6,4,2.3,6.3,2C912.8,701.5,912.9,701.5,913,701.5L913,701.5z"/>
		</g>
		<g>
			<path class="st12" d="M929.3,676.1h50.8c7.1,0,12.9-5.8,12.9-12.9v-11.1c0-12.6-10.2-22.8-22.8-22.8h-37.1
				c-12.6,0-22.8,10.2-22.8,22.8v5C910.3,667.6,918.8,676.1,929.3,676.1z"/>
		</g>
		<g>
			<path class="st11" d="M980.2,679.4h-50.8c-12.3,0-22.3-10-22.3-22.3v-5c0-14.4,11.7-26.1,26.1-26.1h37.1
				c14.4,0,26.1,11.7,26.1,26.1v11.1C996.3,672.1,989.1,679.4,980.2,679.4z M933.1,632.6c-10.8,0-19.5,8.8-19.5,19.5v5
				c0,8.7,7.1,15.7,15.7,15.7h50.8c5.3,0,9.6-4.3,9.6-9.6v-11.1c0-10.8-8.8-19.5-19.5-19.5L933.1,632.6L933.1,632.6z"/>
		</g>
		<g>
			<path class="st11" d="M949.3,717.1c-1.6,0-3-0.2-4.3-0.6c-2.1-0.6-4-1.7-5.4-3.2c-1-1-0.9-2.5,0-3.5c1-1,2.5-0.9,3.5,0
				c0.8,0.8,2,1.5,3.3,1.9c0.8,0.2,1.7,0.4,2.8,0.4s2-0.1,2.8-0.4c1.3-0.4,2.5-1.1,3.3-1.9c1-1,2.5-1,3.5,0s1,2.5,0,3.5
				c-1.4,1.4-3.3,2.5-5.4,3.2C952.3,716.9,950.9,717.1,949.3,717.1L949.3,717.1z"/>
		</g>
		<g>
			<path class="st12" d="M945.8,823.8h-10.4l-9.4,49.9h19.8L945.8,823.8L945.8,823.8z"/>
		</g>
		<g>
			<path class="st12" d="M952.7,823.8h10.4l9.4,49.9h-19.8L952.7,823.8L952.7,823.8z"/>
		</g>
		<g>
			<path class="st11" d="M945.8,877H926c-1,0-1.9-0.4-2.5-1.2s-0.9-1.7-0.7-2.7l9.4-49.9c0.3-1.5,1.6-2.7,3.2-2.7h10.4
				c1.8,0,3.3,1.5,3.3,3.3v49.9C949.1,875.5,947.6,877,945.8,877z M930,870.4h12.5V827h-4.4L930,870.4z"/>
		</g>
		<g>
			<path class="st11" d="M972.5,877h-19.8c-1.8,0-3.3-1.5-3.3-3.3v-49.9c0-1.8,1.5-3.3,3.3-3.3h10.4c1.6,0,2.9,1.1,3.2,2.7l9.4,49.9
				c0.2,1-0.1,1.9-0.7,2.7S973.5,877,972.5,877L972.5,877z M956,870.4h12.5l-8.2-43.4h-4.4L956,870.4L956,870.4z"/>
		</g>
		<g>
			<path class="st12" d="M910.9,823.8h76.8v12.4h-76.8V823.8z"/>
		</g>
		<g>
			<path class="st11" d="M987.7,839.4h-76.8c-1.8,0-3.3-1.5-3.3-3.3v-12.4c0-1.8,1.5-3.3,3.3-3.3h76.8c1.8,0,3.3,1.5,3.3,3.3v12.4
				C991,837.9,989.5,839.4,987.7,839.4z M914.1,832.8h70.3V827h-70.3V832.8z"/>
		</g>
		<g>
			<path class="st11" d="M924.1,1042h-27.7c-4.7,0-8.6-3.8-8.6-8.6c0-4.3,1.1-8.5,3-12.3l4.5-8.6c0.6-1.1,1.7-1.8,2.9-1.8h27.1
				c1.4,0,2.7,0.9,3.1,2.3l3.1,10.2c1.1,3.8,1.1,6.6,1.1,9.3v0.9C932.6,1038.2,928.8,1042,924.1,1042L924.1,1042z M900.2,1017.3
				l-3.6,6.9c-1.5,2.8-2.3,6.1-2.3,9.3c0,1.1,0.9,2,2,2H924c1.1,0,2-0.9,2-2v-0.9c0-2.5,0-4.6-0.8-7.4l-2.4-7.8L900.2,1017.3
				L900.2,1017.3z"/>
		</g>
		<g>
			<path class="st11" d="M1002.5,1042h-27.7c-4.7,0-8.6-3.8-8.6-8.6v-0.9c0-2.7,0-5.5,1.1-9.3l3.1-10.2c0.4-1.4,1.7-2.3,3.1-2.3
				h27.1c1.2,0,2.3,0.7,2.9,1.8l4.5,8.6c2,3.8,3,8,3,12.3C1011.1,1038.2,1007.2,1042,1002.5,1042z M976,1017.3l-2.4,7.8
				c-0.9,2.9-0.9,4.9-0.8,7.4v0.9c0,1.1,0.9,2,2,2h27.7c1.1,0,2-0.9,2-2c0-3.2-0.8-6.4-2.3-9.3l-3.6-6.9L976,1017.3L976,1017.3z"/>
		</g>
		<g>
			<path class="st13" d="M836.8,658.4l5.9-5.9c1.9-1.9,0.8-5.1-1.8-5.5l-33.5-5.5c-2.2-0.4-4.1,1.6-3.8,3.8l5.5,33.5
				c0.4,2.6,3.7,3.7,5.5,1.8l5.9-5.9l50.5,50.5c1.3,1.3,3.4,1.3,4.6,0l11.6-11.6c1.3-1.3,1.3-3.4,0-4.6L836.8,658.4z"/>
		</g>
		<g>
			<path class="st14" d="M1016.6,725.1c1.3,1.3,3.4,1.3,4.6,0l50.5-50.5l5.9,5.9c1.9,1.9,5.1,0.8,5.5-1.8l5.5-33.5
				c0.4-2.2-1.6-4.1-3.8-3.8l-33.5,5.5c-2.6,0.4-3.7,3.7-1.8,5.5l5.9,5.9l-50.5,50.5c-1.3,1.3-1.3,3.4,0,4.6L1016.6,725.1z"/>
		</g>
		<g>
			<path class="st15" d="M1083.2,843.4c-0.4-2.6-3.7-3.7-5.5-1.8l-5.9,5.9l-50.5-50.5c-1.3-1.3-3.4-1.3-4.6,0l-11.6,11.6
				c-1.3,1.3-1.3,3.4,0,4.6l50.5,50.5l-5.9,5.9c-1.9,1.9-0.8,5.1,1.8,5.5l33.5,5.5c2.2,0.4,4.1-1.6,3.8-3.8L1083.2,843.4z"/>
		</g>
		<g>
			<path class="st16" d="M875.7,797c-1.3-1.3-3.4-1.3-4.6,0l-50.5,50.5l-5.9-5.9c-1.9-1.9-5.1-0.8-5.5,1.8l-5.5,33.5
				c-0.4,2.2,1.6,4.1,3.8,3.8l33.5-5.5c2.6-0.4,3.7-3.7,1.8-5.5l-5.9-5.9l50.5-50.5c1.3-1.3,1.3-3.4,0-4.6L875.7,797z"/>
		</g>
	</g>
</g>
</svg>
