<?xml version="1.0" encoding="utf-8"?>
<!-- Generator: Adobe Illustrator 23.0.1, SVG Export Plug-In . SVG Version: 6.00 Build 0)  -->
<svg version="1.1" id="Layer_1" xmlns="http://www.w3.org/2000/svg" xmlns:xlink="http://www.w3.org/1999/xlink" x="0px" y="0px"
	 viewBox="0 0 1920 1080" style="enable-background:new 0 0 1920 1080;" xml:space="preserve">
<style type="text/css">
	.st0{opacity:0.4;}
	.st1{fill:#79A879;}
	.st2{fill:#E5E5E5;}
	.st3{fill:#5C5E71;}
	.st4{fill:#5D895D;}
	.st5{fill:#E0EBFC;}
	.st6{fill:#F9CFCF;}
	.st7{fill:#3762CC;}
	.st8{fill:#4671C6;}
	.st9{fill:#F24444;}
	.st10{fill:#FDC236;}
	.st11{fill:#37B253;}
	.st12{fill:#5F3A0F;}
</style>
<image style="overflow:visible;opacity:0.12;enable-background:new    ;" width="957" height="765" id="Layer_0" xlink:href="5161A04B8A3FF6FC.png"  transform="matrix(1.2854 0 0 1.2854 421.0901 24.9212)">
</image>
<g>
	<g class="st0">
		<path class="st1" d="M1246.4,464.1c10.8,68.7,47.6,126.7,98.8,165.8c36.8-52.9,54.1-119.4,43.4-188.1
			c-10.8-68.7-47.6-126.7-98.8-165.8C1252.9,328.9,1235.6,395.4,1246.4,464.1z"/>
		<path class="st2" d="M1345.2,629.9c0,169.7-137.6,307.3-307.3,307.3S730.6,799.6,730.6,629.9s137.6-307.3,307.3-307.3
			S1345.2,460.2,1345.2,629.9z"/>
		<path class="st3" d="M1255.2,847.2c-55.6,55.6-132.4,90-217.3,90c-169.7,0-307.3-137.6-307.3-307.3c0-84.8,34.4-161.7,90-217.3
			c-60,60-60,157.3,0,217.3s157.3,60,217.3,0s157.3-60,217.3,0S1315.2,787.2,1255.2,847.2z"/>
		<path class="st3" d="M960.4,490.1c-17.2-17.2-45.1-17.2-62.3,0s-17.2,45.1,0,62.4c17.2,17.2,45.1,17.2,62.3,0
			C977.6,535.2,977.6,507.3,960.4,490.1z"/>
		<path class="st2" d="M1177.7,707.4c-17.2-17.2-45.1-17.2-62.3,0c-17.2,17.2-17.2,45.1,0,62.3s45.1,17.2,62.3,0
			S1194.9,724.6,1177.7,707.4z"/>
		<path class="st4" d="M845.1,926.6c63,29.4,131.7,31.3,192.7,10.6c-23.3-60.1-68.9-111.6-131.8-141c-63-29.4-131.7-31.3-192.7-10.6
			C736.6,845.7,782.2,897.2,845.1,926.6z"/>
		<path class="st1" d="M853.9,995.6c69.3,5.2,134.3-17.4,184-58.4c-43.1-47.9-103.9-79.9-173.2-85.1c-69.3-5.2-134.3,17.4-184,58.4
			C723.7,958.4,784.6,990.4,853.9,995.6z"/>
	</g>
	<g>
		<g>
			<path class="st5" d="M880.6,698.8v42.3c0,1.8,1.5,3.3,3.3,3.3h111.2c0,2,0,41.4,0,40.4c0,1.1,0.9,2,2,2h78.2
				c1.2,0,2.1-0.9,2.1-2.1v-40.2h111.2c1.8,0,3.3-1.5,3.3-3.3v-42.3H880.6V698.8z"/>
		</g>
		<g>
			<path class="st6" d="M880.6,698.8l-19.3-6.8c-1.7-0.6-3.6,0.3-4.2,2c-0.5,1.4-0.1,2.9,1.1,3.8l5.4,4.2h-20.1
				c-2.7,0-4.9,2.2-4.9,4.9v16c0,2.4,1.7,4.4,4,4.8l16.3,2.9c3.1,0.5,6.2,0.2,9.1-1l12.7-5.2L880.6,698.8L880.6,698.8z"/>
		</g>
		<g>
			<path class="st6" d="M1191.8,698.8l19.3-6.8c1.7-0.6,3.6,0.3,4.2,2c0.5,1.4,0.1,2.9-1.1,3.8l-5.4,4.2h20.1c2.7,0,4.9,2.2,4.9,4.9
				v16c0,2.4-1.7,4.4-4,4.8l-18.6,3.3c-1.5,0.3-3.1,0.1-4.5-0.5l-14.9-6.1V698.8z"/>
		</g>
		<g>
			<path class="st7" d="M1075.2,790H997c-2.9,0-5.2-2.3-5.2-5.1c0,0,0,0,0-0.1v-37.1H883.9c-3.6,0-6.6-2.9-6.6-6.6v-42.3
				c0-1.8,1.5-3.3,3.3-3.3h311.2c1.8,0,3.3,1.5,3.3,3.3v42.3c0,3.6-2.9,6.6-6.6,6.6h-107.9v37C1080.6,787.6,1078.1,790,1075.2,790
				L1075.2,790z M998.3,783.5h75.7v-39.1c0-1.8,1.5-3.3,3.3-3.3h111.2V702H883.9v39.1h111.2c1.8,0,3.3,1.5,3.3,3.3L998.3,783.5z"/>
		</g>
		<g>
			<path class="st7" d="M861.8,734.2c-1.2,0-2.3-0.1-3.5-0.3L842,731c-3.9-0.7-6.7-4.1-6.7-8.1v-16c0-4.5,3.7-8.2,8.2-8.2h11.1
				c-1.1-1.7-1.4-3.9-0.6-5.9c1.3-3.4,5-5.1,8.4-3.9l19.3,6.8c1.3,0.5,2.2,1.7,2.2,3.1v25.7c0,1.3-0.8,2.5-2,3l-12.7,5.2
				C866.8,733.7,864.3,734.2,861.8,734.2L861.8,734.2z M843.5,705.3c-0.9,0-1.6,0.7-1.6,1.6v16c0,0.8,0.6,1.5,1.3,1.6l16.3,2.9
				c2.5,0.4,5,0.2,7.3-0.8l10.6-4.3v-21.2l-17.1-6l5.3,4.3c1.1,0.9,1.5,2.3,1.1,3.7c-0.5,1.3-1.7,2.2-3.1,2.2H843.5z"/>
		</g>
		<g>
			<path class="st7" d="M1209.7,734.5c-1.5,0-2.9-0.3-4.3-0.8l-14.9-6c-1.2-0.5-2-1.7-2-3V699c0-1.4,0.9-2.6,2.2-3.1l19.3-6.8
				c3.4-1.2,7.1,0.5,8.4,3.9c0.8,2,0.5,4.2-0.6,5.9h11.1c4.5,0,8.2,3.7,8.2,8.2v16c0,4-2.8,7.4-6.7,8.1l-18.6,3.3
				C1211.1,734.4,1210.4,734.5,1209.7,734.5z M1195,722.3l12.8,5.2c0.9,0.4,1.8,0.4,2.7,0.3l18.6-3.3c0.8-0.1,1.3-0.8,1.3-1.6v-16
				c0-0.9-0.7-1.6-1.6-1.6h-20.1c-1.4,0-2.6-0.9-3.1-2.2s0-2.8,1.1-3.7l5.4-4.2l-17.2,5.9L1195,722.3L1195,722.3z"/>
		</g>
		<g>
			<path class="st6" d="M985.1,977l-4.5,8.6c-1.7,3.3-2.7,7-2.7,10.8c0,2.9,2.4,5.3,5.3,5.3h27.7c2.9,0,5.3-2.4,5.3-5.3
				c0-3,0.1-5.5-1-9.3l-3.1-10.2h-27V977z"/>
		</g>
		<g>
			<path class="st6" d="M1087.5,977l4.5,8.6c1.7,3.3,2.7,7,2.7,10.8c0,2.9-2.4,5.3-5.3,5.3h-27.7c-2.9,0-5.3-2.4-5.3-5.3
				c0-3-0.1-5.5,1-9.3l3.1-10.2h27L1087.5,977L1087.5,977z"/>
		</g>
		<g>
			<path class="st5" d="M996.3,807.7l-22.8,165.5c-0.3,2,1.3,3.7,3.2,3.7h42.7c1.7,0,3.1-1.3,3.3-3l13.6-137.2l13.6,137.2
				c0.2,1.7,1.6,3,3.3,3h42.7c2,0,3.5-1.8,3.2-3.7l-22.8-165.5H996.3z"/>
		</g>
		<g>
			<path class="st7" d="M1095.9,980.3h-42.7c-3.4,0-6.2-2.5-6.5-5.9L1036.3,870L1026,974.4c-0.3,3.4-3.1,5.9-6.5,5.9h-42.7
				c-1.9,0-3.7-0.8-4.9-2.2s-1.8-3.3-1.6-5.2l22.8-165.5c0.2-1.6,1.6-2.8,3.2-2.8h80c1.6,0,3,1.2,3.2,2.8l22.8,165.5
				c0.3,1.9-0.3,3.8-1.6,5.2S1097.8,980.3,1095.9,980.3L1095.9,980.3z M1036.3,833.6c1.7,0,3.1,1.3,3.3,3l13.6,137.2h42.7
				L1073.5,811h-74.3l-22.4,162.7h42.7l13.6-137.2C1033.2,834.9,1034.6,833.6,1036.3,833.6L1036.3,833.6z"/>
		</g>
		<g>
			<path class="st5" d="M1081.5,826.9c1.4,0,2.4-1.3,2-2.6l-5.8-23.6c-0.2-0.9-1.1-1.6-2-1.6h-78.9c-1,0-1.8,0.7-2,1.6l-5.8,23.6
				c-0.3,1.3,0.7,2.6,2,2.6C1050.9,826.9,1082.5,826.9,1081.5,826.9z"/>
		</g>
		<g>
			<path class="st7" d="M990.9,830.2c-1.7,0-3.2-0.8-4.2-2.1s-1.4-3-1-4.6l5.8-23.6c0.6-2.4,2.7-4.1,5.2-4.1h78.9
				c2.5,0,4.6,1.7,5.2,4.1l5.8,23.6c0.4,1.6,0,3.3-1,4.6s-2.6,2.1-4.2,2.1l0,0l0,0H990.9z M997.6,802.4l-5.3,21.2h87.6l-5.3-21.2
				H997.6z"/>
		</g>
		<g>
			<path class="st7" d="M1000.4,790c-0.6,0-1.2-0.2-1.7-0.5c-1.5-0.9-2-2.9-1.1-4.5l53.1-88c0.9-1.5,2.9-2.1,4.5-1.1
				c1.5,0.9,2,2.9,1.1,4.5l-53.1,88C1002.6,789.5,1001.5,790,1000.4,790L1000.4,790z"/>
		</g>
		<g>
			<path class="st6" d="M1018.9,685.6v13.2l14.9,32.7l19.7-32.7v-6.7v-6.5H1018.9z"/>
		</g>
		<g>
			<path class="st7" d="M1033.8,734.8c-0.1,0-0.1,0-0.2,0c-1.2-0.1-2.3-0.8-2.8-1.9l-14.9-32.7c-0.2-0.4-0.3-0.9-0.3-1.4v-13.2
				c0-1.8,1.5-3.3,3.3-3.3h34.6c1.8,0,3.3,1.5,3.3,3.3v13.2c0,0.6-0.2,1.2-0.5,1.7l-19.7,32.7C1036,734.2,1034.9,734.8,1033.8,734.8
				L1033.8,734.8z M1022.2,698.1l12,26.4l16-26.6v-9h-28L1022.2,698.1L1022.2,698.1z"/>
		</g>
		<g>
			<path class="st8" d="M1036.2,684.3c-24.2,0-43.7-19.6-43.7-43.7v-14c0-4,3.2-7.2,7.2-7.2h80.3v21.2
				C1079.9,664.8,1060.4,684.3,1036.2,684.3z"/>
		</g>
		<g>
			<path class="st7" d="M1036.2,687.6c-25.9,0-47-21.1-47-47v-14c0-5.8,4.7-10.5,10.5-10.5h80.3c1.8,0,3.3,1.5,3.3,3.3v21.2
				C1083.2,666.5,1062.1,687.6,1036.2,687.6z M999.7,622.7c-2.2,0-3.9,1.8-3.9,3.9v14c0,22.3,18.1,40.5,40.5,40.5
				c22.3,0,40.5-18.1,40.5-40.5v-17.9H999.7z"/>
		</g>
		<g>
			<path class="st6" d="M1073.4,645.4v-3.5c0-20.4-16.7-36.9-37.2-36.9c-20.6,0-37.2,16.5-37.2,36.9v3.5c-6.5-0.1-11.6,5-11.6,11.2
				c0,6.6,5.8,11.9,12.6,11.2c3.8,16.3,18.6,28.5,36.3,28.5c17.6,0,32.4-12.2,36.3-28.5c6.8,0.7,12.6-4.5,12.6-11.2
				C1085,650.4,1079.9,645.2,1073.4,645.4L1073.4,645.4z"/>
		</g>
		<g>
			<path class="st7" d="M1055.5,664.3c-2.6,0-4.7-2.1-4.7-4.7v-5c0-2.6,2.1-4.7,4.7-4.7s4.7,2.1,4.7,4.7v5
				C1060.2,662.2,1058.1,664.3,1055.5,664.3z"/>
		</g>
		<g>
			<path class="st7" d="M1016.9,664.3c-2.6,0-4.7-2.1-4.7-4.7v-5c0-2.6,2.1-4.7,4.7-4.7s4.7,2.1,4.7,4.7v5
				C1021.6,662.2,1019.5,664.3,1016.9,664.3z"/>
		</g>
		<g>
			<path class="st7" d="M1036.2,699.6c-18,0-33.6-11.6-38.8-28.5c-3.2-0.3-6.2-1.6-8.5-3.7c-3.1-2.8-4.8-6.7-4.8-10.8
				c0-3.9,1.5-7.6,4.4-10.3c2-2,4.5-3.3,7.2-3.9v-0.5c0-22.2,18.2-40.2,40.5-40.2c22.3,0,40.5,18,40.5,40.2v0.5
				c2.7,0.6,5.2,1.9,7.2,3.9c2.8,2.8,4.4,6.4,4.4,10.3c0,4.1-1.8,8-4.8,10.8c-2.4,2.1-5.4,3.4-8.5,3.7
				C1069.8,688,1054.2,699.6,1036.2,699.6z M999.9,664.5c1.5,0,2.8,1,3.2,2.5c3.6,15.3,17.2,26,33.1,26s29.5-10.7,33.1-26
				c0.4-1.6,1.9-2.7,3.5-2.5c2.4,0.3,4.6-0.5,6.3-2c1.7-1.5,2.6-3.6,2.6-5.9c0-2.1-0.8-4.2-2.4-5.7s-3.6-2.4-5.9-2.3
				c-0.9,0-1.7-0.3-2.4-0.9c-0.6-0.6-1-1.5-1-2.3v-3.5c0-18.5-15.2-33.6-34-33.6c-18.7,0-34,15.1-34,33.6v3.5c0,0.9-0.4,1.7-1,2.3
				s-1.5,0.9-2.4,0.9c-2.2,0-4.3,0.8-5.9,2.3c-1.5,1.5-2.4,3.5-2.4,5.7c0,2.3,0.9,4.4,2.6,5.9c1.7,1.6,4,2.3,6.3,2
				C999.7,664.5,999.8,664.5,999.9,664.5L999.9,664.5z"/>
		</g>
		<g>
			<path class="st8" d="M1016.2,639.1h50.8c7.1,0,12.9-5.8,12.9-12.9v-11.1c0-12.6-10.2-22.8-22.8-22.8H1020
				c-12.6,0-22.8,10.2-22.8,22.8v5C997.2,630.6,1005.7,639.1,1016.2,639.1z"/>
		</g>
		<g>
			<path class="st7" d="M1067.1,642.4h-50.8c-12.3,0-22.3-10-22.3-22.3v-5c0-14.4,11.7-26.1,26.1-26.1h37.1
				c14.4,0,26.1,11.7,26.1,26.1v11.1C1083.2,635.1,1076,642.4,1067.1,642.4z M1020,595.6c-10.8,0-19.5,8.8-19.5,19.5v5
				c0,8.7,7.1,15.7,15.7,15.7h50.8c5.3,0,9.6-4.3,9.6-9.6v-11.1c0-10.8-8.8-19.5-19.5-19.5L1020,595.6L1020,595.6z"/>
		</g>
		<g>
			<path class="st7" d="M1036.2,680.1c-1.6,0-3-0.2-4.3-0.6c-2.1-0.6-4-1.7-5.4-3.2c-1-1-0.9-2.5,0-3.5c1-1,2.5-0.9,3.5,0
				c0.8,0.8,2,1.5,3.3,1.9c0.8,0.2,1.7,0.4,2.8,0.4c1.1,0,2-0.1,2.8-0.4c1.3-0.4,2.5-1.1,3.3-1.9c1-1,2.5-1,3.5,0s1,2.5,0,3.5
				c-1.4,1.4-3.3,2.5-5.4,3.2C1039.2,679.9,1037.8,680.1,1036.2,680.1L1036.2,680.1z"/>
		</g>
		<g>
			<path class="st8" d="M1032.7,786.8h-10.4l-9.4,49.9h19.8V786.8z"/>
		</g>
		<g>
			<path class="st8" d="M1039.6,786.8h10.4l9.4,49.9h-19.8V786.8z"/>
		</g>
		<g>
			<path class="st7" d="M1032.7,840h-19.8c-1,0-1.9-0.4-2.5-1.2s-0.9-1.7-0.7-2.7l9.4-49.9c0.3-1.5,1.6-2.7,3.2-2.7h10.4
				c1.8,0,3.3,1.5,3.3,3.3v49.9C1036,838.5,1034.5,840,1032.7,840z M1016.9,833.4h12.5V790h-4.4L1016.9,833.4z"/>
		</g>
		<g>
			<path class="st7" d="M1059.4,840h-19.8c-1.8,0-3.3-1.5-3.3-3.3v-49.9c0-1.8,1.5-3.3,3.3-3.3h10.4c1.6,0,2.9,1.1,3.2,2.7l9.4,49.9
				c0.2,1-0.1,1.9-0.7,2.7S1060.4,840,1059.4,840L1059.4,840z M1042.9,833.4h12.5l-8.2-43.4h-4.4L1042.9,833.4L1042.9,833.4z"/>
		</g>
		<g>
			<path class="st8" d="M997.8,786.8h76.8v12.4h-76.8V786.8z"/>
		</g>
		<g>
			<path class="st7" d="M1074.6,802.4h-76.8c-1.8,0-3.3-1.5-3.3-3.3v-12.4c0-1.8,1.5-3.3,3.3-3.3h76.8c1.8,0,3.3,1.5,3.3,3.3v12.4
				C1077.9,800.9,1076.4,802.4,1074.6,802.4z M1001,795.8h70.3V790H1001V795.8z"/>
		</g>
		<g>
			<path class="st7" d="M1011,1005h-27.7c-4.7,0-8.6-3.8-8.6-8.6c0-4.3,1.1-8.5,3-12.3l4.5-8.6c0.6-1.1,1.7-1.8,2.9-1.8h27.1
				c1.4,0,2.7,0.9,3.1,2.3l3.1,10.2c1.1,3.8,1.1,6.6,1.1,9.3v0.9C1019.5,1001.2,1015.7,1005,1011,1005L1011,1005z M987.1,980.3
				l-3.6,6.9c-1.5,2.8-2.3,6.1-2.3,9.3c0,1.1,0.9,2,2,2h27.7c1.1,0,2-0.9,2-2v-0.9c0-2.5,0-4.6-0.8-7.4l-2.4-7.8L987.1,980.3
				L987.1,980.3z"/>
		</g>
		<g>
			<path class="st7" d="M1089.4,1005h-27.7c-4.7,0-8.6-3.8-8.6-8.6v-0.9c0-2.7,0-5.5,1.1-9.3l3.1-10.2c0.4-1.4,1.7-2.3,3.1-2.3h27.1
				c1.2,0,2.3,0.7,2.9,1.8l4.5,8.6c2,3.8,3,8,3,12.3C1098,1001.2,1094.1,1005,1089.4,1005z M1062.9,980.3l-2.4,7.8
				c-0.9,2.9-0.9,4.9-0.8,7.4v0.9c0,1.1,0.9,2,2,2h27.7c1.1,0,2-0.9,2-2c0-3.2-0.8-6.4-2.3-9.3l-3.6-6.9L1062.9,980.3L1062.9,980.3z
				"/>
		</g>
		<g>
			<path class="st9" d="M923.7,621.4l5.9-5.9c1.9-1.9,0.8-5.1-1.8-5.5l-33.5-5.5c-2.2-0.4-4.1,1.6-3.8,3.8l5.5,33.5
				c0.4,2.6,3.7,3.7,5.5,1.8l5.9-5.9l50.5,50.5c1.3,1.3,3.4,1.3,4.6,0l11.6-11.6c1.3-1.3,1.3-3.4,0-4.6L923.7,621.4z"/>
		</g>
		<g>
			<path class="st10" d="M1103.5,688.1c1.3,1.3,3.4,1.3,4.6,0l50.5-50.5l5.9,5.9c1.9,1.9,5.1,0.8,5.5-1.8l5.5-33.5
				c0.4-2.2-1.6-4.1-3.8-3.8l-33.5,5.5c-2.6,0.4-3.7,3.7-1.8,5.5l5.9,5.9l-50.5,50.5c-1.3,1.3-1.3,3.4,0,4.6L1103.5,688.1z"/>
		</g>
		<g>
			<path class="st11" d="M1170.1,806.4c-0.4-2.6-3.7-3.7-5.5-1.8l-5.9,5.9l-50.5-50.5c-1.3-1.3-3.4-1.3-4.6,0l-11.6,11.6
				c-1.3,1.3-1.3,3.4,0,4.6l50.5,50.5l-5.9,5.9c-1.9,1.9-0.8,5.1,1.8,5.5l33.5,5.5c2.2,0.4,4.1-1.6,3.8-3.8L1170.1,806.4z"/>
		</g>
		<g>
			<path class="st12" d="M962.6,760c-1.3-1.3-3.4-1.3-4.6,0l-50.5,50.5l-5.9-5.9c-1.9-1.9-5.1-0.8-5.5,1.8l-5.5,33.5
				c-0.4,2.2,1.6,4.1,3.8,3.8l33.5-5.5c2.6-0.4,3.7-3.7,1.8-5.5l-5.9-5.9l50.5-50.5c1.3-1.3,1.3-3.4,0-4.6L962.6,760z"/>
		</g>
	</g>
</g>
</svg>
