<?xml version="1.0" encoding="utf-8"?>
<!-- Generator: Adobe Illustrator 23.0.1, SVG Export Plug-In . SVG Version: 6.00 Build 0)  -->
<svg version="1.1" id="Layer_1" xmlns="http://www.w3.org/2000/svg" xmlns:xlink="http://www.w3.org/1999/xlink" x="0px" y="0px"
	 viewBox="0 0 511 511" style="enable-background:new 0 0 511 511;" xml:space="preserve">
<style type="text/css">
	.st0{fill:#79A879;}
	.st1{fill:#E5E5E5;}
	.st2{fill:#5C5E71;}
	.st3{fill:#5D895D;}
</style>
<g>
	<path class="st0" d="M405.3,133.4c7.6,48.7,33.8,89.9,70.1,117.6c26.1-37.5,38.4-84.7,30.8-133.4S472.4,27.7,436.1,0
		C410,37.5,397.7,84.7,405.3,133.4z"/>
	<path class="st1" d="M475.4,251.1c0,120.4-97.6,218-218,218s-218-97.6-218-218c0-120.4,97.6-218,218-218S475.4,130.7,475.4,251.1z"
		/>
	<path class="st2" d="M411.6,405.2c-39.5,39.4-94,63.9-154.1,63.9c-120.4,0-218-97.6-218-218c0-60.2,24.4-114.7,63.9-154.1
		c-42.6,42.6-42.6,111.6,0,154.1c42.6,42.6,111.6,42.6,154.2,0c42.6-42.6,111.6-42.6,154.1,0C454.1,293.6,454.1,362.7,411.6,405.2z"
		/>
	<path class="st2" d="M202.4,151.9c-12.2-12.2-32-12.2-44.2,0c-12.2,12.2-12.2,32,0,44.2c12.2,12.2,32,12.2,44.2,0
		C214.7,183.9,214.7,164.1,202.4,151.9z"/>
	<path class="st1" d="M356.6,306c-12.2-12.2-32-12.2-44.2,0c-12.2,12.2-12.2,32,0,44.2s32,12.2,44.2,0
		C368.8,338,368.8,318.2,356.6,306z"/>
	<path class="st3" d="M120.7,461.6c44.7,20.9,93.4,22.2,136.7,7.5c-16.5-42.6-48.9-79.1-93.5-100c-44.7-20.9-93.4-22.2-136.7-7.5
		C43.7,404.1,76,440.7,120.7,461.6z"/>
	<path class="st0" d="M126.9,510.5c49.2,3.7,95.2-12.4,130.5-41.4c-30.6-34-73.7-56.7-122.9-60.4C85.3,405,39.3,421,4,450.1
		C34.6,484.1,77.7,506.8,126.9,510.5z"/>
</g>
</svg>
