<svg height="511pt" viewBox="-3 0 511 511.99952" width="511pt" xmlns="http://www.w3.org/2000/svg"><path d="m402.609375 133.695312c7.648437 48.808594 33.835937 90.078126 70.230469 117.863282 26.160156-37.585938 38.472656-84.886719 30.828125-133.695313-7.644531-48.808593-33.835938-90.078125-70.230469-117.863281-26.15625 37.582031-38.472656 84.882812-30.828125 133.695312zm0 0" fill="#79a879"/><path d="m472.839844 251.558594c0 120.632812-97.792969 218.425781-218.425782 218.425781-120.632812 0-218.425781-97.792969-218.425781-218.425781 0-120.636719 97.792969-218.429688 218.425781-218.429688 120.632813 0 218.425782 97.792969 218.425782 218.429688zm0 0" fill="#e5e5e5"/><path d="m408.855469 406.003906c-39.527344 39.523438-94.136719 63.980469-154.441407 63.980469-120.632812 0-218.433593-97.800781-218.433593-218.433594 0-60.304687 24.441406-114.914062 63.980469-154.441406-42.652344 42.644531-42.652344 111.796875 0 154.441406 42.644531 42.65625 111.796874 42.65625 154.453124 0 42.644532-42.644531 111.796876-42.644531 154.441407 0 42.65625 42.652344 42.65625 111.808594 0 154.453125zm0 0" fill="#5c5e71"/><path d="m199.34375 152.171875c-12.238281-12.238281-32.078125-12.238281-44.316406 0-12.238282 12.238281-12.238282 32.082031 0 44.320313 12.238281 12.238281 32.078125 12.238281 44.316406 0 12.238281-12.238282 12.238281-32.082032 0-44.320313zm0 0" fill="#5c5e71"/><path d="m353.792969 306.625c-12.238281-12.238281-32.078125-12.238281-44.316407 0-12.238281 12.238281-12.238281 32.078125 0 44.316406 12.238282 12.238282 32.078126 12.238282 44.316407 0 12.238281-12.238281 12.238281-32.078125 0-44.316406zm0 0" fill="#e5e5e5"/><path d="m117.417969 462.453125c44.765625 20.90625 93.625 22.21875 136.996093 7.53125-16.578124-42.683594-48.949218-79.304687-93.710937-100.210937-44.765625-20.902344-93.625-22.214844-136.996094-7.53125 16.578125 42.683593 48.949219 79.304687 93.710938 100.210937zm0 0" fill="#5d895d"/><path d="m123.636719 511.476562c49.265625 3.691407 95.421875-12.390624 130.777343-41.492187-30.625-34.039063-73.871093-56.820313-123.136718-60.507813-49.269532-3.691406-95.425782 12.394532-130.777344 41.492188 30.625 34.039062 73.871094 56.820312 123.136719 60.507812zm0 0" fill="#79a879"/></svg>